<?xml version="1.0" encoding="utf-8"?>
<!-- Generator: Adobe Illustrator 16.0.0, SVG Export Plug-In . SVG Version: 6.00 Build 0)  -->
<!DOCTYPE svg PUBLIC "-//W3C//DTD SVG 1.1//EN" "http://www.w3.org/Graphics/SVG/1.1/DTD/svg11.dtd">
<svg version="1.1" id="Layer_1" xmlns="http://www.w3.org/2000/svg" xmlns:xlink="http://www.w3.org/1999/xlink" x="0px" y="0px"
	 width="50px" height="50px" viewBox="0 0 50 50" enable-background="new 0 0 50 50" xml:space="preserve">
<g id="Explosive">
	<g>
		<rect x="1.667" y="1.667" fill="#CC33FF" width="46.667" height="46.667"/>
		<g id="stroke_10_">
			<path fill="#660000" d="M48.333,1.667v46.667H1.666V1.667H48.333 M50,0h-1.137H3.404H0v1.136v45.453V50h3.404h45.459H50v-3.411
				V1.136V0L50,0z"/>
			
				<linearGradient id="SVGID_1_" gradientUnits="userSpaceOnUse" x1="898" y1="1683" x2="898" y2="1633" gradientTransform="matrix(1 0 0 1 -873 -1633)">
				<stop  offset="0" style="stop-color:#333333;stop-opacity:0.3"/>
				<stop  offset="0.2701" style="stop-color:#353535;stop-opacity:0.4215"/>
				<stop  offset="0.4166" style="stop-color:#3D3D3D;stop-opacity:0.4875"/>
				<stop  offset="0.5336" style="stop-color:#4B4B4B;stop-opacity:0.5401"/>
				<stop  offset="0.635" style="stop-color:#5E5E5E;stop-opacity:0.5857"/>
				<stop  offset="0.7262" style="stop-color:#787878;stop-opacity:0.6268"/>
				<stop  offset="0.8101" style="stop-color:#979797;stop-opacity:0.6646"/>
				<stop  offset="0.8885" style="stop-color:#BBBBBB;stop-opacity:0.6998"/>
				<stop  offset="0.9606" style="stop-color:#E5E5E5;stop-opacity:0.7323"/>
				<stop  offset="1" style="stop-color:#FFFFFF;stop-opacity:0.75"/>
			</linearGradient>
			<path fill="url(#SVGID_1_)" d="M48.333,1.667v46.667H1.666V1.667H48.333 M50,0h-1.137H3.404H0v1.136v45.453V50h3.404h45.459H50
				v-3.411V1.136V0L50,0z"/>
		</g>
	</g>
	<g id="explosive">
		<path fill="#1810C1" stroke="#9900CC" stroke-miterlimit="10" d="M43.543,4.878c-0.173-0.146,0.166-0.485,0.35-0.565
			c0.19-0.31,0.56-0.371,0.832-0.558C44.454,4.139,43.995,4.569,43.543,4.878L43.543,4.878z"/>
		<path fill="#1810C1" stroke="#9900CC" stroke-miterlimit="10" d="M43.262,6.372c-0.01-0.039-0.016-0.082-0.028-0.121
			c1.187-0.534,2.331-0.638,3.411-0.915C45.395,5.768,44.42,6.135,43.262,6.372L43.262,6.372z"/>
		<path fill="#1810C1" stroke="#9900CC" stroke-miterlimit="10" d="M45.135,4.461c-0.681,0.622-1.562,0.99-2.297,1.543
			c-0.316-0.225,0.2-0.426,0.352-0.562C43.787,5.064,44.51,4.627,45.135,4.461C44.454,5.083,43.579,5.454,45.135,4.461L45.135,4.461
			z"/>
		<path fill="#1810C1" stroke="#9900CC" stroke-miterlimit="10" d="M42.442,5.526c-0.382-0.267,0.215-0.808,0.438-1.062
			c0.202-0.169,0.879-1.315,0.594-0.481C43.067,4.419,42.791,5.028,42.442,5.526L42.442,5.526z"/>
		<path fill="#1810C1" stroke="#9900CC" stroke-miterlimit="10" d="M41.567,5.048c-0.241-0.075-0.319-0.53-0.397-0.765
			c-0.07-0.566,0.047-1.178-0.029-1.68C41.284,3.475,41.397,4.126,41.567,5.048L41.567,5.048z"/>
		<path fill="#1810C1" stroke="#9900CC" stroke-miterlimit="10" d="M42.29,4.27C42.098,4.044,42.213,3.654,42.27,3.4
			C42.563,3.618,42.244,3.971,42.29,4.27L42.29,4.27z"/>
		<path fill="#1810C1" stroke="#9900CC" stroke-miterlimit="10" d="M40.73,5.246c-0.264,0.163-0.557-0.307-0.778-0.484
			c-0.123-0.369-0.403-0.609-0.476-1.01C39.93,4.221,40.161,4.855,40.73,5.246L40.73,5.246z"/>
		<path fill="#1810C1" stroke="#9900CC" stroke-miterlimit="10" d="M40.948,5.055c-0.226-0.102-0.345-0.343-0.293-0.574
			C40.877,4.589,40.991,4.889,40.948,5.055L40.948,5.055z"/>
		<path fill="#1810C1" stroke="#9900CC" stroke-miterlimit="10" d="M45.167,7.293c-0.659,0.018-1.517-0.029-2.09-0.423
			c0.124-0.244,0.322,0.172,0.509,0.091C44.139,6.906,44.637,7.258,45.167,7.293L45.167,7.293z"/>
		<path fill="#1810C1" stroke="#9900CC" stroke-miterlimit="10" d="M41.846,5.715c-0.037,0.563-0.68,0.618-0.475,1.178
			c-0.104,0.062-0.111,0.385-0.268,0.156c0.342-0.279-0.025-0.312-0.24-0.377c-0.195,0.042-0.417,0.131-0.586-0.064
			c-0.131-0.153-0.301,0.261-0.58,0.188c-2.585-0.241-5.223,0.534-7.316,1.81c-0.065,0.248-0.326,0.255-0.404,0.535
			c0.732,0.448,1.285,1.031,1.791,1.627c-0.594,1.328-1.664,2.52-2.285,3.672c0.215,0.603,0.797,0.918,1.188,1.396
			c4.461,4.899,5.616,12.373,2.727,18.373c-2.858,6.279-8.776,9.749-15.293,9.837c-5.618,0.325-11.959-3.693-14.646-8.662
			C2.401,29.6,2.555,22.643,6.729,16.985c3.936-5.222,10.947-7.677,17.113-6.253c0.723,0.191,1.438,0.41,2.127,0.608
			c0.076-0.022,0.203-0.007,0.223-0.088c0.808-1.101,1.613-2.489,2.408-3.76c1.179-0.177,2.338,2.108,3.17,0.345
			c1.875-1.803,4.408-1.725,6.883-2.148c0.273,0.145,0.41,0.033,0.742-0.031c-0.254-0.223-0.703-0.234-1.068-0.332
			c0.689,0.104,1.68,0.031,2.139,0.699c-0.035,0.117-0.074,0.125-0.168,0.068c0.067-0.318-0.35-0.02-0.486-0.006
			c-0.168,0.739,0.449-0.049,0.711,0.273c0.088-0.307,0.469-0.492,0.531-0.124c0.342-0.177-0.244-1.035,0.412-0.921
			c0.065,0.104,0.014,0.404,0.176,0.342C41.688,5.553,41.782,5.711,41.846,5.715L41.846,5.715z"/>
		<path fill="#1810C1" stroke="#9900CC" stroke-miterlimit="10" d="M42.573,6.852c-0.134,0.211-0.36-0.16-0.576,0.041
			c0.007,0.192-0.194,0.361-0.276,0.539c-0.18-0.076-0.25-0.226-0.297-0.414c0.395-0.111,0-0.521,0.395-0.639
			C41.954,7.057,42.654,6.086,42.573,6.852L42.573,6.852z"/>
		<path fill="#1810C1" stroke="#9900CC" stroke-miterlimit="10" d="M39.607,5.168c-0.325-0.107-1.126-0.501-0.208-0.293
			C39.461,4.979,39.809,4.999,39.607,5.168L39.607,5.168z"/>
		<path fill="#1810C1" stroke="#9900CC" stroke-miterlimit="10" d="M45.359,10.025c-0.771-0.742-1.562-1.784-2.588-2.497
			c0.539,0.01,1.037,0.586,1.416,0.979C44.549,9.021,45.151,9.371,45.359,10.025L45.359,10.025z"/>
		<path fill="#1810C1" stroke="#9900CC" stroke-miterlimit="10" d="M42.771,8.156c0.24,0.508,1.003,1.959,0.039,0.572
			C42.647,8.566,42.156,7.827,42.771,8.156L42.771,8.156z"/>
		<path fill="#1810C1" stroke="#9900CC" stroke-miterlimit="10" d="M39.002,6.291c-0.098-0.417-0.99,0.654-0.617-0.156
			c-0.625,0.586-0.547-0.277-1.138,0.307c-0.146-0.187-0.459-0.153-0.62,0.106c-0.117,0.084-0.15-0.032-0.312-0.13
			c-0.137,0.104-0.358,0.365-0.413,0.296c0.022-0.088-0.05-0.137-0.121-0.176c-0.222-0.007-0.289,0.41-0.455,0.205
			c-0.173-0.299-0.604,0.599-0.651,0.052c-0.363,0.59-0.65-0.208-0.943,0.521c0.039-0.273-0.176-0.137-0.312-0.131
			c-0.109,0.125-0.246,0.502-0.296,0.371c-0.081-0.078-0.166-0.002-0.261,0.004c0.056,0.172-0.113,0.287-0.182,0.445
			c-0.096-0.064-0.082-0.183-0.192-0.218c-0.329,0.06-0.101,0.847-0.41,0.296c-0.144,0.338-0.205,0.689-0.664,0.693
			c-0.381-0.336,0.515-0.297,0.397-0.791c0.445,0.176,0.322-0.684,0.807-0.413c0.28-0.183,0.587-0.511,0.873-0.498
			c0.229-0.58,0.762,0.078,1.041-0.524c0.202-0.272,0.117,0.075,0.385,0.008c0.514-0.297,0.67-0.231,1.198-0.199
			c0.228,0.013,0.41-0.336,0.56-0.107c0.188,0.114,0.678-0.459,0.696-0.023c0.527-0.846,0.671,0.453,1.156-0.328
			C38.52,6.812,39.49,5.357,39.002,6.291L39.002,6.291z"/>
		<path fill="#1810C1" stroke="#9900CC" stroke-miterlimit="10" d="M42.635,10.52c-0.129-0.935-0.811-1.777-0.781-2.68
			C42.391,8.664,42.657,9.549,42.635,10.52L42.635,10.52z"/>
		<path fill="#1810C1" stroke="#9900CC" stroke-miterlimit="10" d="M41.268,8.163c-0.293,0.729-0.319,1.504-0.594,2.207
			c-0.156-0.749,0.269-1.53,0.424-2.312C41.15,8.091,41.221,8.13,41.268,8.163L41.268,8.163z"/>
		<path fill="#1810C1" stroke="#9900CC" stroke-miterlimit="10" d="M40.512,7.85c-0.819,0.636-1.596,1.264-2.444,1.836
			c0.653-0.793,1.536-1.256,2.282-1.934C40.422,7.791,40.467,7.824,40.512,7.85L40.512,7.85z"/>
		<path fill="#1810C1" stroke="#9900CC" stroke-miterlimit="10" d="M39.471,7.534c-0.647,0.146-1.201,0.459-1.78,0.453
			C38.149,7.721,38.989,7.362,39.471,7.534L39.471,7.534z"/>
		<path fill="#1810C1" stroke="#9900CC" stroke-miterlimit="10" d="M39.438,9.992c-0.121-0.268,0.306-0.689,0.472-1.016
			C40.278,9.01,39.663,9.738,39.438,9.992L39.438,9.992z"/>
		<path fill="#1810C1" stroke="#9900CC" stroke-miterlimit="10" d="M30.178,9.25c0.039-0.169-0.146-0.023-0.191-0.056
			c-0.287,0.245,0.48,0.791-0.28,0.55c0.104,0.459-0.11,0.445-0.515,0.459c-0.059,0.098,0.033,0.223,0.02,0.342
			c0.047,0.03,0.125,0.008,0.16,0c0.062-0.195,0.074-0.013,0.12,0.082c-0.228,0.153-0.438,0.111-0.677,0.296
			c-0.026,0.306,0.357,0.157,0.476,0.13c-0.417,0.358-1.218,0.28-1.055,1.071c-0.312,0.029-0.619-0.12-0.879-0.321
			c0.077-0.078,0.028-0.205,0.028-0.307c-0.082-0.082-0.18,0.02-0.237,0.014c0.251-0.463,0.014,0.144,0.385,0.012
			c0.039-0.338,0.515-0.36,0.353-0.729c0.441-0.501,1.002-1.395,1.125-1.811c0.219,0.336,0.008-0.321,0.293-0.104
			c-0.039-0.456,0.371-0.326,0.597-0.423C30.422,8.495,30.61,9.133,30.178,9.25L30.178,9.25z"/>
		<path fill="#1810C1" stroke="#9900CC" stroke-miterlimit="10" d="M22.035,15.148c-0.006,0.322,0.594,0.041,0.299,0.416
			c0.213,0.135,0.176,0.397,0.372,0.554c0.216-0.087,0.802-0.604,0.593,0.042c-0.273-0.395-0.404,0.172-0.664,0.075
			c-0.006,0.485,0.67,0.028,0.963,0.342c-0.062,0.099-0.186,0.245-0.051,0.293c0.188,0.28,0.354-0.042,0.53-0.062
			c-0.003,0.062-0.466,0.168-0.276,0.445c0.201-0.003,0.762,0.342,0.166,0.102c-0.102,0.104-0.115,0.228-0.06,0.365
			c0.067,0.137-0.321-0.332-0.388,0.077c0.3,0.052,0.229,0.527,0.593,0.208c-0.072-0.144-0.026-0.212,0.149-0.24
			c0.203,0.254-0.117,0.611-0.391,0.635c-0.423-0.065-0.088,0.399-0.312,0.596c0.082,0.078,0.164,0,0.242-0.014
			c0.084-0.074,0.084-0.504,0.293-0.211c0.117-0.022,0.233-0.017,0.264-0.159c-0.172,0.282-0.498,0.272-0.752,0.579
			c0.189,0.272,0.605,0.339,0.794,0.619c-0.438,0.287-0.573-0.554-0.996-0.299c0.163,0.104,0.264,0.526,0.124,0.536
			c-0.072,0.117-0.124,0.247-0.059,0.354c0.315-0.032,0.553-0.143,0.832-0.336c0.086,0.125,0.092,0.486-0.176,0.291
			c-0.124-0.021-0.111,0.121-0.197,0.195c0,0.162,0.315,0.129,0.182,0.348c-0.219-0.172-0.473-0.459-0.697-0.146
			c0.186,0.544-0.329,0.846-0.197,1.315c-0.531,0.065-0.586,1.042-1.121,0.54c-0.592-0.032,0.164,0.625-0.43,0.586
			c0.145,0.023,0.064-0.156,0.062-0.254c-0.088-0.022-0.137-0.146-0.238-0.094c0.24,0.614-0.689,0.166-0.377,0.719
			c0.482-0.353,0.234,0.404,0.417,0.318c-0.332-0.565-0.437,0.605-0.622,0.014c0.186,0.017,0.016-0.195,0.016-0.293
			c-0.272-0.137-0.348,0.24-0.521,0.365c-0.065,0.148,0.247,0.123,0.052,0.293c-0.296-0.06-0.275-0.502-0.625-0.269
			c-0.197,0.479-0.459,0.11-0.729,0.437c-0.131-0.205-0.385-0.371-0.631-0.394c-0.28,0.12,0.129,0.468-0.158,0.517
			c-0.012-0.136-0.07-0.367-0.299-0.416c-0.279,0.032-0.172,0.65-0.416,0.201c-0.104-0.098-0.195-0.052-0.312-0.029
			c-0.064,0.057,0.045,0.252-0.098,0.164c-0.049-0.289,0.354-0.361,0.039-0.597c-0.353,0.312-0.619,0.371-0.996,0.241
			c-0.065-0.104,0.191-0.046,0.299,0.049c0.052,0.068,0.148-0.042,0.234-0.018c0.062-0.098-0.014-0.236-0.018-0.338
			c-0.163-0.002-0.4,0.014-0.441-0.178c-0.114-0.134,0.328-0.382-0.018-0.498c-0.234,0.012-0.244,0.762-0.68,0.461
			c0.025-0.149,0.068-0.318,0.01-0.487c-0.441-0.072-0.318,0.456-0.357-0.06c0.062-0.094,0.409,0.192,0.487-0.15
			c-0.149-0.391-0.387-0.109-0.667-0.188c-0.12,0.084,0.208,0.456-0.127,0.312c0.124-0.15,0.143-0.336,0.085-0.506
			c-0.11-0.197-0.511-0.016-0.282-0.334c0.139,0.084,0.285,0.117,0.455,0.055c0.082-0.342-0.326-0.27-0.445-0.446
			c-0.114,0.033-0.353,0.466-0.312,0.039c0.296,0.052,0.229-0.319,0.166-0.426c-0.257-0.218-0.152-0.55-0.589-0.687
			c-0.3,0.006-0.033,0.469-0.365,0.325c-0.114-0.397,0.675-0.397,0.188-0.664c-0.064-0.013,0.033-0.375,0.021-0.149
			c0.286,0.013-0.032,0.533,0.423,0.318c-0.205-0.251,0.104-0.742-0.423-0.943c0.136-0.104,0.554,0.215,0.546-0.144
			c0.057-0.713-1.175,0.47-0.455-0.417c0.364-0.332,0.391-0.996,0.416-1.309c-0.02-0.274-0.338-0.078-0.404-0.342
			c0.115-0.131,0.209-0.434,0.397-0.375c0.202,0.25-0.423,0.052-0.325,0.416c0.353-0.137,0.353,0.382,0.713,0.219
			c-0.295-0.254,0.153-0.823-0.23-0.993c0.15-0.072,0.332-0.052,0.384-0.254c-1.055-0.979,0.774,0.06,0.476-0.654
			c-0.273,0.13-0.11-0.036-0.062-0.166c0.067,0.036,0.14,0.084,0.231,0.045c0.084-0.403,0.371,0.138,0.58,0.072
			c0.052-0.658,0.377-0.55,0.438-1.229c0.101,0.098,0.361-0.166,0.504,0.084c-0.039,0.11-0.182,0.183-0.13,0.312
			c-0.143,0.017-0.55-0.272-0.391,0.153c0.162,0.264,0.488,0.43,0.582,0.589c0.056-0.032,0.173-0.013,0.199-0.104
			c0.06-0.354-0.261-0.156-0.349-0.445c0.343-0.176,0.837-0.029,1.063-0.449c-0.207-0.258-0.137-0.41-0.123-0.693
			c0.191-0.046,0.334,0.141,0.322,0.268c-0.268-0.032-0.141,0.176-0.131,0.31c0.092,0.12,0.199,0.056,0.311,0.036
			c0.098-0.273-0.303-0.615,0.186-0.67c-0.229,0.059-0.102,0.329-0.152,0.462c0.067,0.039,0.123,0.11,0.217,0.071
			c-0.139-0.254,0.121-0.416,0.199-0.599c0.053,0.033-0.02,0.255,0.144,0.255c0.241-0.021,0.039-0.271,0.293-0.053
			c-0.586,0-0.368,0.854-1.101,0.717c-0.045,0.077-0.088,0.149-0.039,0.211c0.338,0.141,0.599-0.218,0.645,0.336
			c0.143,0.028,0.148-0.138,0.219-0.189c-0.851-0.794,0.455,0.088,0.348-0.727c0.231,0.205-0.396,0.473-0.01,0.643
			c0.271-0.124,0.291-0.307,0.352-0.566c0.042-0.233-0.452-0.113-0.172-0.201c0.342-0.18,0.137,0.934,0.736,0.557
			c0.039-0.434,0.494-0.547,0.233-0.023c0.172,0.209,0.26-0.098,0.431-0.052c0.104-1.009,0.028,0.472,0.526-0.067
			c-0.157,0.354-0.788-0.037-0.47,0.491c0.06,0.065-0.325,0.255-0.133,0.476c0.264,0.264,0.26-0.268,0.459-0.268
			c0.244-0.445,0.156,0.221,0.354,0.221c0.106,0.192-0.257,0.619,0.183,0.6c0.315-0.254-0.052-0.912,0.127-1.264
			c-0.045-0.025-0.104-0.09-0.194-0.045c-0.052,0.029-0.06,0.187-0.121,0.092c-0.075-0.248,0.218-0.098,0.319-0.26
			C22.244,14.762,21.951,14.973,22.035,15.148L22.035,15.148z"/>
		<path fill="#1810C1" stroke="#9900CC" stroke-miterlimit="10" d="M22.146,16.229c-0.316-0.064,0.169-0.155,0.162-0.357
			C22.547,15.955,22.205,16.139,22.146,16.229L22.146,16.229z"/>
		<path fill="#1810C1" stroke="#9900CC" stroke-miterlimit="10" d="M23.338,17.199c0.268-0.221-0.352-0.385,0.021-0.508
			C23.143,16.88,23.84,17.287,23.338,17.199L23.338,17.199z"/>
		<path fill="#1810C1" stroke="#9900CC" stroke-miterlimit="10" d="M22.434,17.03c0.188-0.205-0.199-0.41,0.162-0.521
			C22.355,16.688,22.795,17.127,22.434,17.03L22.434,17.03z"/>
		<path fill="#1810C1" stroke="#9900CC" stroke-miterlimit="10" d="M17.133,14.221c0.092-0.101,0.365-0.166,0.524-0.067
			C17.514,14.133,17.205,14.367,17.133,14.221L17.133,14.221z"/>
		<path fill="#1810C1" stroke="#9900CC" stroke-miterlimit="10" d="M22.641,22.254c-0.088,0.036-0.162-0.003-0.205-0.035
			C22.537,21.789,23.032,21.668,22.641,22.254L22.641,22.254z"/>
		<path fill="#1810C1" stroke="#9900CC" stroke-miterlimit="10" d="M22.395,22.645c-0.111-0.23-0.682-0.062-0.375-0.391
			C22.133,22.389,22.547,22.453,22.395,22.645L22.395,22.645z"/>
		<path fill="#1810C1" stroke="#9900CC" stroke-miterlimit="10" d="M13.79,18.703c-0.198,0-0.368-0.729-0.225-0.273
			c0.28,0.498,0.579-0.619,0.325,0.102C13.852,18.605,13.82,18.651,13.79,18.703L13.79,18.703z"/>
		<path fill="#1810C1" stroke="#9900CC" stroke-miterlimit="10" d="M19.24,24.208c-0.102-0.258,0.191-0.101,0.296-0.269
			C19.76,24.309,19.393,24.12,19.24,24.208L19.24,24.208z"/>
		<path fill="#1810C1" stroke="#9900CC" stroke-miterlimit="10" d="M17.732,24.219c-0.042-0.086-0.208,0.07-0.166-0.104
			c0.264,0.007,0.484-0.67,0.602-0.241C18.006,23.934,17.947,24.188,17.732,24.219L17.732,24.219z"/>
		<path fill="#1810C1" stroke="#9900CC" stroke-miterlimit="10" d="M17.198,23.82c-0.26,0.104-0.124-0.273-0.254-0.319
			C17.264,23.078,17.088,23.723,17.198,23.82L17.198,23.82z"/>
		<path fill="#1810C1" stroke="#9900CC" stroke-miterlimit="10" d="M22.068,22.057c0.029,0.074-0.026,0.088-0.072,0.116
			c0.064,0.013,0.127,0.007,0.16-0.065c-0.029,0.011-0.068,0.018-0.094,0.023C22.062,22.107,22.062,22.076,22.068,22.057
			L22.068,22.057z"/>
	</g>
	
		<linearGradient id="SVGID_2_" gradientUnits="userSpaceOnUse" x1="897.999" y1="1681.334" x2="897.999" y2="1634.668" gradientTransform="matrix(1 0 0 1 -873 -1633)">
		<stop  offset="0" style="stop-color:#000000;stop-opacity:0.35"/>
		<stop  offset="0.0975" style="stop-color:#060606;stop-opacity:0.3159"/>
		<stop  offset="0.2216" style="stop-color:#151515;stop-opacity:0.2724"/>
		<stop  offset="0.36" style="stop-color:#2F2F2F;stop-opacity:0.224"/>
		<stop  offset="0.5088" style="stop-color:#545454;stop-opacity:0.1719"/>
		<stop  offset="0.6661" style="stop-color:#838383;stop-opacity:0.1169"/>
		<stop  offset="0.8304" style="stop-color:#BCBCBC;stop-opacity:0.0594"/>
		<stop  offset="0.9977" style="stop-color:#FEFEFE;stop-opacity:8.182824e-04"/>
		<stop  offset="1" style="stop-color:#FFFFFF;stop-opacity:0"/>
	</linearGradient>
	<rect x="1.666" y="1.667" fill="url(#SVGID_2_)" width="46.667" height="46.667"/>
	
		<linearGradient id="SVGID_3_" gradientUnits="userSpaceOnUse" x1="897.999" y1="1681.334" x2="897.999" y2="1634.666" gradientTransform="matrix(1 0 0 1 -873 -1633)">
		<stop  offset="0" style="stop-color:#000000;stop-opacity:0"/>
		<stop  offset="0.3726" style="stop-color:#020202;stop-opacity:0.205"/>
		<stop  offset="0.5069" style="stop-color:#090909;stop-opacity:0.2788"/>
		<stop  offset="0.6026" style="stop-color:#141414;stop-opacity:0.3314"/>
		<stop  offset="0.68" style="stop-color:#252525;stop-opacity:0.374"/>
		<stop  offset="0.7463" style="stop-color:#3B3B3B;stop-opacity:0.4104"/>
		<stop  offset="0.805" style="stop-color:#575757;stop-opacity:0.4427"/>
		<stop  offset="0.8581" style="stop-color:#777777;stop-opacity:0.472"/>
		<stop  offset="0.9069" style="stop-color:#9D9D9D;stop-opacity:0.4988"/>
		<stop  offset="0.9523" style="stop-color:#C8C8C8;stop-opacity:0.5238"/>
		<stop  offset="0.9926" style="stop-color:#F6F6F6;stop-opacity:0.5459"/>
		<stop  offset="1" style="stop-color:#FFFFFF;stop-opacity:0.55"/>
	</linearGradient>
	<rect x="1.666" y="1.666" fill="url(#SVGID_3_)" width="46.667" height="46.668"/>
</g>
</svg>
