<?xml version="1.0" encoding="utf-8"?>
<!-- Generator: Adobe Illustrator 16.0.0, SVG Export Plug-In . SVG Version: 6.00 Build 0)  -->
<!DOCTYPE svg PUBLIC "-//W3C//DTD SVG 1.1//EN" "http://www.w3.org/Graphics/SVG/1.1/DTD/svg11.dtd">
<svg version="1.1" id="Layer_1" xmlns="http://www.w3.org/2000/svg" xmlns:xlink="http://www.w3.org/1999/xlink" x="0px" y="0px"
	 width="50px" height="50px" viewBox="0 0 50 50" enable-background="new 0 0 50 50" xml:space="preserve">
<g id="Dagger">
	<g>
		<rect x="1.667" y="1.667" fill="#0A0101" width="46.667" height="46.667"/>
		<g id="stroke_4_">
			<path fill="#660000" d="M48.333,1.667v46.667H1.666V1.667H48.333 M50,0h-1.137H3.411H0v1.136v45.453V50h3.412h45.453H50v-3.411
				V1.136V0L50,0z"/>
			
				<linearGradient id="SVGID_1_" gradientUnits="userSpaceOnUse" x1="898" y1="1683" x2="898" y2="1633" gradientTransform="matrix(1 0 0 1 -873 -1633)">
				<stop  offset="0" style="stop-color:#333333;stop-opacity:0.3"/>
				<stop  offset="0.2701" style="stop-color:#353535;stop-opacity:0.4215"/>
				<stop  offset="0.4166" style="stop-color:#3D3D3D;stop-opacity:0.4875"/>
				<stop  offset="0.5336" style="stop-color:#4B4B4B;stop-opacity:0.5401"/>
				<stop  offset="0.635" style="stop-color:#5E5E5E;stop-opacity:0.5857"/>
				<stop  offset="0.7262" style="stop-color:#787878;stop-opacity:0.6268"/>
				<stop  offset="0.8101" style="stop-color:#979797;stop-opacity:0.6646"/>
				<stop  offset="0.8885" style="stop-color:#BBBBBB;stop-opacity:0.6998"/>
				<stop  offset="0.9606" style="stop-color:#E5E5E5;stop-opacity:0.7323"/>
				<stop  offset="1" style="stop-color:#FFFFFF;stop-opacity:0.75"/>
			</linearGradient>
			<path fill="url(#SVGID_1_)" d="M48.333,1.667v46.667H1.666V1.667H48.333 M50,0h-1.137H3.411H0v1.136v45.453V50h3.412h45.453H50
				v-3.411V1.136V0L50,0z"/>
		</g>
	</g>
	<g id="Dagger_1_">
		<path fill="#990000" d="M16.811,34.168c0.024,0.006,0.026-0.039,0.018-0.066l0,0l0,0c0.001-0.033,0.01-0.075,0.023-0.106
			c0.021-0.048,0.042-0.097,0.066-0.132c0.115-0.185,0.304-0.406,0.496-0.52c0.021-0.009,0.031-0.025,0.035-0.048
			c0.001-0.021-0.004-0.039-0.018-0.056c-0.596-0.646-1.191-1.298-1.783-1.943c-0.488-0.544-0.97-1.084-1.447-1.627
			c-0.328-0.383-0.676-0.776-0.978-1.183l-0.006-0.007c-0.066-0.083-0.128-0.19-0.177-0.282c-0.05-0.087-0.092-0.176-0.127-0.277
			c-0.107-0.295-0.18-0.818,0.096-1.052c0.109-0.092,0.23-0.169,0.354-0.236c0.113-0.064,0.232-0.113,0.348-0.164
			c0.094-0.029,0.168-0.033,0.25,0.009c0.084,0.036,0.156,0.117,0.222,0.189l0.071,0.081c0.104,0.108,0.306,0.315,0.363,0.455
			c0.051,0.119,0.013,0.179-0.066,0.271c-0.051,0.063-0.09,0.113-0.123,0.19l0,0c-0.014,0.033-0.022,0.072-0.023,0.104
			c-0.002,0.036-0.008,0.07-0.004,0.11c0.005,0.219,0.109,0.434,0.246,0.608l0.006,0.013c0.118,0.146,0.238,0.298,0.356,0.439
			c0.122,0.148,0.243,0.292,0.372,0.434c0.611,0.708,1.258,1.392,1.925,2.048c0,0,0,0,0,0.003c0.193,0.173,0.39,0.324,0.614,0.449
			c0.052,0.026,0.098,0.062,0.152,0.093c0.026,0.013,0.055,0.006,0.076-0.015c4.105-3.752,8.22-7.497,12.334-11.239
			c2.16-1.97,4.319-3.932,6.494-5.899c1.56-1.408,3.121-2.823,4.693-4.228l0.008-0.006c0.258-0.218,0.52-0.45,0.777-0.676
			c0.316-0.267,0.639-0.539,0.968-0.804c0.465-0.381,0.927-0.746,1.407-1.113c0.664-0.506,1.354-1.003,2.064-1.445
			c0.518-0.322,1.146-0.691,1.73-0.858c0.05-0.016,0.098,0,0.135,0.035s0.047,0.084,0.033,0.129
			c-0.199,0.577-0.615,1.19-0.971,1.676c-0.486,0.674-1.033,1.321-1.583,1.948c-0.876,0.99-1.79,1.948-2.716,2.886l-0.039,0.051
			c-1.481,1.506-2.986,2.989-4.496,4.471c-2.088,2.062-4.182,4.105-6.286,6.151c-3.979,3.882-7.964,7.744-11.96,11.606
			c-0.022,0.011-0.023,0.044-0.014,0.073c0.023,0.05,0.051,0.104,0.076,0.159c0.121,0.224,0.265,0.433,0.427,0.637l0,0l0.005,0.013
			c0.115,0.122,0.228,0.25,0.341,0.368c0.118,0.137,0.241,0.269,0.366,0.391c0.664,0.703,1.355,1.387,2.09,2.027l0,0
			c0.037,0.034,0.072,0.058,0.107,0.086c0.038,0.02,0.079,0.05,0.117,0.071c0.177,0.093,0.393,0.152,0.587,0.088
			c0.082-0.022,0.131-0.052,0.198-0.104c0.094-0.081,0.153-0.111,0.274-0.054l0.006,0.006l0,0h0.004h0.003l0,0
			c0.131,0.062,0.316,0.265,0.42,0.372l0.078,0.08c0.064,0.06,0.146,0.143,0.186,0.226c0.031,0.084,0.027,0.161-0.01,0.248
			c-0.053,0.118-0.112,0.234-0.178,0.342c-0.08,0.119-0.158,0.239-0.26,0.338v0.006c-0.041,0.037-0.088,0.069-0.141,0.099
			c-0.061,0.021-0.115,0.043-0.178,0.053c-0.445,0.075-0.949-0.169-1.287-0.448l-0.008-0.004c-0.148-0.125-0.295-0.247-0.434-0.383
			c-0.193-0.169-0.383-0.353-0.574-0.529c-1.16-1.104-2.296-2.248-3.416-3.39c-0.023-0.023-0.057-0.031-0.09-0.006
			c0,0.003-0.014,0.01-0.014,0.01c-0.039,0.023-0.076,0.042-0.113,0.055c-0.014,0.003-0.014,0.005-0.014,0.013
			c-0.006,0.007-0.007,0.013-0.007,0.02c-0.038,0.142-0.153,0.269-0.28,0.349c-0.1,0.062-0.25,0.135-0.369,0.117
			c-0.01-0.007-0.021-0.008-0.032-0.008c-0.031-0.014-0.051-0.009-0.046,0.03l0,0l0,0l0,0l-0.001,0.011
			c0.01,0.316-0.163,0.574-0.436,0.716c-0.038,0.02-0.073,0.037-0.112,0.057c-0.026,0.004-0.061,0.01-0.089,0.021l0,0l-0.003,0.008
			l-0.003-0.001c-0.046,0.012-0.077,0.037-0.065,0.088l0,0l0,0l0,0v0.008c0.018,0.049,0.02,0.098,0.018,0.149
			c-0.012,0.144-0.091,0.271-0.186,0.363c-0.092,0.091-0.213,0.159-0.335,0.186c-0.044,0.013-0.089,0.024-0.128,0.016
			c-0.092-0.01-0.161,0.017-0.141,0.105l0,0c0.018,0.052,0.016,0.101,0.014,0.156c-0.006,0.17-0.086,0.334-0.196,0.459
			c-0.103,0.12-0.249,0.229-0.41,0.267c-0.042,0.011-0.089,0.018-0.142,0.016c-0.098-0.004-0.223,0.026-0.205,0.119
			c0.006,0.022,0.008,0.046,0.007,0.071c0.011,0.241-0.137,0.47-0.306,0.639c-0.145,0.142-0.372,0.296-0.57,0.328
			c-0.027-0.001-0.047,0.008-0.066,0.007c-0.068,0.006-0.212,0.022-0.225,0.112c0,0.006,0,0.012,0.002,0.033
			c0.004,0.007,0.006,0.019,0.006,0.032c0.027,0.196-0.092,0.394-0.219,0.534c-0.148,0.161-0.357,0.29-0.565,0.352
			c-0.047,0.018-0.093,0.028-0.138,0.04c-0.099,0.011-0.256,0.044-0.327,0.112c-0.013,0.012-0.032,0.043-0.032,0.063l0,0l0,0v0.007
			c0,0,0,0,0,0.006c0.033,0.326-0.269,0.616-0.541,0.756c-0.053,0.031-0.111,0.05-0.172,0.072c-0.053,0.021-0.108,0.035-0.161,0.04
			l0,0c-0.063,0.01-0.259,0.03-0.3,0.094c-0.014,0.018-0.014,0.044-0.022,0.066l-0.001,0.017l0,0
			c-0.084,0.311-0.342,0.569-0.629,0.695c-0.045,0.026-0.098,0.043-0.146,0.055c-0.044,0.014-0.098,0.026-0.143,0.024l0,0h-0.002
			l0,0c-0.138,0.011-0.195,0.06-0.186,0.165c0.011,0.237-0.215,0.38-0.398,0.491l-0.014,0.01c-0.12,0.081-0.314,0.212-0.361,0.358
			c0,0,0,0.008,0,0.01c0.029,0.097,0.038,0.207,0.002,0.302c-0.027,0.061-0.068,0.104-0.129,0.138
			c-0.062,0.027-0.139,0.034-0.203,0.026c-0.058-0.016-0.115-0.031-0.166-0.055c-0.022-0.021-0.053-0.012-0.072,0.01
			c-0.103,0.096-0.172,0.235-0.213,0.363c0,0.007-0.004,0.019,0,0.028c0.017,0.128,0.027,0.254,0.028,0.377
			c0.002,0.704-0.266,1.364-0.778,1.855v0.007l0,0c-0.51,0.487-1.186,0.714-1.885,0.683c-0.722-0.037-1.394-0.36-1.895-0.887H5.322
			l0,0c-0.496-0.521-0.786-1.202-0.789-1.926c0.002-0.702,0.272-1.372,0.777-1.858c0.462-0.44,1.072-0.68,1.709-0.687
			c0.124-0.002,0.247,0.003,0.367,0.02c0.111,0.011,0.221,0.027,0.33,0.061l0,0l0.021,0.008l0,0
			c0.095,0.015,0.229,0.001,0.318-0.045c0.014-0.01,0.027-0.025,0.029-0.049c0.006-0.012,0-0.024-0.006-0.045
			c-0.067-0.113-0.111-0.237-0.102-0.364c0.006-0.063,0.027-0.12,0.059-0.171c0.037-0.052,0.077-0.079,0.137-0.098
			c0.124-0.038,0.256,0.016,0.358,0.094c0.007,0.001,0.009,0.008,0.013,0.001c0.052-0.01,0.083-0.033,0.127-0.067
			c0.11-0.106,0.227-0.271,0.315-0.396l0.003-0.008l0,0l0,0l0,0c0.105-0.122,0.289-0.227,0.455-0.25l0,0h0.008l0,0
			c0.114-0.005,0.137-0.076,0.143-0.188l0,0c0.001-0.039,0.01-0.073,0.023-0.111c0.01-0.05,0.03-0.092,0.045-0.137
			c0.141-0.311,0.408-0.535,0.74-0.625h-0.002l0.032-0.006v-0.003l0.003,0.007V39.92h0.003h0.003c0.111-0.044,0.15-0.2,0.156-0.305
			v-0.011l0,0c0.002-0.06,0.021-0.114,0.045-0.168c0.022-0.063,0.053-0.109,0.084-0.16c0.156-0.242,0.481-0.511,0.78-0.5h0.008l0,0
			h0.006l0,0c0.025,0.001,0.053-0.018,0.065-0.03c0.075-0.072,0.117-0.229,0.133-0.321l0,0c0.02-0.07,0.041-0.139,0.076-0.206
			c0.027-0.063,0.068-0.12,0.109-0.183c0.16-0.203,0.539-0.522,0.818-0.474l0,0c0.003,0,0.003,0,0.003,0l0,0l0,0
			c0.003,0,0.003,0,0.003,0l0.021,0.001l0,0c0.006,0,0.017,0,0.02-0.007c0.065-0.033,0.091-0.147,0.096-0.211l0.001-0.015
			c0.008-0.058,0.019-0.106,0.041-0.154c0.021-0.061,0.049-0.108,0.083-0.166c0.214-0.3,0.593-0.501,0.951-0.553h0.014
			c0.056-0.012,0.124-0.019,0.126-0.081c0.01-0.067,0.018-0.129,0.033-0.19c0.052-0.171,0.155-0.33,0.283-0.45
			c0.135-0.118,0.3-0.204,0.483-0.198c0.045,0.002,0.091,0.018,0.132,0.024c0.01,0.008,0,0,0.01,0.008
			c0.01,0.001,0.02,0.001,0.033-0.006h0.006c0,0,0,0,0,0.008v-0.008c0.054-0.017,0.057-0.098,0.051-0.147
			c0-0.029,0.002-0.059,0.003-0.092c0.024-0.136,0.119-0.25,0.22-0.329c0.107-0.095,0.246-0.155,0.387-0.17
			c0.045-0.005,0.094-0.003,0.139,0.004l0.008,0.001c0,0,0.006,0,0.006,0.004l0,0l0,0c0.025,0.015,0.072,0.003,0.086-0.032
			c0-0.007,0.006-0.02,0.007-0.033l0,0l0,0l0,0c0.007-0.031,0.021-0.061,0.032-0.089c0.021-0.038,0.037-0.071,0.056-0.109
			c0.16-0.276,0.423-0.426,0.741-0.404h0.006C16.803,34.167,16.803,34.167,16.811,34.168L16.811,34.168L16.811,34.168z"/>
		<path fill="#990000" d="M8.996,46.877L8.996,46.877c0.489-0.464,0.743-1.101,0.746-1.758c-0.006-0.676-0.292-1.348-0.758-1.845
			v-0.006l0,0c-0.176-0.178-0.372-0.337-0.584-0.462c-0.033-0.027-0.068-0.041-0.1-0.063c-0.179-0.1-0.362-0.175-0.56-0.227
			L7.72,42.516l-0.026-0.009l0,0C7.58,42.47,7.471,42.45,7.354,42.44c-0.117-0.014-0.232-0.021-0.348-0.02
			c-0.609,0.006-1.183,0.232-1.629,0.653c-0.484,0.462-0.741,1.099-0.738,1.765c0.006,0.688,0.277,1.343,0.756,1.844l0,0v0.004
			c0.476,0.499,1.119,0.808,1.809,0.839C7.871,47.567,8.516,47.342,8.996,46.877L8.996,46.877z"/>
		<path fill="#990000" d="M20.379,34.236c-0.143-0.454-0.29-0.986-0.329-1.463c0.001-0.031-0.024-0.054-0.058-0.059
			c-0.513-0.065-1.092-0.265-1.572-0.451c-0.2-0.077-0.393-0.168-0.572-0.281c-0.229-0.131-0.436-0.287-0.635-0.46l0,0l0,0v-0.004
			c-0.673-0.659-1.321-1.352-1.938-2.058c-0.121-0.149-0.247-0.296-0.373-0.438c-0.118-0.146-0.236-0.295-0.353-0.442l-0.015-0.021
			c-0.145-0.182-0.266-0.433-0.27-0.674c0.001-0.049,0.002-0.084,0.004-0.138c0.008-0.045,0.021-0.083,0.036-0.128l0,0l0,0l0,0l0,0
			l0,0c0.036-0.089,0.077-0.153,0.144-0.227c0.042-0.047,0.076-0.079,0.043-0.145c-0.045-0.115-0.246-0.32-0.334-0.414l-0.062-0.068
			l-0.012-0.013c-0.05-0.062-0.119-0.135-0.184-0.17c-0.043-0.022-0.093-0.019-0.143,0.002c-0.119,0.042-0.229,0.098-0.338,0.157
			c-0.113,0.059-0.228,0.135-0.324,0.223c-0.232,0.201-0.15,0.669-0.062,0.921c0.033,0.082,0.069,0.175,0.115,0.254
			c0.053,0.09,0.112,0.188,0.173,0.274h0.01c0.303,0.401,0.648,0.801,0.979,1.175c0.478,0.543,0.961,1.081,1.445,1.62
			c0.907,1.001,1.811,1.998,2.734,2.979l0,0c0.329,0.34,0.66,0.678,0.992,1.013l0.004,0.004c1.16,1.181,2.337,2.365,3.536,3.505
			c0.183,0.187,0.37,0.361,0.566,0.542c0.139,0.124,0.278,0.254,0.431,0.377h0.006c0.303,0.257,0.771,0.492,1.176,0.425
			c0.059-0.014,0.106-0.029,0.152-0.054c0.039-0.011,0.075-0.036,0.103-0.066h0.003c0.096-0.096,0.171-0.208,0.243-0.322
			c0.062-0.104,0.122-0.213,0.171-0.322c0.018-0.055,0.026-0.098,0.005-0.149c-0.03-0.063-0.103-0.14-0.152-0.194l-0.083-0.074
			c-0.09-0.098-0.271-0.296-0.387-0.355l0,0l-0.01-0.001l0,0l0,0c-0.064-0.03-0.096-0.005-0.147,0.039
			c-0.074,0.058-0.138,0.095-0.232,0.128c-0.228,0.077-0.483,0.01-0.687-0.1c-0.045-0.02-0.088-0.052-0.129-0.077
			c-0.045-0.027-0.08-0.059-0.117-0.089l-0.004-0.004c-0.732-0.642-1.432-1.331-2.101-2.037c-0.122-0.126-0.241-0.264-0.366-0.392
			c-0.115-0.12-0.227-0.245-0.34-0.371l-0.01-0.013l0,0l0,0c0,0,0,0-0.004-0.003c-0.162-0.203-0.311-0.425-0.439-0.657
			C20.543,34.702,20.465,34.49,20.379,34.236z"/>
		<path fill="#990000" d="M25.637,39.707c0.066-0.103,0.119-0.218,0.163-0.321c0.022-0.054,0.03-0.096,0.005-0.153
			c-0.029-0.064-0.1-0.14-0.148-0.192l-0.083-0.079c-0.093-0.094-0.282-0.296-0.391-0.349l0,0l-0.007-0.007l0,0l0,0
			c-0.07-0.032-0.098-0.004-0.15,0.034c-0.074,0.061-0.134,0.1-0.229,0.129c-0.229,0.073-0.48,0.005-0.685-0.105
			c-0.046-0.021-0.083-0.049-0.128-0.075c-0.041-0.028-0.082-0.062-0.121-0.095l0,0c-0.729-0.646-1.438-1.341-2.109-2.052
			c-0.119-0.129-0.242-0.26-0.364-0.395c-0.115-0.121-0.229-0.249-0.34-0.37l-0.013-0.014l0,0l0,0l0,0
			c-0.164-0.209-0.312-0.435-0.44-0.659c-0.128-0.239-0.212-0.453-0.294-0.711c-0.146-0.451-0.294-0.983-0.339-1.461
			c-0.003-0.027-0.025-0.054-0.058-0.062c-0.513-0.072-1.092-0.272-1.57-0.459c-0.202-0.079-0.393-0.173-0.57-0.28
			c-0.234-0.139-0.443-0.294-0.642-0.476l0,0l0,0v-0.002c-0.671-0.663-1.323-1.35-1.944-2.065c-0.125-0.141-0.25-0.29-0.373-0.44
			c-0.115-0.147-0.238-0.288-0.359-0.443l-0.01-0.014c-0.149-0.187-0.271-0.438-0.279-0.68c-0.002-0.045,0-0.092,0.011-0.131
			c0.002-0.045,0.013-0.089,0.028-0.132l0,0l0,0l0,0l0,0l0,0c0.033-0.094,0.074-0.157,0.141-0.224
			c0.048-0.05,0.075-0.079,0.041-0.151c-0.041-0.104-0.246-0.317-0.329-0.411l-0.066-0.064l-0.019-0.021
			c-0.051-0.053-0.121-0.128-0.188-0.162c-0.023-0.008-0.034-0.014-0.055-0.015h-0.006c-0.086,0.036-0.179,0.073-0.266,0.119
			c-0.006,0.007-0.006,0.014-0.007,0.027c0.006,0.006,0.021,0.007,0.026,0.007c0.013-0.006,0.025-0.013,0.039-0.019
			c0.047-0.018,0.092-0.021,0.143,0.005c0.064,0.034,0.134,0.108,0.185,0.163l0.013,0.021l0.064,0.069
			c0.085,0.09,0.287,0.3,0.334,0.411c0.029,0.073,0.002,0.098-0.041,0.148c-0.065,0.07-0.107,0.134-0.143,0.225l0,0l0,0
			c0,0,0,0,0,0.006l0,0c-0.018,0.034-0.028,0.083-0.029,0.122c-0.008,0.046-0.01,0.092-0.008,0.138
			c0.008,0.241,0.125,0.486,0.275,0.68l0.009,0.015c0.12,0.146,0.238,0.293,0.36,0.435c0.121,0.156,0.248,0.302,0.373,0.448
			c0.619,0.708,1.272,1.401,1.943,2.059h0.008l0,0l0,0c0.197,0.175,0.408,0.338,0.634,0.477c0.183,0.111,0.374,0.203,0.574,0.278
			c0.481,0.189,1.058,0.387,1.573,0.462c0.033,0.007,0.055,0.035,0.057,0.061c0.043,0.477,0.193,1.006,0.344,1.46
			c0.086,0.258,0.161,0.473,0.289,0.712c0.129,0.231,0.278,0.446,0.447,0.66l0,0l0,0l0,0l0,0l0.006,0.013
			c0.106,0.121,0.227,0.25,0.34,0.371c0.123,0.135,0.245,0.266,0.369,0.397c0.666,0.707,1.376,1.403,2.111,2.041v0.007l0,0
			c0.041,0.033,0.08,0.062,0.121,0.092c0.038,0.026,0.084,0.046,0.125,0.079c0.201,0.111,0.453,0.172,0.684,0.104
			c0.088-0.029,0.159-0.069,0.23-0.129c0.055-0.04,0.082-0.071,0.149-0.036l0,0l0,0h0.006l0,0c0.11,0.062,0.296,0.265,0.392,0.355
			l0.078,0.084c0.055,0.051,0.127,0.123,0.157,0.192c0.021,0.05,0.017,0.096-0.005,0.144c-0.043,0.103-0.099,0.212-0.153,0.305
			c-0.007,0.006-0.007,0.019-0.001,0.025c0.013,0,0.02,0.001,0.025-0.013C25.582,39.786,25.61,39.748,25.637,39.707L25.637,39.707z"
			/>
		<path fill="#990000" d="M19.222,35.332c0.018,0.018,0.048,0.021,0.067,0.021c0.006-0.008,0.006-0.008,0.014-0.01
			c0.022-0.007,0.037-0.026,0.041-0.052c0.003-0.019-0.002-0.039-0.021-0.059c-0.268-0.272-0.541-0.55-0.808-0.823l-0.229,0.221
			C18.63,34.823,18.947,35.063,19.222,35.332L19.222,35.332z M18.189,34.719c0.353,0.189,0.676,0.433,0.966,0.722
			c0,0,0.007,0.007,0.007,0.013c-0.008,0-0.008,0.01-0.008,0.014c-0.029,0.116-0.129,0.225-0.235,0.292
			c-0.056,0.028-0.146,0.08-0.222,0.09c-0.071,0.013-0.172-0.006-0.229-0.053c-0.236-0.221-0.526-0.403-0.846-0.545L18.189,34.719
			L18.189,34.719z M17.532,35.345l-0.783,0.759c0.386,0.169,0.757,0.381,0.976,0.594c0.035,0.033,0.184-0.021,0.235-0.047
			c0.026-0.012,0.063-0.019,0.097-0.042c0.215-0.103,0.352-0.292,0.367-0.528c0.002-0.042,0.011-0.144-0.014-0.178
			C18.164,35.675,17.863,35.494,17.532,35.345L17.532,35.345z M16.644,36.188c0.351,0.156,0.84,0.397,1.048,0.663
			c0.033,0.038,0.037,0.149,0.033,0.181c-0.011,0.114-0.072,0.212-0.146,0.296c-0.075,0.067-0.174,0.131-0.277,0.152
			c-0.027,0.005-0.062,0.015-0.09,0.008c-0.068-0.007-0.134,0.001-0.19,0.031c-0.022,0.016-0.056,0.015-0.077-0.003
			c-0.299-0.248-0.659-0.451-1.051-0.606L16.644,36.188L16.644,36.188z M15.798,36.998l-0.987,0.937
			c0.488,0.146,0.942,0.348,1.188,0.588c0.019,0.03,0.052,0.039,0.077,0.022c0.074-0.05,0.172-0.061,0.256-0.05
			c0.033,0.001,0.072-0.004,0.104-0.022c0.132-0.024,0.259-0.121,0.349-0.221c0.091-0.102,0.163-0.237,0.168-0.387
			c0.002-0.039,0.004-0.081-0.008-0.112l0,0c0,0,0,0,0-0.005l0,0l0,0c0-0.013-0.009-0.033-0.009-0.046
			c-0.002-0.014-0.009-0.028-0.021-0.046C16.609,37.379,16.215,37.165,15.798,36.998L15.798,36.998z M14.713,38.035
			c0.549,0.163,1.082,0.383,1.271,0.67c0.01,0.005,0.014,0.013,0.018,0.024c-0.001,0.008-0.001,0.015-0.002,0.021v0.004
			c0.006,0.018,0.009,0.036,0.008,0.057c0.009,0.209-0.125,0.406-0.271,0.552c-0.127,0.118-0.328,0.262-0.508,0.297
			c-0.013,0.003-0.028,0.007-0.041,0.006c-0.088,0.003-0.187,0.02-0.261,0.071c-0.022,0.019-0.058,0.018-0.083-0.009
			c-0.265-0.25-0.756-0.45-1.282-0.592L14.713,38.035L14.713,38.035z M13.453,39.235l-1.054,1.005
			c0.472,0.144,0.911,0.353,1.185,0.642c0.02,0.026,0.057,0.028,0.082,0.009c0.108-0.075,0.252-0.108,0.371-0.127
			c0.039-0.012,0.078-0.02,0.113-0.032c0.189-0.059,0.377-0.177,0.51-0.32c0.109-0.108,0.216-0.274,0.193-0.432
			c-0.003-0.019-0.018-0.062-0.024-0.081C14.575,39.56,13.9,39.349,13.453,39.235L13.453,39.235z M12.295,40.335
			c0.431,0.133,0.977,0.342,1.252,0.703c0.014,0.013,0.017,0.019,0.02,0.039c0,0.006,0.002,0.006,0.002,0.006l0,0
			c0.029,0.282-0.254,0.525-0.476,0.642c-0.046,0.025-0.1,0.043-0.151,0.066c-0.047,0.011-0.094,0.022-0.139,0.03l0,0l-0.007,0.004
			c-0.085,0.011-0.212,0.031-0.296,0.067c-0.02,0.014-0.049,0.012-0.07-0.009c-0.259-0.247-0.691-0.442-1.14-0.588L12.295,40.335
			L12.295,40.335z M11.185,41.396l-0.824,0.788c0.333,0.148,0.681,0.35,0.909,0.638c0.016,0.023,0.055,0.027,0.084,0.016
			c0.061-0.043,0.145-0.052,0.213-0.063l0,0l0,0h0.004l0,0c0.039,0.002,0.078-0.01,0.115-0.021c0.045-0.008,0.088-0.029,0.128-0.048
			c0.257-0.112,0.488-0.339,0.562-0.613l0.001-0.017c0-0.006,0.006-0.006,0.006-0.014c0.006-0.022,0.002-0.041-0.018-0.062
			C12.114,41.744,11.656,41.537,11.185,41.396L11.185,41.396z M11.259,43.031c0.003,0,0.003,0.004,0.003,0.007
			c0.022,0.186-0.2,0.315-0.34,0.402l-0.014,0.013c-0.127,0.077-0.281,0.192-0.361,0.32c-0.017,0.015-0.029,0.031-0.043,0.03
			c-0.02,0.007-0.035-0.001-0.053-0.013c-0.328-0.23-0.651-0.501-0.944-0.797l0.753-0.716
			C10.689,42.459,11.078,42.702,11.259,43.031z M18.289,34.63l0.226-0.227l-0.122-0.128l0,0c-0.262-0.271-0.52-0.554-0.779-0.836
			c-0.017-0.013-0.049-0.021-0.076-0.009c-0.191,0.067-0.4,0.32-0.505,0.502c-0.02,0.032-0.038,0.067-0.056,0.105
			c-0.008,0.014-0.016,0.042-0.016,0.062c0,0.007,0,0.013-0.001,0.02c-0.001,0.033,0.024,0.06,0.061,0.064
			C17.457,34.255,17.889,34.406,18.289,34.63L18.289,34.63z M9.507,42.994c-0.312-0.312-0.585-0.653-0.811-1.014
			c-0.009-0.022-0.008-0.051,0.003-0.07c0.02-0.026,0.043-0.038,0.069-0.031c0.406,0.064,0.981,0.186,1.491,0.399L9.507,42.994
			L9.507,42.994z M10.357,42.183l0.829-0.787c-0.377-0.117-0.753-0.197-1.03-0.242c-0.13-0.021-0.26-0.036-0.39-0.047
			c-0.075-0.009-0.17-0.012-0.241-0.005l0,0l0,0v0.003c0,0,0,0-0.004-0.003c-0.021,0.002-0.041,0.008-0.07,0.007
			c-0.008,0.003,0,0-0.008,0.003c-0.133,0.016-0.273,0.104-0.369,0.206c0,0.006,0-0.008,0,0c-0.082,0.12-0.17,0.234-0.266,0.339
			c-0.013,0.019-0.021,0.047-0.014,0.068c0.01,0.025,0.029,0.04,0.052,0.041c0.464,0.073,0.942,0.194,1.379,0.363
			C10.27,42.144,10.309,42.164,10.357,42.183L10.357,42.183z M11.283,41.296c-0.393-0.123-0.801-0.218-1.104-0.27
			c-0.13-0.022-0.267-0.037-0.396-0.049c-0.006,0-0.012,0-0.025-0.001c-0.02-0.001-0.035-0.007-0.049-0.034
			C9.7,40.93,9.697,40.91,9.699,40.891c0.008-0.026,0.011-0.053,0.012-0.086l0,0c0.002-0.025,0.01-0.058,0.015-0.093
			c0.011-0.043,0.024-0.082,0.039-0.116c0.128-0.283,0.37-0.479,0.663-0.558c0.002,0-0.004,0,0.002,0c0.004,0,0.008,0,0.011-0.006
			c0.003,0,0.01,0.001,0.013,0.001c0.054,0.002,0.11,0,0.165,0.006c0.13,0.01,0.257,0.021,0.384,0.038
			c0.419,0.044,0.842,0.124,1.248,0.242l0.045,0.016L11.283,41.296L11.283,41.296z M12.401,40.236l1.044-1.009l-0.127-0.034
			c-0.576-0.141-1.174-0.232-1.76-0.292c-0.013-0.008-0.029-0.001-0.042-0.009c-0.006,0,0.007,0.001-0.006,0
			c-0.008,0-0.014,0-0.021-0.001c-0.007,0,0.007,0.001-0.007,0c-0.255,0.004-0.53,0.237-0.667,0.439
			c-0.027,0.044-0.048,0.096-0.073,0.144c-0.017,0.049-0.029,0.088-0.034,0.136c0,0.004,0,0.004,0,0.004l0,0v0.006
			c-0.006,0.064-0.021,0.141-0.047,0.207c-0.014,0.026-0.007,0.045,0.006,0.062c0.01,0.017,0.027,0.036,0.048,0.037
			c0.104,0.004,0.205,0.014,0.306,0.024C11.41,39.998,11.923,40.086,12.401,40.236L12.401,40.236z M13.561,39.136
			c-0.639-0.181-1.326-0.278-1.76-0.33c-0.025-0.001-0.038-0.015-0.051-0.033c-0.013-0.02-0.012-0.04,0-0.066
			c0.037-0.076,0.061-0.166,0.083-0.257c0,0,0,0,0.001-0.004l0,0l0,0l0,0c0.016-0.061,0.035-0.118,0.059-0.171
			c0.033-0.059,0.068-0.114,0.105-0.165c0.127-0.171,0.465-0.475,0.695-0.432h0.003l0,0c0.022,0.016,0.048,0.009,0.068,0.002
			c0.012,0.001-0.004,0,0.006,0.001c0.074-0.004,0.156,0.005,0.229,0.015c0.148,0.013,0.297,0.029,0.445,0.055
			c0.299,0.047,0.786,0.145,1.268,0.278L13.561,39.136L13.561,39.136z M14.814,37.935l0.979-0.938
			c-0.438-0.172-0.887-0.291-1.303-0.378c-0.098-0.017-0.2-0.036-0.305-0.049c-0.035-0.004-0.072-0.009-0.111-0.014
			c-0.006,0-0.016-0.001-0.025,0.003c-0.025,0.014-0.056,0.013-0.086,0.018l-0.012,0.004c-0.326,0.04-0.672,0.228-0.857,0.501
			c-0.032,0.04-0.056,0.094-0.076,0.142c-0.016,0.034-0.026,0.072-0.031,0.119v0.01v0.004c-0.009,0.042-0.01,0.084-0.025,0.132
			c-0.008,0.018-0.001,0.033,0.012,0.058c0.008,0.019,0.023,0.026,0.044,0.026c0.148,0.012,0.298,0.036,0.448,0.061
			C13.812,37.685,14.33,37.781,14.814,37.935L14.814,37.935z M15.893,36.909c-0.449-0.191-0.934-0.325-1.374-0.405
			c-0.081-0.017-0.168-0.035-0.259-0.049c-0.033-0.001-0.059-0.035-0.057-0.074c0,0,0-0.006,0.006-0.006
			c0.002-0.059,0.012-0.105,0.026-0.161c0.044-0.142,0.134-0.281,0.245-0.39c0.107-0.101,0.246-0.17,0.393-0.165
			c0.035,0.005,0.07,0.006,0.104,0.021c0.029,0.014,0.068,0.015,0.098,0.003c0.014,0.001,0.014,0.001,0.021,0.001
			c0.042,0.007,0.099,0.022,0.143,0.03c0.122,0.023,0.235,0.055,0.345,0.09c0.324,0.1,0.65,0.22,0.963,0.341l0.099,0.043
			L15.893,36.909L15.893,36.909z M16.742,36.104l0.788-0.75c-0.433-0.195-0.914-0.318-1.358-0.369
			c-0.127-0.013-0.311-0.044-0.438-0.03c-0.118,0.009-0.238,0.066-0.323,0.139c-0.078,0.059-0.156,0.153-0.173,0.258
			c-0.001,0.019-0.001,0.039-0.002,0.063c0.005,0.033,0.005,0.072-0.004,0.111c-0.008,0.032,0.017,0.064,0.053,0.076
			c0.112,0.02,0.222,0.054,0.339,0.084C15.926,35.774,16.344,35.923,16.742,36.104L16.742,36.104z M16.092,34.853
			c0,0-0.006-0.004-0.006-0.006c-0.006-0.009-0.006-0.013-0.005-0.019c0.006-0.009,0.007-0.015,0.007-0.024l0,0v-0.007l0,0
			c0-0.004,0-0.004,0-0.004c0.008-0.019,0.016-0.046,0.021-0.071c0.016-0.026,0.032-0.058,0.054-0.09
			c0.115-0.197,0.298-0.322,0.523-0.344c0.089-0.007,0.193,0.005,0.287,0.015c0.238,0.034,0.498,0.101,0.716,0.188
			c0.168,0.064,0.342,0.14,0.5,0.226l-0.566,0.532C17.141,35.032,16.595,34.896,16.092,34.853z"/>
		<path fill="#990000" d="M8.044,42.473c-0.001,0.003,0.007,0.013,0.013,0.013c0.093,0.043,0.195,0.085,0.288,0.139
			c0.038,0.017,0.069,0.037,0.108,0.065c0.227,0.129,0.426,0.292,0.607,0.482l0.004,0.003l0,0c0.316,0.331,0.551,0.73,0.679,1.169
			c0.007,0.022,0.024,0.04,0.05,0.047c0.033,0.001,0.053-0.012,0.07-0.033S9.9,44.31,9.914,44.291
			c0.014-0.014,0.02-0.026,0.015-0.052c0.001-0.017-0.005-0.036-0.024-0.037c-0.041-0.034-0.084-0.065-0.113-0.105
			c-0.095-0.087-0.002-0.17,0.087-0.081c0.075,0.075,0.171,0.143,0.261,0.192c0.053,0.022,0.106,0.043,0.16,0.058
			c0.045,0.001,0.092,0.003,0.127-0.018c0.037-0.013,0.057-0.037,0.071-0.065c0.021-0.062,0.017-0.121,0.006-0.176
			c-0.005-0.021-0.019-0.037-0.03-0.049c-0.553-0.37-1.059-0.817-1.471-1.337c-0.197-0.235-0.393-0.512-0.533-0.777
			c-0.006-0.006-0.006-0.014-0.016-0.023c-0.066-0.055-0.172-0.12-0.266-0.098c-0.027,0.019-0.051,0.031-0.07,0.061
			c-0.018,0.03-0.032,0.066-0.041,0.104c-0.013,0.185,0.165,0.423,0.297,0.544c0.094,0.089,0.012,0.184-0.083,0.096
			c-0.028-0.027-0.055-0.054-0.083-0.094c-0.019-0.021-0.057-0.021-0.088-0.004c-0.019,0.01-0.035,0.021-0.055,0.029
			C8.051,42.464,8.051,42.467,8.044,42.473z"/>
		<path fill="#990000" d="M15.738,37.009l-0.086,0.081c0.34,0.149,0.653,0.322,0.905,0.551c0.007,0.013,0.013,0.028,0.019,0.043
			c-0.001,0.007,0.006,0.025,0.006,0.039l0,0l0,0c0,0,0,0,0,0.007l0,0l0,0c0.01,0.033,0.01,0.069,0.008,0.104
			c-0.004,0.129-0.072,0.258-0.158,0.353c-0.088,0.098-0.205,0.182-0.323,0.217c-0.029,0.006-0.062,0.012-0.095,0.013
			c-0.01,0-0.023-0.003-0.037-0.001c-0.006,0-0.012,0.003-0.012,0.003c-0.001,0.008-0.001,0.014-0.001,0.02
			c0.005,0.007,0.018,0.017,0.025,0.027c0.018,0.027,0.051,0.028,0.077,0.013c0.066-0.04,0.156-0.054,0.236-0.048
			c0.033,0.001,0.064-0.001,0.099-0.01c0.124-0.028,0.245-0.115,0.322-0.214c0.085-0.097,0.154-0.225,0.159-0.354
			c0.004-0.039-0.002-0.075-0.006-0.108l-0.004-0.003l0,0l0,0l0,0l0,0c-0.002-0.014-0.001-0.033-0.004-0.046
			c0-0.013-0.012-0.026-0.019-0.043C16.547,37.379,16.15,37.17,15.738,37.009L15.738,37.009z M18.482,34.393
			c0.27,0.282,0.547,0.561,0.816,0.838c0.021,0.018,0.025,0.04,0.021,0.053c-0.003,0.02-0.017,0.038-0.037,0.047
			c-0.007,0-0.007,0.004-0.013,0.004c0,0-0.009,0.004-0.009,0.006c-0.006-0.001-0.012-0.003-0.011-0.007
			c-0.011-0.006-0.011-0.012,0.001-0.025c0,0,0-0.014,0-0.02c0.007-0.021,0.002-0.035-0.016-0.056
			c-0.266-0.259-0.531-0.529-0.795-0.799L18.482,34.393L18.482,34.393z M18.131,34.72c0.354,0.189,0.673,0.422,0.956,0.711
			c0.002,0.007,0.002,0.007,0.001,0.013c-0.002,0.007-0.002,0.007-0.002,0.015l0,0c-0.03,0.108-0.129,0.203-0.221,0.269
			c-0.048,0.035-0.141,0.083-0.209,0.095c-0.031-0.002-0.074-0.003-0.113-0.005c-0.006,0-0.006-0.006-0.006-0.014
			c-0.006-0.016,0.001-0.021,0.008-0.021c0.039-0.019,0.078-0.04,0.105-0.062c0.096-0.058,0.188-0.152,0.217-0.265
			c0.008-0.004,0.008-0.01,0.008-0.018c0.001-0.007,0.001-0.007-0.007-0.013c-0.237-0.24-0.515-0.454-0.811-0.621L18.131,34.72
			L18.131,34.72z M17.463,35.368c0.338,0.143,0.648,0.316,0.887,0.56c0.029,0.026,0.019,0.124,0.018,0.163
			c-0.021,0.22-0.146,0.394-0.344,0.496c-0.022,0.013-0.057,0.023-0.089,0.042c-0.05,0.013-0.186,0.069-0.216,0.035
			c-0.013-0.016-0.025-0.029-0.039-0.036c-0.006-0.009-0.006-0.015-0.006-0.021s0.009-0.012,0.015-0.012
			c0.013-0.01,0.026-0.015,0.046-0.023c0.189-0.105,0.322-0.272,0.34-0.491c0.002-0.039,0.012-0.131-0.018-0.157
			c-0.188-0.188-0.424-0.341-0.687-0.463L17.463,35.368L17.463,35.368z M16.575,36.208c0.321,0.132,0.846,0.371,1.056,0.651
			c0.025,0.034,0.031,0.137,0.03,0.172c-0.013,0.097-0.065,0.189-0.14,0.255c-0.066,0.07-0.16,0.121-0.252,0.147
			c-0.026,0.007-0.057,0.012-0.082,0.011c-0.055-0.008-0.123,0.003-0.174,0.027c-0.021,0.019-0.052,0.018-0.074-0.003
			c-0.006-0.006-0.02-0.02-0.031-0.027c-0.003-0.007-0.003-0.013-0.002-0.021c0-0.007,0.006-0.013,0.012-0.013
			c0.018,0.001,0.03-0.006,0.046-0.012c0.091-0.02,0.185-0.078,0.249-0.144c0.07-0.067,0.133-0.16,0.139-0.265
			c0.002-0.031-0.002-0.127-0.027-0.162c-0.172-0.21-0.524-0.413-0.824-0.541L16.575,36.208L16.575,36.208z M14.627,38.064
			c0.543,0.149,1.082,0.366,1.273,0.656c0.003,0.01,0.006,0.015,0.006,0.031c0.002,0.004,0.002,0.01,0.002,0.018c0,0,0,0,0.003,0
			c0.002,0.02,0.001,0.033,0.001,0.055c0.009,0.19-0.113,0.378-0.248,0.51c-0.122,0.121-0.311,0.251-0.479,0.284
			c-0.018,0-0.027-0.001-0.039-0.001c-0.078,0.003-0.178,0.023-0.241,0.069c-0.024,0.019-0.063,0.017-0.082-0.007
			c-0.013-0.017-0.031-0.034-0.053-0.051c-0.006,0-0.006-0.014-0.005-0.02c0-0.008,0.002-0.014,0.012-0.013
			c0.023,0.001,0.05-0.006,0.078-0.005c0.014,0.001,0.027-0.006,0.039-0.005c0.168-0.033,0.356-0.167,0.477-0.276
			c0.128-0.133,0.25-0.322,0.246-0.514c0-0.014,0-0.033-0.002-0.045c0-0.008,0-0.011,0-0.011c-0.002-0.007-0.002-0.007-0.002-0.017
			c-0.002-0.007-0.006-0.021-0.009-0.023c-0.157-0.243-0.581-0.44-1.038-0.58L14.627,38.064L14.627,38.064z M13.378,39.26
			c0.416,0.104,1.104,0.312,1.358,0.65c0.012,0.01,0.021,0.052,0.023,0.074c0.023,0.151-0.08,0.298-0.174,0.404
			c-0.133,0.132-0.307,0.247-0.486,0.303c-0.033,0.012-0.073,0.023-0.108,0.028c-0.115,0.02-0.253,0.05-0.347,0.122
			c-0.026,0.021-0.062,0.021-0.081-0.006c-0.022-0.021-0.041-0.047-0.069-0.067c-0.004,0-0.006-0.014-0.003-0.018
			c0.001-0.006,0.003-0.013,0.013-0.017c0.068-0.021,0.139-0.036,0.204-0.052c0.036-0.004,0.071-0.01,0.104-0.021
			c0.179-0.062,0.354-0.17,0.483-0.306c0.092-0.103,0.202-0.251,0.174-0.404c-0.001-0.013-0.014-0.055-0.022-0.076
			c-0.212-0.272-0.714-0.453-1.119-0.567L13.378,39.26L13.378,39.26z M12.235,40.348L12.235,40.348
			c0.426,0.132,0.973,0.339,1.251,0.693c0.012,0.008,0.019,0.02,0.018,0.034c0,0.006,0,0.006,0,0.006l0,0l0,0
			c0.029,0.27-0.242,0.506-0.458,0.612C13,41.722,12.945,41.738,12.9,41.757c-0.042,0.018-0.086,0.029-0.131,0.03l0,0h-0.007
			c-0.077,0.015-0.206,0.035-0.285,0.071c-0.023,0.013-0.049,0.005-0.067-0.016c-0.025-0.017-0.044-0.031-0.066-0.054l0.036-0.006
			l0,0l0,0l0,0c0.049-0.004,0.095-0.017,0.137-0.034c0.048-0.011,0.093-0.036,0.14-0.063c0.217-0.112,0.486-0.345,0.459-0.605l0,0
			c0-0.007,0-0.007,0-0.014c-0.006-0.012-0.006-0.025-0.018-0.033c-0.217-0.274-0.607-0.47-0.965-0.587l0.103-0.101V40.348z
			 M11.105,41.42c0.463,0.141,0.934,0.33,1.175,0.585c0.012,0.02,0.015,0.035,0.011,0.055c0,0.008,0,0.015,0,0.015l-0.002,0.021
			c-0.066,0.248-0.272,0.456-0.507,0.559c-0.036,0.019-0.079,0.029-0.119,0.047c-0.039,0.011-0.071,0.015-0.106,0.02l0,0l0,0l0,0
			l0,0c-0.07,0.003-0.145,0.013-0.202,0.054c-0.022,0.02-0.058,0.01-0.077-0.012c-0.013-0.018-0.025-0.034-0.037-0.051
			c0-0.004-0.006-0.011,0.001-0.018c0.006-0.004,0.006-0.01,0.013-0.009c0.007,0,0.022,0.001,0.037-0.006l0,0l0,0h0.012l0,0
			c0.033,0.002,0.07-0.009,0.102-0.022c0.043-0.004,0.087-0.017,0.119-0.037c0.229-0.106,0.436-0.315,0.508-0.562v-0.014l0,0
			c0-0.006,0-0.006,0-0.013l0,0c0.008-0.017,0.002-0.037-0.013-0.062c-0.205-0.21-0.569-0.377-0.956-0.501L11.105,41.42
			L11.105,41.42z M11.205,43.027c0,0.003,0,0.007,0,0.007c0.02,0.177-0.188,0.293-0.317,0.374l-0.017,0.009
			c-0.119,0.084-0.26,0.184-0.336,0.305c-0.014,0.012-0.02,0.025-0.041,0.024c-0.02,0.005-0.039-0.001-0.049-0.01
			c-0.045-0.026-0.092-0.058-0.132-0.092c-0.003-0.007-0.006-0.007-0.006-0.011c0.001-0.014,0.003-0.014,0.004-0.02
			c0.073-0.089,0.187-0.169,0.288-0.228l0.013-0.012c0.126-0.078,0.332-0.194,0.312-0.376l0,0c0,0,0,0,0.001-0.006
			c-0.154-0.264-0.448-0.479-0.792-0.636l0.061-0.058C10.619,42.465,11.014,42.7,11.205,43.027z M14.208,36.629
			c-0.013-0.001-0.02-0.001-0.024-0.001c-0.026,0.012-0.056,0.011-0.086,0.022h-0.006l-0.021,0.007
			c0.085,0.009,0.169,0.024,0.256,0.04c0.423,0.081,0.89,0.201,1.329,0.393l0.082-0.079c-0.391-0.143-0.783-0.255-1.146-0.316
			c-0.092-0.017-0.186-0.038-0.287-0.049C14.275,36.638,14.241,36.63,14.208,36.629L14.208,36.629z M10.133,42.357
			c-0.336-0.155-0.708-0.26-1.051-0.33c-0.01-0.006-0.012-0.014-0.012-0.021c0.003-0.013,0.014-0.022,0.02-0.021
			c0.337,0.061,0.734,0.158,1.104,0.312L10.133,42.357L10.133,42.357z M11.062,41.467c-0.249-0.077-0.497-0.145-0.724-0.188
			c-0.006,0-0.011-0.01-0.011-0.022c0-0.006,0.012-0.012,0.021-0.011c0.217,0.037,0.482,0.096,0.756,0.174L11.062,41.467
			L11.062,41.467z M12.134,40.446c-0.095-0.036-0.187-0.06-0.264-0.082c-0.386-0.11-0.788-0.181-1.185-0.229
			c-0.064-0.01-0.135-0.013-0.207-0.015c-0.006,0-0.014-0.007-0.014-0.014c0-0.012,0.001-0.022,0.015-0.025h0.006
			c0.008,0,0,0,0.008,0l0,0c0.001-0.002,0.007-0.005,0.007-0.005c0.006,0,0.012,0,0.012,0c0.057-0.004,0.111-0.002,0.164,0.006
			c0.123,0.004,0.239,0.018,0.37,0.029c0.396,0.05,0.81,0.125,1.189,0.24L12.134,40.446L12.134,40.446z M13.328,39.306
			c-0.102-0.026-0.198-0.051-0.283-0.073c-0.479-0.12-0.965-0.189-1.455-0.246c-0.002,0-0.01-0.007-0.01-0.013
			c0-0.007,0.001-0.017,0.005-0.021c0,0-0.004,0.004,0.002,0.004c0.004,0,0.014,0,0.017,0.001c0.017,0-0.003-0.001,0.01,0
			c0.013,0,0.026,0.001,0.039,0.005c0.557,0.059,1.121,0.144,1.664,0.279l0.062,0.016L13.328,39.306L13.328,39.306z M14.566,38.121
			c-0.483-0.153-1.007-0.25-1.304-0.293c-0.139-0.021-0.275-0.037-0.411-0.052c-0.045-0.007-0.098-0.009-0.146-0.011
			c0.039-0.008,0.082-0.014,0.114-0.008l0,0l0,0c0.03,0.008,0.05,0.008,0.072,0.002c0.01,0-0.003,0,0.01,0
			c0.062-0.001,0.14,0.005,0.212,0.015c0.141,0.011,0.279,0.028,0.418,0.05c0.256,0.041,0.676,0.124,1.1,0.241L14.566,38.121
			L14.566,38.121z M16.498,36.285c-0.081-0.042-0.158-0.069-0.227-0.096c-0.281-0.111-0.578-0.218-0.878-0.303
			c-0.079-0.026-0.161-0.048-0.243-0.071c-0.012,0-0.018-0.01-0.018-0.017c0.004-0.006,0.014-0.013,0.02-0.013
			c0.021,0.001,0.043,0.002,0.063-0.005c0.007,0,0.007,0,0.013,0c0.044,0.002,0.094,0.018,0.137,0.025
			c0.105,0.021,0.217,0.051,0.318,0.086c0.301,0.089,0.6,0.197,0.886,0.314l0.003,0.003L16.498,36.285L16.498,36.285z M17.363,35.46
			c-0.422-0.209-0.91-0.329-1.348-0.38c-0.03-0.001-0.065-0.005-0.099-0.01c-0.01-0.001-0.015-0.011-0.013-0.017
			c-0.002-0.015,0.006-0.02,0.012-0.019c0.117-0.002,0.263,0.021,0.369,0.032c0.381,0.042,0.793,0.138,1.172,0.301L17.363,35.46
			L17.363,35.46z M18.05,34.804c-0.165-0.104-0.347-0.187-0.544-0.26c-0.2-0.071-0.438-0.134-0.658-0.166
			c-0.014,0-0.02-0.009-0.014-0.015c0-0.006,0.008-0.021,0.015-0.021c0.059,0.002,0.124,0.005,0.179,0.021
			c0.229,0.026,0.475,0.098,0.682,0.173c0.143,0.057,0.281,0.114,0.419,0.19L18.05,34.804L18.05,34.804z M18.393,34.369
			L18.393,34.369l-0.843-0.895c-0.006-0.004-0.005-0.014-0.005-0.017c0-0.007,0.006-0.013,0.006-0.013
			c0.029-0.013,0.053-0.004,0.066,0.018c0.234,0.252,0.602,0.65,0.84,0.903l0,0l0.025,0.022l-0.041,0.037L18.393,34.369z"/>
		<path fill="#990000" d="M8.898,46.75v-0.009c0.451-0.427,0.693-1.014,0.686-1.63c-0.005-0.636-0.267-1.26-0.699-1.725l0,0l0,0
			c-0.163-0.168-0.344-0.315-0.545-0.437c-0.027-0.014-0.065-0.034-0.096-0.053c-0.167-0.087-0.333-0.156-0.518-0.207l-0.021-0.009
			l-0.025-0.008l0,0c-0.106-0.024-0.21-0.039-0.314-0.06c-0.059-0.005-0.109-0.01-0.168-0.012c-0.008-0.001-0.014,0.005-0.015,0.012
			c0,0.016,0.006,0.017,0.014,0.022c0.143,0.044,0.275,0.103,0.41,0.17c0.025,0.021,0.062,0.038,0.098,0.06
			c0.195,0.114,0.381,0.265,0.537,0.436l0.004,0.004l0,0c0.43,0.455,0.693,1.08,0.697,1.709c0.005,0.622-0.234,1.209-0.682,1.644
			l-0.006,0.004l0,0c-0.391,0.369-0.891,0.575-1.419,0.602c-0.01-0.001-0.012,0.006-0.013,0.017c-0.004,0.01,0.004,0.012,0.01,0.013
			c0.132,0.03,0.26,0.052,0.395,0.057c0.614,0.042,1.218-0.169,1.668-0.6H8.898z"/>
		<path fill="#990000" d="M8.316,41.79c-0.008-0.005-0.021-0.001-0.016,0.005c-0.005,0.004-0.002,0.019,0.004,0.024
			c0.023,0.012,0.041,0.024,0.054,0.038c0.008,0.008,0.014,0.008,0.013,0.021c0.145,0.259,0.34,0.527,0.521,0.754
			c0.413,0.498,0.899,0.944,1.434,1.308c0.019,0.011,0.024,0.021,0.024,0.037c0.01,0.056,0.022,0.117,0,0.166
			c-0.008,0.032-0.029,0.053-0.061,0.065c-0.008,0.007-0.01,0.01-0.008,0.02c0,0.008,0.004,0.014,0.014,0.018
			c0.031,0.004,0.07-0.001,0.103-0.017c0.03-0.011,0.05-0.03,0.062-0.069c0.023-0.048,0.012-0.11,0-0.162
			c-0.002-0.02-0.012-0.029-0.024-0.04c-0.534-0.365-1.021-0.811-1.427-1.305c-0.191-0.23-0.387-0.492-0.52-0.75
			c-0.006-0.013-0.014-0.014-0.014-0.027C8.432,41.843,8.374,41.804,8.316,41.79L8.316,41.79z M8.133,42.443
			c-0.004,0.005-0.006,0.013-0.011,0.021c0,0.004,0.004,0.007,0.006,0.01c0.02,0.019,0.038,0.035,0.051,0.059
			c0.038,0.032,0.073,0.033,0.093,0.028c0.007-0.008,0.01-0.014,0.01-0.014c0-0.006,0.001-0.014-0.005-0.014
			c-0.022-0.03-0.042-0.049-0.069-0.07C8.188,42.433,8.156,42.424,8.133,42.443L8.133,42.443z M9.804,44.131
			c-0.082-0.094-0.141-0.063-0.092-0.016l0,0c0.024,0.026,0.058,0.052,0.089,0.082c0.014,0.003,0.02,0.015,0.02,0.031
			c0.006,0.015-0.002,0.026-0.008,0.039c-0.02,0.014-0.035,0.032-0.041,0.056l0,0c0.005,0.02,0.023,0.03,0.044,0.032
			c0.019,0.003,0.035,0,0.046-0.018c0.012-0.023,0.024-0.041,0.041-0.062c0.008-0.005,0.014-0.018,0.009-0.034
			c0.001-0.014-0.007-0.03-0.019-0.037C9.86,44.186,9.832,44.158,9.804,44.131L9.804,44.131z"/>
		<path fill="#990000" d="M47.236,8.077c-0.027,0.042-0.055,0.074-0.075,0.108C47.182,8.15,47.209,8.118,47.236,8.077L47.236,8.077z
			 M47.141,8.197c-0.027,0.041-0.064,0.087-0.096,0.121C47.076,8.282,47.113,8.238,47.141,8.197L47.141,8.197z M46.854,8.535
			c-0.002-0.007-0.014-0.003-0.02-0.001L23.368,30.563c-0.004,0.006-0.01,0.006-0.017,0.02c-0.274,0.567-0.551,1.219-0.646,1.844
			c-0.001,0.025-0.009,0.062-0.009,0.088c0,0.01,0.005,0.018,0.012,0.018c0.007,0.006,0.013,0.007,0.013,0.001
			c3.298-3.183,6.588-6.38,9.866-9.574c2.1-2.047,4.2-4.098,6.288-6.151c1.508-1.485,3.013-2.964,4.489-4.475l0.064-0.061
			c0.914-0.938,1.826-1.886,2.701-2.872c0.246-0.272,0.484-0.551,0.719-0.845C46.857,8.554,46.858,8.539,46.854,8.535z"/>
		<path fill="#990000" d="M18.455,32.103c0.359-0.344,0.724-0.693,1.082-1.036c0.038-0.041,0.092-0.053,0.137-0.03
			c0.203,0.07,0.497,0.065,0.703,0.047c0.623-0.066,1.293-0.316,1.861-0.564c0.014,0,0.014-0.007,0.024-0.013L48.28,6.069
			c0.028-0.018,0.029-0.054,0.015-0.08c-0.017-0.03-0.053-0.041-0.085-0.028c-0.535,0.231-1.063,0.557-1.554,0.874
			c-0.607,0.396-1.196,0.82-1.762,1.258c-0.471,0.355-0.941,0.725-1.398,1.097c-0.32,0.27-0.648,0.538-0.965,0.808
			c-0.262,0.227-0.523,0.451-0.779,0.68l-0.006,0.003c-1.572,1.397-3.135,2.815-4.689,4.229c-2.172,1.962-4.337,3.927-6.497,5.896
			c-4.091,3.716-8.177,7.444-12.253,11.17c-0.021,0.017-0.028,0.04-0.023,0.062c0.006,0.021,0.019,0.04,0.041,0.048
			c0.022,0.014,0.043,0.021,0.062,0.027C18.412,32.125,18.438,32.112,18.455,32.103z"/>
		<path fill="#990000" d="M18.615,32.168c0.005,0.022,0.02,0.036,0.039,0.044c0.426,0.158,0.954,0.332,1.402,0.384
			c0.064,0.01,0.115,0.062,0.118,0.125c0.023,0.449,0.175,0.981,0.306,1.411c0.01,0.021,0.024,0.036,0.047,0.044
			c0.025,0.001,0.046,0,0.066-0.02l0.971-0.924c0.014-0.016,0.021-0.042,0.016-0.064c-0.169-0.657,0.248-1.743,0.512-2.32
			c0.014-0.025,0.008-0.053-0.011-0.072c-0.02-0.027-0.048-0.035-0.075-0.017c-0.584,0.231-1.691,0.6-2.336,0.407
			c-0.025-0.013-0.045-0.009-0.062,0.012c-0.327,0.313-0.652,0.622-0.977,0.929C18.617,32.125,18.61,32.145,18.615,32.168z"/>
		<path fill="#990000" d="M19.549,31.291c-0.001,0.008,0.005,0.018,0.013,0.018c0.622,0.169,1.63-0.158,2.165-0.364
			c0.025-0.006,0.047,0.002,0.067,0.017c0.019,0.019,0.026,0.045,0.017,0.074c-0.243,0.543-0.621,1.571-0.444,2.203
			c0.005,0.026-0.001,0.045-0.016,0.065l-0.765,0.721c-0.074,0.075-0.031,0.107,0.023,0.054l0.91-0.863
			c0.021-0.026,0.029-0.042,0.02-0.068c-0.177-0.629,0.197-1.661,0.441-2.207c0.01-0.018,0.006-0.045-0.014-0.067
			c-0.019-0.021-0.045-0.028-0.071-0.02c-0.548,0.216-1.595,0.548-2.214,0.35c-0.026-0.005-0.046-0.001-0.059,0.011l-0.068,0.066
			C19.547,31.286,19.547,31.286,19.549,31.291z"/>
	</g>
	
		<linearGradient id="SVGID_2_" gradientUnits="userSpaceOnUse" x1="899.666" y1="1683" x2="899.666" y2="1636.334" gradientTransform="matrix(1 0 0 1 -873 -1633)">
		<stop  offset="0" style="stop-color:#000000;stop-opacity:0.35"/>
		<stop  offset="0.0975" style="stop-color:#060606;stop-opacity:0.3159"/>
		<stop  offset="0.2216" style="stop-color:#151515;stop-opacity:0.2724"/>
		<stop  offset="0.36" style="stop-color:#2F2F2F;stop-opacity:0.224"/>
		<stop  offset="0.5088" style="stop-color:#545454;stop-opacity:0.1719"/>
		<stop  offset="0.6661" style="stop-color:#838383;stop-opacity:0.1169"/>
		<stop  offset="0.8304" style="stop-color:#BCBCBC;stop-opacity:0.0594"/>
		<stop  offset="0.9977" style="stop-color:#FEFEFE;stop-opacity:8.182824e-04"/>
		<stop  offset="1" style="stop-color:#FFFFFF;stop-opacity:0"/>
	</linearGradient>
	<rect x="3.333" y="3.333" fill="url(#SVGID_2_)" width="46.667" height="46.667"/>
	
		<linearGradient id="SVGID_3_" gradientUnits="userSpaceOnUse" x1="898" y1="1681.334" x2="898" y2="1634.668" gradientTransform="matrix(1 0 0 1 -873 -1633)">
		<stop  offset="0" style="stop-color:#000000;stop-opacity:0"/>
		<stop  offset="0.3726" style="stop-color:#020202;stop-opacity:0.205"/>
		<stop  offset="0.5069" style="stop-color:#090909;stop-opacity:0.2788"/>
		<stop  offset="0.6026" style="stop-color:#141414;stop-opacity:0.3314"/>
		<stop  offset="0.68" style="stop-color:#252525;stop-opacity:0.374"/>
		<stop  offset="0.7463" style="stop-color:#3B3B3B;stop-opacity:0.4104"/>
		<stop  offset="0.805" style="stop-color:#575757;stop-opacity:0.4427"/>
		<stop  offset="0.8581" style="stop-color:#777777;stop-opacity:0.472"/>
		<stop  offset="0.9069" style="stop-color:#9D9D9D;stop-opacity:0.4988"/>
		<stop  offset="0.9523" style="stop-color:#C8C8C8;stop-opacity:0.5238"/>
		<stop  offset="0.9926" style="stop-color:#F6F6F6;stop-opacity:0.5459"/>
		<stop  offset="1" style="stop-color:#FFFFFF;stop-opacity:0.55"/>
	</linearGradient>
	<rect x="1.667" y="1.667" fill="url(#SVGID_3_)" width="46.667" height="46.667"/>
</g>
</svg>
