<?xml version="1.0" encoding="utf-8"?>
<!-- Generator: Adobe Illustrator 16.0.0, SVG Export Plug-In . SVG Version: 6.00 Build 0)  -->
<!DOCTYPE svg PUBLIC "-//W3C//DTD SVG 1.1//EN" "http://www.w3.org/Graphics/SVG/1.1/DTD/svg11.dtd">
<svg version="1.1" id="Layer_1" xmlns="http://www.w3.org/2000/svg" xmlns:xlink="http://www.w3.org/1999/xlink" x="0px" y="0px"
	 width="50px" height="50px" viewBox="0 0 50 50" enable-background="new 0 0 50 50" xml:space="preserve">
<g id="Rifle">
	<g>
		<rect x="3.376" y="1.667" fill="#660000" width="46.667" height="46.667"/>
		<g id="stroke_3_">
			<path fill="#660000" d="M50.043,1.667v46.667H3.376V1.667H50.043 M51.71,0h-1.137H5.121H1.71v1.136v45.459V50h3.412h45.453h1.135
				v-3.405V1.136V0L51.71,0z"/>
			
				<linearGradient id="SVGID_1_" gradientUnits="userSpaceOnUse" x1="899.7109" y1="-1631.9995" x2="899.7109" y2="-1582" gradientTransform="matrix(1 0 0 -1 -873 -1582)">
				<stop  offset="0" style="stop-color:#333333;stop-opacity:0.3"/>
				<stop  offset="0.2701" style="stop-color:#353535;stop-opacity:0.4215"/>
				<stop  offset="0.4166" style="stop-color:#3D3D3D;stop-opacity:0.4875"/>
				<stop  offset="0.5336" style="stop-color:#4B4B4B;stop-opacity:0.5401"/>
				<stop  offset="0.635" style="stop-color:#5E5E5E;stop-opacity:0.5857"/>
				<stop  offset="0.7262" style="stop-color:#787878;stop-opacity:0.6268"/>
				<stop  offset="0.8101" style="stop-color:#979797;stop-opacity:0.6646"/>
				<stop  offset="0.8885" style="stop-color:#BBBBBB;stop-opacity:0.6998"/>
				<stop  offset="0.9606" style="stop-color:#E5E5E5;stop-opacity:0.7323"/>
				<stop  offset="1" style="stop-color:#FFFFFF;stop-opacity:0.75"/>
			</linearGradient>
			<path fill="url(#SVGID_1_)" d="M50.043,1.667v46.667H3.376V1.667H50.043 M51.71,0h-1.137H5.121H1.71v1.136v45.459V50h3.412
				h45.453h1.135v-3.405V1.136V0L51.71,0z"/>
		</g>
	</g>
	
		<linearGradient id="SVGID_2_" gradientUnits="userSpaceOnUse" x1="899.7109" y1="-1630.3325" x2="899.7109" y2="-1583.667" gradientTransform="matrix(1 0 0 -1 -873 -1582)">
		<stop  offset="0" style="stop-color:#000000;stop-opacity:0.35"/>
		<stop  offset="0.0975" style="stop-color:#060606;stop-opacity:0.3159"/>
		<stop  offset="0.2216" style="stop-color:#151515;stop-opacity:0.2724"/>
		<stop  offset="0.36" style="stop-color:#2F2F2F;stop-opacity:0.224"/>
		<stop  offset="0.5088" style="stop-color:#545454;stop-opacity:0.1719"/>
		<stop  offset="0.6661" style="stop-color:#838383;stop-opacity:0.1169"/>
		<stop  offset="0.8304" style="stop-color:#BCBCBC;stop-opacity:0.0594"/>
		<stop  offset="0.9977" style="stop-color:#FEFEFE;stop-opacity:8.182824e-04"/>
		<stop  offset="1" style="stop-color:#FFFFFF;stop-opacity:0"/>
	</linearGradient>
	<rect x="3.377" y="1.667" fill="url(#SVGID_2_)" width="46.666" height="46.666"/>
	
		<linearGradient id="SVGID_3_" gradientUnits="userSpaceOnUse" x1="899.7109" y1="-1630.3335" x2="899.7109" y2="-1583.667" gradientTransform="matrix(1 0 0 -1 -873 -1582)">
		<stop  offset="0" style="stop-color:#000000;stop-opacity:0"/>
		<stop  offset="0.3726" style="stop-color:#020202;stop-opacity:0.205"/>
		<stop  offset="0.5069" style="stop-color:#090909;stop-opacity:0.2788"/>
		<stop  offset="0.6026" style="stop-color:#141414;stop-opacity:0.3314"/>
		<stop  offset="0.68" style="stop-color:#252525;stop-opacity:0.374"/>
		<stop  offset="0.7463" style="stop-color:#3B3B3B;stop-opacity:0.4104"/>
		<stop  offset="0.805" style="stop-color:#575757;stop-opacity:0.4427"/>
		<stop  offset="0.8581" style="stop-color:#777777;stop-opacity:0.472"/>
		<stop  offset="0.9069" style="stop-color:#9D9D9D;stop-opacity:0.4988"/>
		<stop  offset="0.9523" style="stop-color:#C8C8C8;stop-opacity:0.5238"/>
		<stop  offset="0.9926" style="stop-color:#F6F6F6;stop-opacity:0.5459"/>
		<stop  offset="1" style="stop-color:#FFFFFF;stop-opacity:0.55"/>
	</linearGradient>
	<rect x="3.376" y="1.667" fill="url(#SVGID_3_)" width="46.667" height="46.667"/>
</g>
<path fill="#0C0808" d="M3.208,36.619c0.33,0.801,0.565,2.334,0.565,2.334l0.488,1.643l0.508,0.947l1.118,0.084l1.14-0.609
	l1.215-0.65l0.986-0.529l0.457-0.242l0.252-0.623l-0.285-0.531l0.305-0.893l-0.225-0.418l0.663-1.135l0.606-0.326l0.324-0.857
	l0.439-0.818l0.607-0.324l0.486-0.555l0.754-0.6l0.324,0.607l0.406,0.758l-0.242,1.008l-0.121,0.506l0.164,1.035l0.703,0.402
	l0.836-0.447l0.911-0.486l-0.203-0.379l-0.284-0.531l0.076-0.773l0.197-0.543l-0.062-0.848l0.607-0.324l0.455-0.244l0.455-0.244
	l0.457-0.242l0.455-0.246l-0.446-0.832l0.293-0.549l0.38-0.203l-0.203-0.379l0.531-0.283l2.811-1.504l-0.582,1.287l0.178,0.881
	l-0.322,0.855l0.035,0.615l0.432,0.988l0.209,0.572l0.203,0.379l0.283,0.531l0.427,0.797l0.187,0.348l0.868,0.893l0.567,0.33
	l0.766,0.518l0.735,0.096l2.443-0.729l0.584-1.281l0.021-0.873l-0.033-0.975l-0.182-1.068l-0.186-0.348l-0.426-0.795l-0.283-0.531
	l-0.166-0.307l-0.525-0.984l-0.609-0.406l-0.77-0.709l-0.506-0.215l-0.727-1.176l0.907-0.68l0.609,1.139l0.758-0.406l0.26-0.43
	l0.904-0.681l2.051-1.098l1.08,0.009l0.541,0.099l1.195,0.776l-0.051-1.191l16.801-9.676l-1.096-2.048l1.52-0.813l-0.447-0.832
	l-0.455,0.242l-1.34-2.503l-0.836,0.447l0.787,2.018l-1.027,0.453l-0.951,0.412l-0.83,0.639l-1.064,0.567l-0.836,0.448l-0.91,0.488
	l-6.748,4.001l-3.867,2.264l-0.814-0.244l-0.381,0.202l-1.164-0.353l-0.922,1.564l-0.684,0.366l-1.711,0.819l-0.856-0.322
	l-0.476,0.937l-0.431-0.258l-1.301,0.307l-0.846,0.062l-0.842,0.254l-0.835,0.448l-1.388-0.038l0.138,0.804l-0.374,0.395
	l-0.096,0.735l-1.25,0.768l-0.987,0.529l-2.097,0.828l-2.202,1.178l-0.54,1.363l-0.521,0.67l-1.285,0.883L8.38,32.779l-1.401,0.848
	l-1.403,0.848l-1.139,0.609l-1.062,0.57L3.208,36.619z"/>
</svg>
