<?xml version="1.0" encoding="utf-8"?>
<!-- Generator: Adobe Illustrator 16.0.0, SVG Export Plug-In . SVG Version: 6.00 Build 0)  -->
<!DOCTYPE svg PUBLIC "-//W3C//DTD SVG 1.1//EN" "http://www.w3.org/Graphics/SVG/1.1/DTD/svg11.dtd">
<svg version="1.1" id="Layer_1" xmlns="http://www.w3.org/2000/svg" xmlns:xlink="http://www.w3.org/1999/xlink" x="0px" y="0px"
	 width="50px" height="50px" viewBox="0 0 50 50" enable-background="new 0 0 50 50" xml:space="preserve">
<g id="handgun">
	<g>
		<g id="stroke">
			<path fill="#660000" d="M48.406,1.668v46.666H1.739V1.668H48.406 M50.072,0h-1.137H3.48H0.072v1.137v45.455V50H3.48h45.457h1.135
				v-3.408V1.137V0L50.072,0z"/>
			
				<linearGradient id="SVGID_1_" gradientUnits="userSpaceOnUse" x1="607.0723" y1="-759.9995" x2="607.0723" y2="-710" gradientTransform="matrix(1 0 0 -1 -582 -710)">
				<stop  offset="0" style="stop-color:#333333;stop-opacity:0.3"/>
				<stop  offset="0.2701" style="stop-color:#353535;stop-opacity:0.4215"/>
				<stop  offset="0.4166" style="stop-color:#3D3D3D;stop-opacity:0.4875"/>
				<stop  offset="0.5336" style="stop-color:#4B4B4B;stop-opacity:0.5401"/>
				<stop  offset="0.635" style="stop-color:#5E5E5E;stop-opacity:0.5857"/>
				<stop  offset="0.7262" style="stop-color:#787878;stop-opacity:0.6268"/>
				<stop  offset="0.8101" style="stop-color:#979797;stop-opacity:0.6646"/>
				<stop  offset="0.8885" style="stop-color:#BBBBBB;stop-opacity:0.6998"/>
				<stop  offset="0.9606" style="stop-color:#E5E5E5;stop-opacity:0.7323"/>
				<stop  offset="1" style="stop-color:#FFFFFF;stop-opacity:0.75"/>
			</linearGradient>
			<path fill="url(#SVGID_1_)" d="M48.406,1.668v46.666H1.739V1.668H48.406 M50.072,0h-1.137H3.48H0.072v1.137v45.455V50H3.48
				h45.457h1.135v-3.408V1.137V0L50.072,0z"/>
		</g>
	</g>
	<path id="gun" fill="#F20F30" d="M29.538,12.843c0.084-0.051,0.094-0.075,0.023-0.068c-0.066,0.008-0.131,0.042-0.139,0.081
		C29.411,12.892,29.462,12.889,29.538,12.843z M29.8,18.38c0.018-0.008,0.037-0.062,0.039-0.112c0.008-0.056-0.029-0.08-0.07-0.06
		c-0.041,0.024-0.062,0.074-0.039,0.117C29.749,18.366,29.782,18.391,29.8,18.38z M25.98,21.247c0.041-0.019,0.059-0.07,0.035-0.112
		c-0.021-0.039-0.072-0.056-0.113-0.034c-0.039,0.021-0.055,0.072-0.033,0.111C25.889,21.255,25.938,21.27,25.98,21.247z
		 M25.123,22.917c0.058-0.23,0.058-0.23-0.056-0.043c-0.062,0.104-0.101,0.215-0.083,0.246
		C25.03,23.206,25.061,23.165,25.123,22.917z M17.705,27.312c0.018-0.006,0.018-0.047-0.006-0.09
		c-0.021-0.035-0.072-0.053-0.117-0.031c-0.041,0.023-0.039,0.062,0.008,0.089C17.632,27.308,17.689,27.325,17.705,27.312z
		 M28.458,24.077c0.191,0.056,0.191,0.051,0.018-0.053c-0.104-0.062-0.191-0.088-0.203-0.058
		C28.267,23.995,28.345,24.044,28.458,24.077z M28.909,23.849l0.299,0.088l-0.311-0.174c-0.172-0.1-0.309-0.139-0.301-0.09
		C28.603,23.719,28.739,23.796,28.909,23.849z M29.399,24.021c0.125-0.014,0.133-0.03,0.023-0.062
		c-0.082-0.025-0.152-0.017-0.162,0.018S29.313,24.034,29.399,24.021z M23.353,27.911c0.104-0.056,0.133-0.095,0.07-0.088
		c-0.062,0.008-0.143,0.049-0.184,0.098C23.203,27.97,23.25,27.964,23.353,27.911z M33.028,23.764
		c0.377-0.371,0.42-0.832,0.176-1.886c-0.125-0.533-0.246-1.09-0.27-1.236c-0.062-0.391-0.174-0.557-0.494-0.755
		c-0.543-0.335-0.758-0.273-2.715,0.755l-1.738,0.918l0.105,0.318c0.062,0.177,0.145,0.475,0.188,0.658
		c0.094,0.393,0.449,0.856,0.846,1.088c0.139,0.088,0.514,0.195,0.826,0.244c0.555,0.086,0.711,0.211,0.521,0.428
		c-0.223,0.252-1.295,0.345-1.826,0.16c-0.396-0.14-1.004-0.59-1.139-0.842c-0.19-0.361-0.296-0.373-0.845-0.113
		c-0.428,0.199-0.572,0.228-0.953,0.177l-0.452-0.064l-0.076,0.347c-0.127,0.58-0.059,1.031,0.24,1.599
		c0.399,0.764,0.926,1.035,1.913,0.992c0.688-0.031,0.931-0.138,1.626-0.724c1.414-1.187,2.193-1.772,2.328-1.757
		c0.078,0.013,0.297,0.052,0.49,0.086C32.177,24.23,32.735,24.057,33.028,23.764z M23.604,30.814
		c0.019-0.007,0.036-0.06,0.039-0.112c0.003-0.055-0.026-0.082-0.067-0.057c-0.045,0.021-0.065,0.075-0.043,0.114
		C23.555,30.802,23.589,30.829,23.604,30.814z M22.173,34.812l0.257,0.072l-0.243-0.119c-0.133-0.066-0.25-0.102-0.26-0.076
		C21.917,34.718,22.028,34.772,22.173,34.812z M23.875,34.454c0.041-0.021,0.058-0.076,0.035-0.117
		c-0.024-0.039-0.065-0.039-0.094,0.007c-0.027,0.051-0.041,0.098-0.033,0.116C23.792,34.476,23.833,34.474,23.875,34.454z
		 M19.541,38.772c0.056,0.004,0.078-0.027,0.06-0.066c-0.021-0.039-0.084-0.073-0.138-0.082c-0.055-0.004-0.08,0.029-0.059,0.068
		C19.423,38.731,19.486,38.771,19.541,38.772z M25.298,40.038c-0.238,0.073-0.85,0.285-1.35,0.465
		c-1.707,0.617-1.837,0.656-2.225,0.673c-0.213,0.011-0.604,0.086-0.869,0.171c-0.264,0.081-0.491,0.148-0.508,0.142
		c-0.014-0.002-0.258-0.206-0.537-0.448c-0.885-0.758-1.758-2.033-2.163-3.164c-0.312-0.867-0.417-1.553-0.479-3.23
		c-0.027-0.717-0.062-1.445-0.072-1.622c-0.012-0.176-0.038-0.628-0.059-1.009c-0.023-0.378-0.043-0.729-0.048-0.779
		c-0.005-0.048-0.005-0.422,0.007-0.822c0.043-1.818-0.343-2.584-1.479-2.938c-0.735-0.231-1.144-0.149-2.021,0.394l-0.641,0.397
		l-0.193-0.156c-0.137-0.11-0.488-0.71-1.146-1.971c-0.902-1.718-0.957-1.838-1.012-2.343c-0.104-0.896-0.041-1.334,0.231-1.668
		c0.138-0.161,0.228-0.332,0.199-0.385c-0.026-0.052-0.056-0.279-0.065-0.51c-0.016-0.355,0.01-0.43,0.205-0.531
		c0.342-0.179,0.869-0.26,0.977-0.146c0.053,0.055,0.17,0.192,0.265,0.31l0.168,0.207l3.22-1.634
		c1.772-0.897,6.771-3.521,11.11-5.829l7.891-4.193l0.006-0.287c0.01-0.271,0.033-0.297,0.416-0.469
		c0.559-0.248,1.568-0.176,1.822,0.131c0.094,0.111,0.223,0.226,0.283,0.252c0.174,0.07,0.635,0.944,1.389,2.608
		c0.838,1.843,1.117,2.907,0.93,3.517c-0.082,0.259-1.791,1.168-1.879,1c-0.082-0.154-0.59,0.113-0.566,0.299
		c0.018,0.109-0.201,0.246-1.322,0.84l-1.344,0.707l-0.256,0.408c-0.464,0.73-0.608,1.617-0.397,2.394
		c0.043,0.16,0.109,0.443,0.152,0.629c0.202,0.96,0.405,1.33,0.853,1.538c0.244,0.116,0.416,0.438,0.346,0.66
		c-0.051,0.156-0.453,0.384-3.337,1.907c-3.395,1.791-3.623,1.889-4.497,1.963c-0.176,0.016-0.502,0.09-0.721,0.172
		c-0.334,0.121-0.439,0.206-0.676,0.541c-0.152,0.215-0.322,0.407-0.379,0.423c-0.052,0.018-0.075,0.104-0.052,0.192
		c0.024,0.09,0.029,0.282,0.01,0.426c-0.021,0.183,0.052,0.456,0.228,0.847c0.283,0.635,0.311,0.838,0.16,1.18
		c-0.211,0.479-0.088,1.521,0.297,2.559c0.066,0.17,0.088,0.412,0.051,0.547c-0.039,0.13-0.047,0.279-0.02,0.329
		c0.025,0.048,0.049,0.254,0.053,0.452c0.01,0.689,0.73,1.814,1.384,2.158c0.098,0.049,0.199,0.137,0.229,0.19
		s0.129,0.124,0.223,0.15c0.205,0.063,0.416,0.437,0.332,0.586c-0.033,0.062-0.436,0.329-0.889,0.599
		C26.131,39.695,25.756,39.891,25.298,40.038z"/>
	
		<linearGradient id="SVGID_2_" gradientUnits="userSpaceOnUse" x1="605.2598" y1="-759.0366" x2="605.2598" y2="-712.3711" gradientTransform="matrix(1 0 0 -1 -582 -710)">
		<stop  offset="0" style="stop-color:#000000;stop-opacity:0.35"/>
		<stop  offset="0.0975" style="stop-color:#060606;stop-opacity:0.3159"/>
		<stop  offset="0.2216" style="stop-color:#151515;stop-opacity:0.2724"/>
		<stop  offset="0.36" style="stop-color:#2F2F2F;stop-opacity:0.224"/>
		<stop  offset="0.5088" style="stop-color:#545454;stop-opacity:0.1719"/>
		<stop  offset="0.6661" style="stop-color:#838383;stop-opacity:0.1169"/>
		<stop  offset="0.8304" style="stop-color:#BCBCBC;stop-opacity:0.0594"/>
		<stop  offset="0.9977" style="stop-color:#FEFEFE;stop-opacity:8.182824e-04"/>
		<stop  offset="1" style="stop-color:#FFFFFF;stop-opacity:0"/>
	</linearGradient>
	<rect x="-0.073" y="2.371" fill="url(#SVGID_2_)" width="46.666" height="46.666"/>
	
		<linearGradient id="SVGID_3_" gradientUnits="userSpaceOnUse" x1="607.0723" y1="-758.936" x2="607.0723" y2="-711.0625" gradientTransform="matrix(1 0 0 -1 -582 -710)">
		<stop  offset="0" style="stop-color:#000000;stop-opacity:0"/>
		<stop  offset="0.3726" style="stop-color:#020202;stop-opacity:0.205"/>
		<stop  offset="0.5069" style="stop-color:#090909;stop-opacity:0.2788"/>
		<stop  offset="0.6026" style="stop-color:#141414;stop-opacity:0.3314"/>
		<stop  offset="0.68" style="stop-color:#252525;stop-opacity:0.374"/>
		<stop  offset="0.7463" style="stop-color:#3B3B3B;stop-opacity:0.4104"/>
		<stop  offset="0.805" style="stop-color:#575757;stop-opacity:0.4427"/>
		<stop  offset="0.8581" style="stop-color:#777777;stop-opacity:0.472"/>
		<stop  offset="0.9069" style="stop-color:#9D9D9D;stop-opacity:0.4988"/>
		<stop  offset="0.9523" style="stop-color:#C8C8C8;stop-opacity:0.5238"/>
		<stop  offset="0.9926" style="stop-color:#F6F6F6;stop-opacity:0.5459"/>
		<stop  offset="1" style="stop-color:#FFFFFF;stop-opacity:0.55"/>
	</linearGradient>
	<rect x="1.781" y="1.062" fill="url(#SVGID_3_)" width="46.582" height="47.874"/>
</g>
</svg>
