<?xml version="1.0" encoding="utf-8"?>
<!-- Generator: Adobe Illustrator 16.0.0, SVG Export Plug-In . SVG Version: 6.00 Build 0)  -->
<!DOCTYPE svg PUBLIC "-//W3C//DTD SVG 1.1//EN" "http://www.w3.org/Graphics/SVG/1.1/DTD/svg11.dtd">
<svg version="1.1" id="Layer_1" xmlns="http://www.w3.org/2000/svg" xmlns:xlink="http://www.w3.org/1999/xlink" x="0px" y="0px"
	 width="612px" height="792px" viewBox="0 0 612 792" enable-background="new 0 0 612 792" xml:space="preserve">
<path id="gun_3_" fill="#111111" d="M433.109,188.09c0.055-0.1,0.192-0.175,0.305-0.175c0.057,0,0.02,0.082-0.205,0.196
	C433.043,188.265,432.969,188.265,433.109,188.09z M430.629,189.68c-0.147-0.078-0.074-0.175,0.103-0.275
	c0.11-0.044,0.27-0.101,0.27-0.101c0.057,0.049,0,0.156-0.131,0.297C430.787,189.702,430.646,189.746,430.629,189.68z
	 M428.781,190.92c-0.104-0.055-0.104-0.167,0-0.229c0.11-0.044,0.231-0.044,0.287,0c0.084,0.107,0.084,0.196-0.056,0.252
	C428.957,190.98,428.818,190.98,428.781,190.92z M200.061,343.213c-0.154-0.148-0.154-0.215,0.027-0.148
	c0.125,0.045,0.251,0.156,0.251,0.238C200.288,343.392,200.158,343.339,200.061,343.213z M205.433,340.517
	c-0.502,0.111-0.59,0.111-0.283-0.097c0.343-0.297,0.96-0.461,1.082-0.297C206.384,340.256,206.194,340.36,205.433,340.517z
	 M226.009,327.195c-0.464,0.164-0.464,0.156,0.162-0.297c0.497-0.349,0.743-0.468,0.743-0.349
	C226.96,326.802,226.843,326.898,226.009,327.195z M211.765,338.71c-0.292,0.03-0.292,0-0.055-0.163
	c0.134-0.104,0.315-0.104,0.371-0.059C212.243,338.666,212.243,338.666,211.765,338.71z M206.783,341.891
	c-0.153-0.178-0.153-0.178,0.028-0.141c0.162,0.052,0.209,0.156,0.209,0.237C207.029,342.076,206.918,342.032,206.783,341.891z
	 M217.559,335.123c-0.399,0.052-0.372,0.052,0-0.215c0.246-0.171,0.427-0.216,0.427-0.134c0.055,0.134,0.055,0.193,0,0.193
	C217.986,335.011,217.749,335.07,217.559,335.123z M211.245,340.093c-0.06-0.134,0-0.215,0-0.215c0.056-0.053,0.13,0,0.218,0.052
	c0.056,0.074,0.028,0.164-0.028,0.245C211.375,340.227,211.301,340.197,211.245,340.093z M281.015,262.266
	c-0.372-0.297-0.135,0,0.464,0.545c0.608,0.595,0.834,0.792,0.608,0.487C281.775,262.957,281.307,262.515,281.015,262.266z
	 M214.123,326.646c-0.464-0.454,0.061-0.832,8.083-6.144c4.337-2.898,7.92-5.35,7.92-5.453c0-0.223-2.293-2.396-2.54-2.396
	c-0.092,0-0.969,0.471-1.852,1.066c-1.551,0.996-1.769,1.107-2.322,2.058l-0.645,1.021l-4.555,3.012l-4.554,3.036l-1.245,0.197
	c-1.058,0.193-1.369,0.319-2.729,1.188c-2.103,1.449-2.103,1.449-0.706,2.742c0.706,0.683,1.226,1.114,1.407,1.114
	c0.218,0.03,0.78-0.275,1.342-0.564c0.989-0.646,1.225-0.75,1.787-0.55C213.896,327.172,214.402,326.898,214.123,326.646z
	 M381.666,220.909c0.057-0.06,10.039-6.765,22.23-14.889c12.182-8.15,26.62-17.756,31.995-21.393
	c5.396-3.645,12.472-8.37,15.646-10.52c3.213-2.125,5.256-3.57,4.568-3.173c-0.742,0.394-26.187,17.244-56.492,37.344
	c-52.164,34.547-74.578,49.451-75.619,50.438l-0.465,0.427l0.559-0.189c0.371-0.108,2.853-1.698,5.635-3.567
	c2.787-1.857,5.146-3.373,5.273-3.373C335.178,252.061,381.611,221.099,381.666,220.909z M448.576,177.659
	c-0.119,0-0.232,0.1-0.332,0.197c-0.058,0.1,0,0.1,0.156,0C448.633,177.759,448.633,177.71,448.576,177.659z M444.854,180.092
	c-0.186,0.1-0.481,0.275-0.604,0.427c-0.195,0.167-0.057,0.13,0.307-0.1C444.854,180.17,444.994,180.047,444.854,180.092z
	 M446.84,178.851c0.67-0.545,0.67-0.545-0.231,0.049c-0.816,0.516-0.992,0.639-0.816,0.792c0.195,0.152,0.25,0.152,0.307-0.045
	C446.098,179.546,446.506,179.148,446.84,178.851z M457.928,172.365c0.121-0.404,0.224-0.471,0.566-0.404
	c0.527,0.078,0.854-0.249,0.584-0.546c-0.193-0.152-0.156-0.215,0.094-0.215c0.502,0,2.32-1.018,2.859-1.512l0.408-0.397
	l-0.648,0.045c-0.521,0.048-0.93,0.274-1.617,0.717c-0.481,0.371-1.338,0.813-1.764,1.029c-0.596,0.293-0.908,0.486-0.965,0.668
	c-0.049,0.16-0.104,0.19-0.242,0.152c-0.131-0.078-0.447,0.074-0.779,0.416c-0.363,0.405-0.502,0.549-0.26,0.52
	c0.223,0,0.297,0.023,0.223,0.234c-0.158,0.327,0,0.283,0.816-0.044c0.193-0.079,0.391-0.13,0.391-0.13
	S457.715,172.614,457.928,172.365z M440.898,183.836c-0.132-0.029-0.232,0.074-0.373,0.167c-0.056,0.16,0,0.16,0.196,0.052
	C440.898,183.903,440.953,183.836,440.898,183.836z M314.256,268.502c-0.139,0-0.314,0.044-0.372,0.152
	c-0.103,0.161,0,0.161,0.196,0C314.256,268.603,314.312,268.502,314.256,268.502z M466.516,169.297
	c-0.604-0.494-0.604-0.516-0.428-0.096c0.428,0.638,0.836,1.084,0.939,0.858C467.082,169.943,466.85,169.617,466.516,169.297z
	 M198.779,347.797l0.209-0.454l-0.297,0.357c-0.172,0.179-0.339,0.446-0.339,0.535C198.282,348.578,198.58,348.295,198.779,347.797z
	 M205.748,348.443c-0.246-0.022-0.446,0-0.446,0.059c-0.027,0.127,0.739,0.215,0.817,0.097
	C206.101,348.547,205.929,348.473,205.748,348.443z M216.389,342.916c0.055-0.163,0.055-0.215,0-0.163
	c-0.07,0.044-0.19,0.245-0.26,0.341c-0.093,0.201-0.056,0.245,0.079,0.201C216.254,343.243,216.31,343.08,216.389,342.916z
	 M228.093,334.833c-0.172-0.164-0.246-0.298-0.172-0.379c0.218-0.126,0.353,0.022,0.409,0.379
	C228.331,335.07,228.331,335.07,228.093,334.833z M217.489,342.589c0-0.104-0.163-0.104-0.302,0c-0.334,0.253-0.334,0,0.056-0.341
	c0.199-0.156,0.371-0.401,0.371-0.542c0.057-0.246,0.057-0.246,0.246-0.097c0.126,0.148,0.126,0.372,0,0.505
	c-0.125,0.164-0.199,0.327-0.125,0.371c0.06,0.061,0,0.164-0.074,0.246C217.633,342.753,217.489,342.7,217.489,342.589z
	 M215.4,344.929c-0.2-0.155-0.2-0.2,0.027-0.155c0.093,0.104,0.219,0.193,0.219,0.268C215.646,345.13,215.511,345.085,215.4,344.929
	z M226.843,337.67c-0.055-0.052,0-0.156,0-0.223c0.061-0.044,0.242-0.044,0.316,0c0.056,0.112,0.056,0.202,0,0.253
	C227.026,337.745,226.913,337.73,226.843,337.67z M215.331,345.821c-0.312,0-0.428,0.044-0.428,0.186
	c0.056,0.171-0.074,0.268-0.245,0.268c-0.209,0.06-0.2-0.096,0.027-0.423c0.218-0.372,0.343-0.417,0.743-0.32
	C215.98,345.665,215.938,345.769,215.331,345.821z M225.6,345.397c0-0.104,0-0.223,0-0.238c0-0.029,0.135,0.023,0.246,0.075
	c0.069,0.074,0.069,0.193-0.12,0.238C225.68,345.546,225.6,345.487,225.6,345.397z M226.218,345.226
	c-0.093,0-0.303-0.111-0.372-0.215c-0.12-0.134-0.12-0.17,0.069-0.134c0.111,0,0.373,0,0.521-0.059
	c0.279-0.104,0.279-0.044,0.125,0.178C226.436,345.115,226.324,345.226,226.218,345.226z M233.957,342.9
	c-0.111-0.044-0.191,0,0,0.149c0.17,0.134,0.259,0.179,0.259,0.104C234.216,343.064,234.138,342.967,233.957,342.9z
	 M235.145,344.729c-0.13,0-0.246,0.104-0.311,0.194c-0.06,0.148,0,0.148,0.191,0.044
	C235.145,344.877,235.243,344.729,235.145,344.729z M235.517,344.632c-0.13-0.053-0.172,0,0,0.163
	c0.125,0.097,0.209,0.187,0.236,0.097C235.715,344.789,235.641,344.684,235.517,344.632z M195.623,371.177
	c-0.107-0.104-0.344-0.163-0.399-0.059c-0.246,0.164-0.191,0.193,0.121,0.253c0.2,0.044,0.372,0.044,0.399,0.044
	C195.794,371.326,195.734,371.23,195.623,371.177z M233.957,345.308c-0.673,0.126-0.673,0.179-0.056,0.513
	c0.464,0.186,0.464,0.186,0.571-0.2C234.519,345.226,234.519,345.197,233.957,345.308z M195.27,372.812
	c-0.399-0.104-0.399-0.104-0.056,0.06c0.12,0.126,0.371,0.238,0.464,0.341c0.097,0.112,0.153,0.045,0.097-0.104
	C195.668,373.005,195.46,372.872,195.27,372.812z M222.633,357.262c-0.301-0.17-0.436-0.215-0.301-0.111
	c0.209,0.252,0.798,0.55,0.798,0.454C223.129,357.56,222.889,357.418,222.633,357.262z M229.518,359.536
	c-0.316-0.156-1.113-0.454-1.797-0.669c-1.453-0.512-4.461-1.262-4.271-1.047c0.098,0.112,0.744,0.327,1.407,0.52
	c0.688,0.149,1.314,0.401,1.342,0.513c0.098,0.155,0.135,0.17,0.172,0.082c0.018-0.104,0.607,0,1.263,0.245
	c1.704,0.639,2.139,0.75,2.265,0.639C230.001,359.736,229.81,359.587,229.518,359.536z M233.399,355.813
	c0.055-0.149,0.186-0.282,0.246-0.342c0.065-0.104,0.12,0,0.065,0.163c-0.065,0.148-0.191,0.312-0.237,0.372
	C233.339,356.081,233.339,355.999,233.399,355.813z M232.341,357.359c0.079-0.149,0.2-0.342,0.297-0.372
	c0.056-0.075,0.093,0.03,0.019,0.156c-0.056,0.164-0.181,0.326-0.237,0.372C232.359,357.56,232.285,357.508,232.341,357.359z
	 M231.914,358.176c-0.02-0.029,0.074-0.164,0.135-0.275c0.055-0.126,0.19-0.156,0.236-0.052
	C232.23,358.027,232.049,358.31,231.914,358.176z M232.23,358.741c0.198-0.446,0.519-1.025,0.71-1.337
	c0.162-0.297,0.534-0.847,0.78-1.233c0.246-0.387,0.771-1.219,1.235-1.843c1.675-2.444,1.921-2.897,2.122-4.049
	c0.153-1.092-0.135-2.185-0.684-2.696c-0.314-0.261-0.314-0.625-0.059-0.773c0.059-0.059,0.278,0,0.468,0.148
	c0.521,0.297,0.891,1.784,0.827,3.121c0,1.188,0.199,1.106,0.673-0.238c0.199-0.512,0.199-1.137,0.079-1.664
	c-0.288-0.839-1.059-1.828-1.342-1.642c-0.163,0.082-0.191,0-0.237-0.246c-0.098-0.371-0.172-0.312-0.78,0.112
	c-0.687,0.468-0.715,0.512-0.427,0.965c0.237,0.453,0.148,0.401-0.623-0.342c-1.416-1.344-3.087-1.76-4.629-1.248
	c-0.797,0.246-6.931,4.414-7.256,4.897c-0.12,0.215,0,0.416,0.78,1.106c0.534,0.445,1.705,1.478,2.521,2.229
	c0.855,0.743,1.788,1.479,2.043,1.604c0.614,0.268,2.34,0.483,2.592,0.327c0.31-0.2,0.845,0.097,0.845,0.454
	c0,0.401-0.535,0.638-0.906,0.513c-0.12-0.075-0.302-0.075-0.339,0c-0.098,0.319-1.819,0.155-2.967-0.246
	c-0.989-0.372-1.388-0.624-2.59-1.591c-0.765-0.668-1.605-1.285-1.88-1.336c-0.636-0.223-1.17,0.052-1.305,0.72
	c-0.12,0.521-0.065,0.751,0.562,1.508c0.505,0.506,0.989,1.018,1.388,1.263c1.017,0.505,3.185,1.04,3.803,0.914
	c0.562-0.112,0.668-0.045,1.169,0.423c0.989,0.943,2.177,0.995,2.786,0.163c0.316-0.401,0.353-0.401,0.162,0.267
	c-0.162,0.565,0,1.799,0.344,2.095c0,0.06,0.055-0.296,0-0.75C231.988,359.87,232.104,359.142,232.23,358.741z M232.694,361.875
	c-0.335-0.416-0.59-0.579-0.525-0.416c0,0.164,0.307,0.498,0.608,0.788C233.474,362.901,233.399,362.767,232.694,361.875z
	 M233.474,363.005c-0.135-0.052-0.135,0.06,0.055,0.238c0.191,0.164,0.237,0.208,0.237,0.104
	C233.711,363.228,233.585,363.08,233.474,363.005z M235.517,364.417c-0.873-1.605-1.797-4.383-1.751-5.246
	c0.08-0.817-0.292-0.564-0.427,0.372c-0.237,1.188-0.092,1.634,1.426,4.732c1.239,2.444,1.303,2.548,1.767,2.548
	c0.4-0.044,0.4-0.044,0.191-0.416C236.523,366.178,236.068,365.308,235.517,364.417z M130.463,476.973
	c-0.636,0.238-1.36,0.194-2.14-0.155c-0.59-0.244-1.208-0.772-3.803-3.438c-3.021-3.032-12.256-12.304-20.483-20.58
	c-5.729-5.751-7.86-8.374-9.563-11.575c-1.579-3.046-1.454-5.245,0.208-5.868c0.251-0.104,1.417-0.723,2.521-1.368
	c1.114-0.639,2.985-1.782,4.29-2.524c3.523-1.977,6.625-4.206,8.918-6.435c2.786-2.63,3.714-3.789,6.101-8.01
	c2.321-3.981,2.084-3.788,5.344-6.093c4.716-3.343,40.126-26.657,43.399-28.588c3.523-2.066,4.201-2.326,5.38-2.066
	c0.465,0.097,0.929,0.164,0.989,0.164c0.13,0,0.589,0.164,1.054,0.29c0.497,0.156,0.989,0.297,1.114,0.275
	c0.12-0.023,0.236,0.074,0.236,0.133c0,0.104,0.302,0.156,0.646,0.238c0.343,0.029,0.645,0.104,0.771,0.201
	c0.673,0.445,3.366,0.668,5,0.445c2.967-0.482,6.258-1.909,8.121-3.565c2.92-2.602,4.191-5.253,4.424-8.983
	c0.092-1.85,0.037-2.37-0.4-3.804c-0.361-1.366-1.049-2.6-2.075-3.818c-1.389-1.739-1.551-2.273-1.054-3.521
	c0.646-1.657,4.61-6.464,6.514-7.89c0.71-0.513,1.328-0.937,1.328-0.87c0.027,0.112,0.218,0.06,0.371-0.082
	c0.562-0.371,3.292-0.854,4.972-0.906c0.85-0.03,1.579-0.104,1.579-0.156c0.079-0.201-2.785-0.053-4.327,0.245
	c-1.244,0.252-1.671,0.252-1.634,0.052c0-0.155-0.092-0.2-0.172-0.155c-0.056,0.06-0.371-0.164-0.664-0.535
	c-0.506-0.572-1.504-1.04-1.615-0.743c-0.019,0.044-0.316,0.044-0.608-0.06c-1.305-0.297-1.922-0.297-3.292,0.104
	c-0.798,0.208-1.844,0.491-2.377,0.595c-0.534,0.104-1.017,0.185-1.082,0.237c-0.4,0.246-1.606-0.624-1.523-1.128
	c0.065-0.491,0.4-0.521,0.835-0.164c0.469,0.498,0.618,0.164,0.126-0.416c-0.372-0.416-0.372-0.476,0.427-1.003
	c0.645-0.468,1.053-0.609,2.196-0.81c0.835-0.208,1.551-0.238,1.95-0.097c0.891,0.297,1.741,0.097,2.729-0.698
	c0.836-0.624,0.961-0.676,1.672-0.565c0.399,0.022,0.989,0.268,1.313,0.468c1.17,0.84,1.941,1.181,2.168,1.047
	c0.492-0.296,0,0.788-0.589,1.45c-0.725,0.779-0.725,1.092,0,0.564c1.007-0.617,5.163-0.564,8.621,0.104
	c0.836,0.193,1.551,0.269,1.742,0.164c0.162-0.164,0.743-1.003,1.332-1.969c1.272-2.072,3.565-4.992,5.172-6.708
	c2.28-2.37,4.336-3.945,10.209-7.815c5.851-3.879,6.151-4.116,6.184-5.052c0.037-0.572-0.808-1.676-1.333-1.676
	c-0.199,0-0.96,0.361-1.741,0.784c-1.814,0.943,21.45-14.607,56.891-37.991c15.906-10.553,26.678-17.734,26.408-17.66
	c-0.259,0.048-0.521,0.108-0.521,0.079c-0.055,0,0.373-0.29,0.874-0.542c0.631-0.372,0.91-0.472,0.742-0.297
	c0,0.163,0.428-0.044,1.244-0.539c1.115-0.769,1.17-0.814,0.558-0.691c-0.558,0.097-0.48,0.044,1.06-1.021
	c1.543-1.069,4.643-3.143,8.412-5.569c0.92-0.531,2.692-1.734,3.977-2.6c1.225-0.862,2.84-1.857,3.49-2.255
	c3.992-2.303,8.32-5.125,24.604-15.876c16.035-10.594,39.687-26.467,51.941-34.818c2.285-1.616,7.801-5.297,12.164-8.203
	c5.424-3.659,7.873-5.393,7.818-5.523c-0.074-0.252,1.002-1.026,2.805-1.961c0.723-0.419,1.467-0.884,1.707-1.044
	c0.447-0.341,1.301-0.936,2.358-1.575c0.429-0.249,1.302-0.836,1.912-1.292c0.613-0.472,1.244-0.937,1.431-1.096
	c0.205-0.16,0.262-0.246,0.094-0.342c-0.223-0.052-0.223-0.052,0.131-0.052c0.518,0.03,1.299-0.542,1.002-0.747
	c-0.186-0.152-0.057-0.267,0.354-0.516c0.313-0.17,0.631-0.312,0.631-0.215c0.131,0.078,1.244-0.792,1.301-0.966
	c0-0.167-0.057-0.13-0.781,0.297c-0.26,0.167-0.631,0.319-0.725,0.319c-0.334,0-1.207,0.893-1.076,1.044
	c0.055,0.059,0,0.152-0.205,0.249c-0.195,0.122-0.24,0.122-0.195,0c0.103-0.104,0.103-0.19,0.048-0.297
	c-0.177-0.104-4.218,2.57-4.802,3.221c-0.307,0.24-0.537,0.422-0.537,0.378c0-0.085-0.649,0.234-1.411,0.769
	c-0.771,0.494-1.302,0.884-1.207,0.943c0.104,0-0.037,0.189-0.289,0.423c-0.175,0.201-0.463,0.346-0.584,0.297
	c-0.058-0.022,0-0.167,0.231-0.372c0.252-0.182-0.195,0.067-0.938,0.523c-1.052,0.703-1.302,0.922-1.244,1.104
	c0.074,0.16,0,0.319-0.158,0.42c-0.344,0.196-0.539-0.045-0.27-0.297c0.194-0.234-91.767,60.724-98.414,65.183
	c-1.729,1.188-4.599,3.12-6.332,4.238c-1.783,1.133-3.9,2.649-4.83,3.273c-0.871,0.669-2.32,1.664-3.194,2.214
	c-1.411,0.92-29.006,19.123-36.918,24.412c-4.954,3.276-35.229,23.106-41.969,27.441c-3.195,2.128-9.04,5.888-12.996,8.406
	c-5.143,3.373-7.521,4.963-8.7,5.928c-0.905,0.714-3.185,2.371-5.107,3.641c-1.922,1.286-3.468,2.423-3.538,2.526
	c0,0.104-0.129,0.238-0.236,0.341c-0.163,0.104-0.246,0.357-0.218,0.491c0.064,0.297,0.064,0.327-0.506,0.297
	c-0.265,0-0.835-0.156-1.171-0.297l-0.584-0.297l-2.475,1.62c-1.379,0.921-2.661,1.665-2.86,1.665c-0.297,0.104-0.469,0-0.761-0.476
	c-0.59-0.854-0.4-1.04,2.186-2.733c2.15-1.427,2.415-1.583,3.004-1.583c0.78-0.029,1.207-0.297,0.97-0.542
	c-0.064-0.104-0.134-0.252,0-0.297c0.112-0.082,0-0.237-0.315-0.49c-0.33-0.149-1.443-1.129-2.539-2.185
	c-1.728-1.649-2.006-1.872-2.345-1.797c-0.241,0.03-3.282,1.916-7.057,4.436c-6.504,4.257-6.685,4.346-7.015,5
	c-0.223,0.402-0.343,0.832-0.343,0.988c0.209,0.944-2.387,3.47-7.586,7.437c-6.713,5.148-11.049,8.172-15.195,10.854
	c-4.035,2.571-4.401,2.712-5.334,2.869c-1.379,0.296-2.665-0.187-4.954-1.828c-2.321-1.679-6.333-5.75-7.387-7.452
	c-1.179-2.005-1.059-2.601,0.757-3.923c2.358-1.604,10.813-7.25,12.316-8.142c3.524-2.066,5.145-3.009,5.553-3.225
	c0.273-0.148,1.5-0.892,2.813-1.679c2.721-1.694,4.457-2.585,6.806-3.522c1.485-0.564,1.796-0.639,2.967-0.564l1.304,0.104
	l7.15-4.726c4.049-2.66,7.205-4.81,7.275-4.925c0-0.138-0.2-0.472-0.306-0.743c-0.942-1.263-0.798-1.72,0.706-3.577
	c0.589-0.717,0.78-0.865,1.606-1.147c2.442-0.921,3.937-0.966,4.736-0.161c0.71,0.669,0.738,0.64,2.943-0.784l2.01-1.307
	l0.065-0.639c0.056-0.702,0-0.753-1.551-2.359c-1.11-1.11-2.289-2.823-2.289-3.294c0-0.252,0.339-0.717,0.775-1.189
	c1.086-1.04,5.604-4.008,6.848-4.517c0.989-0.312,1.044-0.312,1.788,0.059c0.464,0.237,1.104,0.668,1.522,0.906
	c0.362,0.283,0.71,0.517,0.827,0.517c0.065,0.063,0.562,0.549,1.114,1.043c1.016,0.996,1.053,0.996,2.136,1.104l1.113,0.123
	l1.895-1.263c1.035-0.672,1.852-1.281,1.852-1.419c0-0.075-0.255-0.517-0.571-0.917c-0.316-0.42-0.534-0.944-0.534-1.126
	c0.018-0.471,1.486-2.407,2.141-2.882c0.371-0.194,1.359-0.536,2.185-0.77c1.39-0.375,1.779-0.427,2.322-0.223
	c0.353,0.167,0.873,0.457,1.054,0.646c0.279,0.246,0.589,0.346,0.868,0.29c0.246,0,2.577-1.474,6.473-4.061
	c6.592-4.353,5.612-3.622,12.789-10.022c1.207-1.062,3.65-3.277,5.372-4.777c1.788-1.582,3.755-3.369,4.457-4.008
	c0.725-0.639,2.178-1.902,3.228-2.854c0.987-0.914,2.213-1.958,2.623-2.351c2.376-2.229,12.075-9.213,14.205-10.257
	c2.081-0.996,2.35-1.047,3.524-0.249c2.047,1.389,13.032,12.277,13.152,13.127c0.037,0.1-0.157,0.513-0.353,0.944
	c-0.408,0.672-0.724,0.921-3.723,2.976c-6.657,4.565-9.693,6.141-34.175,17.805l-5.849,2.797l-6.513,4.305
	c-7.67,5.052-7.243,4.559-5.627,6.041c1.304,1.129,1.415,1.188,2.005,0.776c1.287-0.813,2.15-1.133,2.605-0.973
	c0.636,0.297,1.294-0.16,1.043-0.743c-0.148-0.397-0.148-0.428,1.523-1.463l1.914-1.04l1.188,0.987
	c1.542,1.308,2.043,1.505,2.842,1.111c0.408-0.152,14.479-9.458,31.292-20.654c16.834-11.192,43.492-28.979,59.268-39.469
	c15.785-10.495,33.668-22.437,39.808-26.553c6.139-4.108,27.104-18.031,46.547-30.955l35.422-23.477l0.818,0.015
	c1.049,0.137,2.692,1.218,4.094,2.775c1.17,1.393,1.522,2.184,1.152,2.901c-0.279,0.516-1.662,1.459-26.23,17.882
	c-14.262,9.536-43.816,29.254-65.693,43.815c-30.707,20.457-39.823,26.549-39.963,26.869c-0.158,0.319-0.057,0.419,1.15,1.508
	c0.957,0.843,1.317,1.234,1.578,1.81c0.604,1.355,0.428,2.444-0.621,3.836c-0.195,0.264-1.312,1.215-2.48,2.028
	c-2.283,1.72-2.34,1.776-1.614,2.549c0.622,0.572,0.641,1.014,0.25,1.661c-0.642,0.888-1.085,1.095-2.414,1.051
	c-1.56,0-1.849,0.189-3.23,2.121c-0.586,0.892-1.606,2.128-2.229,2.846c-1.087,1.315-1.281,1.423-9.212,6.861
	c-4.467,3.021-10.893,7.497-14.364,9.881c-23.469,16.367-23.706,16.542-26.292,18.351c-1.207,0.839-5.479,3.867-9.498,6.72
	c-7.628,5.345-11.157,7.894-19.352,13.859c-2.66,1.984-5.352,3.789-5.914,4.117c-0.682,0.371-1.407,0.557-2.289,0.668
	c-1.142,0.186-1.36,0.246-2.665,1.137c-1.913,1.277-1.913,1.233-0.056,3.009c1.244,1.233,1.56,1.642,2.043,2.652
	c0.645,1.293,0.743,2.897,0.316,4.116c-0.19,0.609-1.305,2.467-1.95,3.417c-1.207,1.664-2.006,3.27-2.076,4.131
	c-0.12,1.902,0.07,2.63,1.778,5.794c0.39,0.773,0.706,1.62,0.706,1.917c-0.055,0.505-0.125,0.535-0.682,0.564
	c-0.612,0.044-0.668,0-1.104-0.49c-0.209-0.357-0.673-0.996-0.989-1.486c-0.706-1.397-3.176-3.759-4.574-4.458
	c-1.007-0.469-1.787-0.624-2.052-0.469c-0.199,0.171-0.933-0.096-1.639-0.512c-0.329-0.193-0.891-0.394-1.169-0.46
	c-0.274,0-0.645-0.12-0.836-0.179c-0.199-0.066-0.9-0.112-1.615-0.052c-0.989,0.075-1.416,0.186-1.969,0.594
	c-0.372,0.26-0.682,0.513-0.618,0.587c0.056,0.097,0.056,0.193-0.125,0.297c-0.13,0.096-0.2,0.193-0.2,0.268
	c0.25,0.453-1.207,3.306-2.214,4.569c-1.115,1.359-1.681,2.696-1.825,4.725c-0.125,1.048-0.163,1.932-0.125,1.932
	c0.06,0.045-0.037,0.669-0.13,1.434c-0.098,0.75-0.126,1.56-0.061,1.872c0.371,1.456,0.506,2.132,0.506,2.288
	c-0.065,0.045,0.092,0.312,0.265,0.595c0.125,0.238,0.246,0.49,0.199,0.535c-0.056,0.053,0.125,0.49,0.334,0.996
	c0.283,0.535,0.464,0.996,0.371,0.996c-0.097,0.089,0.465,1.976,0.971,3.209c0.19,0.55,1.109,1.842,1.605,2.37
	c0.673,0.609,1.978,2.95,1.918,3.492c0,0.528-1.054,1.858-1.918,2.37c-1.331,0.951-12.827,4.681-13.161,4.311
	c-0.037-0.054-0.13-0.054-0.157,0.052c-0.098,0.156-0.804,0.097-1.305-0.149c-0.2-0.066-0.618-0.111-1.008-0.066
	c-0.408,0.11-0.78,0-0.97-0.156c-0.464-0.468-1.853,0.023-3.292,1.152c-1.969,1.53-4.012,3.871-12.74,14.612
	c-1.853,2.289-4.03,4.801-4.772,5.751c-0.761,0.938-3.622,4.303-6.37,7.578c-2.729,3.247-5.051,5.98-5.163,6.145
	c-0.163,0.164-1.332,1.539-2.586,3.023c-1.276,1.493-3.435,4.095-4.805,5.685c-3.974,4.599-12.595,14.812-13.5,15.823
	c-0.562,0.677-0.798,1.159-0.855,1.673c-0.056,0.416-0.246,1.122-0.473,1.546c-0.363,0.823-0.404,0.869-1.732,1.491
	c-1.235,0.61-1.398,0.767-2.758,2.199c-0.771,0.804-1.978,2.229-2.665,3.062c-0.78,0.921-1.978,2.108-3.032,3.001
	c-1.88,1.62-2.539,2.259-4.527,4.785C132.45,475.51,131.262,476.572,130.463,476.973z"/>
<path id="gun_2_" fill="#01080A" d="M376.651,380.925c0.826-0.603,0.755-0.776-0.397-1.981c-2.223-2.314-3.687-3.106-4.388-2.458
	c-0.579,0.556-0.399,0.873,1.659,2.839C375.599,381.322,375.918,381.433,376.651,380.925z M335.933,338.256
	c0.288-0.23,0.146-0.73-0.175-1.118c-0.582-0.594-1.483-0.254-1.532,0.587C334.163,338.359,335.438,338.787,335.933,338.256z
	 M333.021,334.792c0-0.619-0.225-0.619-0.807-0.032c-0.654,0.586-0.654,0.76-0.016,0.793
	C332.807,335.554,332.966,335.411,333.021,334.792z M325.658,330.48c0.444,0.063,1.532,0.682,2.553,1.491
	c2.465,2.061,3.183,1.109,1.213-1.665c-1.69-2.346-2.713-2.601-4.275-1.11C324.27,329.989,324.43,330.432,325.658,330.48z
	 M438.732,456.18c0.577,0.336,1.271,0.318,1.583-0.028c0.63-0.541,0.458-0.841-1.561-2.791c-2.099-2.015-2.418-2.162-3.228-1.617
	c-0.802,0.557-0.734,0.762,0.727,2.252C437.12,454.883,438.241,455.895,438.732,456.18z M395.452,418.006
	c9.669,9.172,12.784,12.176,20.954,19.898c3.717,3.543,9.189,8.813,12.201,11.658c2.951,2.813,5.477,5.19,5.557,5.305
	c0.085,0.086,0.802,0.313,1.437,0.633c1.104,0.484,1.104,0.365-0.158-0.943c-0.707-0.784-1.589-1.332-1.871-1.205
	c-0.355,0.168-0.631-0.041-0.803-0.848c-0.271-0.889-4.279-4.979-17.898-18.231c-9.648-9.369-20.18-19.578-23.374-22.671
	c-3.192-3.106-5.848-5.604-5.932-5.484c-0.104,0.095-0.283,0.492-0.455,0.998c-0.271,0.636,0.111,1.158,1.389,2.379
	C387.347,410.364,391.398,414.201,395.452,418.006z M312.861,339.271c3.238,3.13,3.176,3.115,3.351,2.576
	c0.08-0.555-5.88-6.817-6.574-6.817c-0.638,0-0.798,1.015-0.047,1.38C309.91,336.552,311.377,337.868,312.861,339.271z
	 M152.69,171.436c2.186,1.764,5.393,2.949,6.166,2.267c1.173-1.066,3.303-6.349,3.806-9.278c0.503-2.727,0.399-3.492-0.502-4.807
	c-1.675-2.465-5.424-5.422-7.236-5.688l-1.627-0.254l-4.196,4.328c-2.345,2.331-4.196,4.447-4.252,4.658
	c0,0.448,4.3,5.94,5.122,6.599C150.289,169.466,151.525,170.481,152.69,171.436z M331.801,361.505
	c2.425,1.807-5.408-5.851-11.359-11.208c-2.713-2.473-2.043-1.697,2.823,3.17C326.822,356.987,330.668,360.633,331.801,361.505z
	 M425.636,466.479c0.108-0.047,0.596-0.315,1.117-0.668c0.958-0.68,0.958-0.68-1.591-3.12c-1.325-1.33-2.646-2.482-2.916-2.529
	c-0.212-0.055-0.771,0.213-1.273,0.715l-0.85,0.822l2.621,2.379C424.264,465.393,425.537,466.486,425.636,466.479z M158.85,191.114
	c20.582,19.496,35.198,33.082,45.107,41.824c6.964,6.127,7.499,6.56,11.296,10.201c2.106,1.951,5.193,4.864,6.861,6.438
	c3.351,3.175,18.085,17.284,42.889,41.265c8.895,8.558,16.983,16.231,17.829,16.904c3.75,3.027,1.021,0.055-7.786-8.458
	c-13.53-13.094-38.749-37.568-79.307-76.983c-19.587-19.084-39.275-38.1-43.895-42.273c-4.516-4.197-9.726-8.921-11.48-10.566
	l-3.152-2.924l-1.068,0.927l-1.005,0.999l5.137,4.911C143.077,176.128,151.493,184.067,158.85,191.114z M172.443,221.203
	c14.839,13.927,28.497,26.476,30.364,27.879c3.175,2.347,6.479,4.011,6.981,3.46c0.167-0.107-0.686-1.113-1.907-2.168
	c-1.229-1.11-14.735-13.935-30.052-28.541c-15.318-14.553-29.16-27.691-30.787-29.09l-2.841-2.612l-1.116,1.03
	c-0.599,0.603-1.133,1.225-1.133,1.395c0.063,0.139,0.749,0.983,1.674,1.804C144.497,195.211,157.454,207.232,172.443,221.203z
	 M253.657,306.296c0.575-1.585,0.168-1.855-1.42-0.792c-1.995,1.221-2.161,2.18-0.398,2.083
	C252.892,307.524,253.211,307.255,253.657,306.296z M250.1,305.511c1.253-0.76,1.939-1.981,1.253-2.322
	c-0.806-0.42-3.304,1.808-2.713,2.355C248.943,305.821,249.541,305.821,250.1,305.511z M248.592,302.832
	c1.005-0.928,1.205-1.403,0.901-1.832c-0.366-0.325-0.917-0.111-1.874,0.841c-0.974,0.873-1.205,1.379-0.886,1.744
	C247.116,303.998,247.619,303.759,248.592,302.832z M245.712,301.603c0.989-0.65,2.074-2.346,1.708-2.727
	c-0.352-0.435-2.243,0.777-2.88,1.808C243.956,301.619,244.754,302.158,245.712,301.603z M243.55,299.511
	c1.109-0.531,1.938-2.085,1.31-2.426c-0.28-0.143-1.158,0.222-1.812,0.793c-1.037,0.801-1.269,1.221-0.901,1.617
	C242.409,299.717,243.047,299.788,243.55,299.511z M241.627,297.417c0.95-0.522,1.707-2.14,1.205-2.695
	c-0.151-0.158-0.958,0.286-1.691,0.952C239.649,297.084,239.968,298.305,241.627,297.417z M239.395,295.27
	c1.068-0.451,1.338-0.768,1.275-1.664c0-1.106-0.063-1.106-1.068-0.555c-1.238,0.682-2.242,2.085-1.788,2.513
	C237.973,295.714,238.659,295.611,239.395,295.27z M237.159,293.296c1.269-0.745,1.819-1.883,1.269-2.493
	c-0.271-0.325-0.885-0.079-1.812,0.844C235.014,293.05,235.484,294.248,237.159,293.296z M235.484,290.602
	c1.324-1.471,1.148-2.564-0.271-1.642c-1.524,1.007-2.273,2.228-1.468,2.556C234.176,291.731,234.758,291.438,235.484,290.602z
	 M232.469,289.376c1.244-0.586,1.994-2.037,1.452-2.647c-0.319-0.317-0.901-0.091-1.851,0.798
	C230.61,288.905,230.881,290.173,232.469,289.376z M218.109,274.097c0.143-0.372,0-0.372-0.424-0.055
	c-0.382,0.373-0.47,0.665-0.262,0.665C217.606,274.708,217.901,274.422,218.109,274.097z M230.938,286.527
	c1.228-1.396,1.116-2.518-0.177-1.796c-1.372,0.733-2.297,2.346-1.539,2.695C229.589,287.629,230.195,287.311,230.938,286.527z
	 M228.017,285.188c1.206-0.722,2.226-2.307,1.636-2.671c-0.264-0.164-1.164,0.285-2.042,0.951c-1.069,0.947-1.389,1.347-0.981,1.712
	C226.828,285.464,227.514,285.413,228.017,285.188z M226.422,282.238c0.837-0.76,1.004-1.197,0.725-1.604
	c-0.55-0.559-2.129,0.286-2.665,1.402C223.917,283.245,225.184,283.352,226.422,282.238z M223.629,280.86
	c1.125-0.715,1.954-2.108,1.477-2.612c-0.304-0.317-0.869-0.055-1.979,0.947c-1.156,1.146-1.355,1.515-0.87,1.725
	C222.624,281.074,223.246,281.022,223.629,280.86z M221.132,278.751c1.245-0.552,1.987-1.982,1.443-2.589
	c-0.319-0.309-0.9-0.138-1.644,0.582C219.329,278.311,219.409,279.659,221.132,278.751z M219.641,275.854
	c0.542-0.587,0.989-1.324,0.829-1.641c-0.287-0.583-2.632,0.722-2.92,1.581C217.287,276.853,218.459,276.875,219.641,275.854z
	 M130.033,190.396c1.595,1.431,2.026,1.518,2.545,0.967c0.79-0.65,0.702-0.753-4.03-5.243c-2.712-2.533-5.057-4.649-5.313-4.732
	c-0.167-0.055-0.533,0.293-0.853,0.738c-0.52,0.812-0.319,1.058,2.665,3.777C126.786,187.492,129.043,189.552,130.033,190.396z
	 M326.271,404.872c4.236,3.788,5.09,3.852,9.357,0.808c2.801-2.005,3.279-2.447,3.869-3.954c1.053-2.728,0-2.537-3.016,0.349
	c-1.667,1.602-3.198,2.773-4.116,3.092c-1.492,0.475-1.46,0.429,0.582-1.554c1.764-1.648,2.122-2.314,2.282-3.899
	c0.352-3.092-0.319-4.565-3.063-6.912c-1.884-1.617-2.769-2.093-4.181-2.156c-1.979-0.127-3.023,0.713-5.84,4.503
	c-2.026,2.742-2.026,4.549-0.063,6.071C322.69,401.677,324.653,403.357,326.271,404.872z M343.257,423.127
	c3.286,1.348,4.403,1.062,4.292-1.109c0-1.934-2.601-2.426-5.951-1.204c-0.998,0.381-1.658,0.752-1.61,0.889
	C340.066,421.795,341.55,422.414,343.257,423.127z M322.188,443.562c2.082-1.412,4.523-5.453,6.613-10.986
	c1.756-4.678,1.859-5.137,1.117-7.086c-0.574-1.478-0.702-2.426-0.144-3.015c0.335-0.475,1.354-1.899,2.306-3.17
	c2.769-3.772,3.031-3.29-6.693-12.255c-9.78-9.006-10.897-10.519-9.095-12.215c1.548-1.459,4.181-5.755,4.523-7.42
	c0.167-0.84-0.023-2.521-0.375-3.789l-0.631-2.259l-7.817-7.023c-4.253-3.805-11.656-10.367-16.354-14.489l-8.536-7.499
	l-1.907-3.543c-1.022-1.926-1.898-3.772-1.763-4.106c0.055-0.468-2.291-2.894-9.63-9.599c-5.338-4.986-11.353-10.558-13.323-12.421
	c-3.582-3.266-3.661-3.329-4.619-2.664c-0.454,0.436-1.611,1.102-2.448,1.546c-2.011,1.062-1.956,1.109-12.406-8.609
	c-1.891-1.744-4.205-3.852-5.138-4.756c-2.33-2.085-4.619-4.162-18.349-16.46c-11.329-10.205-11.816-10.717-15.19-15.302
	c-1.946-2.596-4.364-6.159-5.297-7.871c-0.974-1.729-2.776-4.553-3.941-6.219c-1.228-1.665-2.345-3.571-2.608-4.173
	c-0.215-0.821-7.156-7.419-29.367-27.977c-24.572-22.67-29.295-26.789-30.013-26.737c-0.846,0.048-2.074-1.09-8.264-7.427
	l-7.356-7.534l1.5-1.823l1.469-1.835l-1.221-1.324l-1.301-1.324l1.707-1.641l1.7-1.582l1.126,1.185l1.116,1.146l1.963-1.859
	l1.994-1.859l3.208,2.866c1.771,1.621,4.069,3.749,5.122,4.859l1.843,1.958l1.413-1.292l1.436-1.265l-5.137-4.839l-5.074-4.812
	l1.005-1.26c1.914-2.517,6.925-7.614,7.771-8.034c0.495-0.269,1.116-0.246,1.34,0.048c0.414,0.373,0.997-0.048,3.447-2.695
	c1.675-1.744,5.631-5.925,8.823-9.226l5.856-6.163l1.811,0.059c3.733-0.043,5.64,1.328,6.694,4.867
	c1.053,3.425-1.341,17.272-4.755,27.582l-1.564,5.01l2.505,2.469c1.355,1.355,29.199,28.386,61.908,60.033
	c32.654,31.678,63.982,62.006,69.511,67.396c10.962,10.654,12.764,12.001,14.345,10.526c0.606-0.523,1.004-0.523,1.556,0.016
	c3.836,3.947,12.836,12.619,13.013,12.667c0.144-0.048,0.047-0.539-0.24-1.109c-0.511-1.221-0.653-4.431-0.168-4.915
	c0.24-0.158,0.471-1.332,0.605-2.52c0.407-2.601,1.158-3.433,3.52-3.916c1.356-0.38,2.091-0.151,3.264,0.729
	c1.34,1.03,1.604,1.03,2.88,0.238c0.75-0.555,1.755-1.601,2.337-2.528c1.707-3.258,6.119-5.288,8.194-3.829
	c1.802,1.268,3.397,3.027,3.262,3.615c-0.088,0.324-0.638,0.015-1.46-0.857c-1.268-1.347-1.675-1.378-2.289-0.078
	c-0.278,0.522,0.096,1.189,1.222,2.331l1.492,1.569l-1.246,1.728c-0.749,0.871-1.938,2.061-2.688,2.52
	c-1.293,0.824-1.354,0.999-0.845,3.694c0.445,2.378,0.366,2.941-0.479,3.488l-0.958,0.753l4.419,4.225
	c2.396,2.306,4.739,4.542,5.188,4.907c0.559,0.547,0.988,0.547,1.627-0.088c0.654-0.531,1.212-0.642,1.995-0.277
	c1.562,0.745,2.265,2.742,1.146,3.694c-0.582,0.625-0.582,1.014,0.05,1.641c0.638,0.682,1.021,0.682,1.658,0.055
	c0.654-0.571,1.276-0.682,2.122-0.317c1.708,0.667,2.329,2.608,1.117,3.694c-0.734,0.722-0.703,0.896,0.829,2.56l1.628,1.665
	l-3.918,3.488c-2.744,2.465-4.068,3.376-4.419,3.178c-0.247-0.151-0.806,0-1.205,0.38c-0.605,0.484-0.396,0.816,1.27,2.601
	c2.179,2.291,2.025,2.291,5.713-0.452c2.457-1.886,6.263-3.598,12.082-5.501l3.772-1.315l1.7,1.775
	c0.841,0.952,3.302,3.258,5.316,5.161l3.613,3.321l-0.77,1.8c-0.499,0.912-1.273,2.378-1.88,3.155
	c-0.802,1.055-0.974,1.665-0.482,2.235c0.459,0.745,0.068,1.529-2.824,6.016c-1.861,2.894-3.351,5.264-3.351,5.422
	c0,0.135,1.919,1.934,4.256,4.13c2.925,2.623,4.396,4.209,4.575,4.875c0.164,0.595,0.531,1.158,1.014,1.396
	c0.367,0.149,0.742,0.594,0.767,0.998c0.031,0.477,44.931,44.343,45.702,44.628c0.095,0.062,0.717-0.451,1.287-1.039l1.152-1.107
	l4.707,4.635c2.498,2.537,5.381,5.533,6.274,6.646l1.646,1.979l-1.177,0.685c-1.001,0.664-1.109,0.838-0.586,1.426
	c0.397,0.395,0.654,0.949,0.506,1.234c-0.056,0.284-0.475,0.159-0.921-0.332c-0.49-0.509-1.021-0.705-1.177-0.539
	c-0.265,0.262,0.103,0.752,1.013,1.498c1.329,0.95,1.429,1.196,0.922,2.028c-1.814,2.877-5.597,4.986-7.411,3.996
	c-0.658-0.389-1.336,0.125-7.635,6.119c-3.802,3.559-7.975,7.283-9.227,8.299l-2.343,1.711l-0.893-1.33
	c-0.515-0.746-1.724-4.358-2.744-8.067c-1.055-3.648-2.123-6.699-2.442-6.867c-0.277-0.172-1.145,0.096-1.861,0.604
	c-0.71,0.462-1.646,0.921-2.043,0.982c-1.527,0.285-2.369-2.797-2.853-9.717l-0.491-6.724l-4.376-3.739
	c-2.377-2.045-4.42-4.027-4.56-4.345c-0.039-0.334,1.365-1.791,4.257-4.217l4.256-3.68l-2.915-2.662
	c-1.619-1.49-6.554-6.184-11.021-10.465c-4.412-4.271-8.776-8.354-9.542-8.981c-0.778-0.72-1.636-1.434-1.863-1.694
	c-0.366-0.373-0.825-0.104-1.675,0.941c-1.117,1.35-1.389,1.436-4.517,1.301c-1.87-0.079-5.376-0.714-7.882-1.348
	c-5.959-1.633-8.298-1.98-8.641-1.315c-0.143,0.255-1.116,1.117-2.201,1.863c-3.423,2.377-4.777,4.938-7.173,13.889
	c-2.09,7.934-7.786,23.518-8.632,23.684c-1.627,0.422-13.514-5.516-15.589-7.752l-1.517-1.547L322.188,443.562z"/>
<text transform="matrix(1 0 0 1 180.9702 256.6475)" fill="#CC3333" font-family="'Apple-Chancery'" font-size="50">Create a</text>
<text transform="matrix(1 0 0 1 227.894 316.6475)" fill="#CC3333" font-family="'Apple-Chancery'" font-size="50">new</text>
<text transform="matrix(1 0 0 1 183.4111 376.6475)" fill="#CC3333" font-family="'Apple-Chancery'" font-size="50">load out</text>
</svg>
