<?xml version="1.0" encoding="utf-8"?>
<!-- Generator: Adobe Illustrator 16.0.0, SVG Export Plug-In . SVG Version: 6.00 Build 0)  -->
<!DOCTYPE svg PUBLIC "-//W3C//DTD SVG 1.1//EN" "http://www.w3.org/Graphics/SVG/1.1/DTD/svg11.dtd">
<svg version="1.1" id="Layer_1" xmlns="http://www.w3.org/2000/svg" xmlns:xlink="http://www.w3.org/1999/xlink" x="0px" y="0px"
	 width="50px" height="50px" viewBox="0 0 50 50" enable-background="new 0 0 50 50" xml:space="preserve">
<g id="Explosive">
	<g>
		<rect x="1.667" y="1.667" fill="#CC33FF" width="46.667" height="46.667"/>
		<g id="stroke_10_">
			<path fill="#660000" d="M48.333,1.667v46.667H1.666V1.667H48.333 M50,0h-1.137H3.404H0v1.136v45.453V50h3.404h45.459H50v-3.411
				V1.136V0L50,0z"/>
			
				<linearGradient id="SVGID_1_" gradientUnits="userSpaceOnUse" x1="898" y1="-1631.9995" x2="898" y2="-1582" gradientTransform="matrix(1 0 0 -1 -873 -1582)">
				<stop  offset="0" style="stop-color:#333333;stop-opacity:0.3"/>
				<stop  offset="0.2701" style="stop-color:#353535;stop-opacity:0.4215"/>
				<stop  offset="0.4166" style="stop-color:#3D3D3D;stop-opacity:0.4875"/>
				<stop  offset="0.5336" style="stop-color:#4B4B4B;stop-opacity:0.5401"/>
				<stop  offset="0.635" style="stop-color:#5E5E5E;stop-opacity:0.5857"/>
				<stop  offset="0.7262" style="stop-color:#787878;stop-opacity:0.6268"/>
				<stop  offset="0.8101" style="stop-color:#979797;stop-opacity:0.6646"/>
				<stop  offset="0.8885" style="stop-color:#BBBBBB;stop-opacity:0.6998"/>
				<stop  offset="0.9606" style="stop-color:#E5E5E5;stop-opacity:0.7323"/>
				<stop  offset="1" style="stop-color:#FFFFFF;stop-opacity:0.75"/>
			</linearGradient>
			<path fill="url(#SVGID_1_)" d="M48.333,1.667v46.667H1.666V1.667H48.333 M50,0h-1.137H3.404H0v1.136v45.453V50h3.404h45.459H50
				v-3.411V1.136V0L50,0z"/>
		</g>
	</g>
	
		<linearGradient id="SVGID_2_" gradientUnits="userSpaceOnUse" x1="898.001" y1="-1630.3335" x2="898.001" y2="-1583.6665" gradientTransform="matrix(1 0 0 -1 -873 -1582)">
		<stop  offset="0" style="stop-color:#000000;stop-opacity:0.35"/>
		<stop  offset="0.0975" style="stop-color:#060606;stop-opacity:0.3159"/>
		<stop  offset="0.2216" style="stop-color:#151515;stop-opacity:0.2724"/>
		<stop  offset="0.36" style="stop-color:#2F2F2F;stop-opacity:0.224"/>
		<stop  offset="0.5088" style="stop-color:#545454;stop-opacity:0.1719"/>
		<stop  offset="0.6661" style="stop-color:#838383;stop-opacity:0.1169"/>
		<stop  offset="0.8304" style="stop-color:#BCBCBC;stop-opacity:0.0594"/>
		<stop  offset="0.9977" style="stop-color:#FEFEFE;stop-opacity:8.182824e-04"/>
		<stop  offset="1" style="stop-color:#FFFFFF;stop-opacity:0"/>
	</linearGradient>
	<rect x="1.667" y="1.667" fill="url(#SVGID_2_)" width="46.667" height="46.667"/>
	
		<linearGradient id="SVGID_3_" gradientUnits="userSpaceOnUse" x1="898.001" y1="-1630.3335" x2="898.001" y2="-1583.666" gradientTransform="matrix(1 0 0 -1 -873 -1582)">
		<stop  offset="0" style="stop-color:#000000;stop-opacity:0"/>
		<stop  offset="0.3726" style="stop-color:#020202;stop-opacity:0.205"/>
		<stop  offset="0.5069" style="stop-color:#090909;stop-opacity:0.2788"/>
		<stop  offset="0.6026" style="stop-color:#141414;stop-opacity:0.3314"/>
		<stop  offset="0.68" style="stop-color:#252525;stop-opacity:0.374"/>
		<stop  offset="0.7463" style="stop-color:#3B3B3B;stop-opacity:0.4104"/>
		<stop  offset="0.805" style="stop-color:#575757;stop-opacity:0.4427"/>
		<stop  offset="0.8581" style="stop-color:#777777;stop-opacity:0.472"/>
		<stop  offset="0.9069" style="stop-color:#9D9D9D;stop-opacity:0.4988"/>
		<stop  offset="0.9523" style="stop-color:#C8C8C8;stop-opacity:0.5238"/>
		<stop  offset="0.9926" style="stop-color:#F6F6F6;stop-opacity:0.5459"/>
		<stop  offset="1" style="stop-color:#FFFFFF;stop-opacity:0.55"/>
	</linearGradient>
	<rect x="1.667" y="1.666" fill="url(#SVGID_3_)" width="46.667" height="46.668"/>
</g>
<polygon fill="#C62020" points="0.009,34.338 0.555,35.215 1.014,35.953 1.272,36.369 1.675,37.018 2.189,37.846 2.622,38.539 
	3.138,39.371 3.828,40.479 4.545,41.633 5.55,43.25 5.779,43.619 5.952,43.896 6.875,43.322 6.703,43.045 7.09,42.74 7.413,42.539 
	7.599,41.912 7.427,41.635 6.808,35.697 10.133,33.631 10.5,33.705 18.286,28.93 18.771,29.193 19.177,29.848 19.102,30.344 
	19.221,30.846 19.289,31.57 19.356,32.297 19.389,33.174 19.555,36.016 19.565,36.648 20.573,36.727 21.22,36.324 21.669,36.43 
	22.367,36.316 22.967,35.943 23.336,35.713 23.798,35.426 23.454,34.871 23.138,34.363 23.231,33.793 22.83,33.146 22.883,32.41 
	23.206,32.209 22.862,31.654 22.546,31.146 22.507,30.467 22.876,30.236 23.402,29.846 23.956,29.502 24.51,29.156 25.249,28.697 
	25.584,28.105 25.9,28.613 26.303,29.26 26.676,29.859 26.991,30.367 27.278,30.83 27.957,31.303 28.389,31.996 28.646,32.412 
	28.848,32.734 29.135,33.197 29.555,33.256 29.813,33.672 30.504,34.01 31.15,33.607 31.758,33.23 32.226,32.299 32.647,31.846 
	33.201,31.5 33.509,30.861 33.671,30.504 32.848,29.799 32.193,29.055 31.606,28.523 31.002,28.066 30.635,27.783 30.271,27.303 
	29.881,26.777 29.594,26.316 29.262,25.883 28.889,25.283 28.676,24.838 28.516,24.169 28.054,23.529 27.587,22.779 27.336,22.375 
	27.48,22.195 27.723,21.761 28.072,21.5 28.729,21.01 37.232,15.535 36.378,14.16 36.973,13.983 37.115,14.213 38.859,13.001 
	38.992,12.599 44.055,9.516 44.256,9.839 44.902,9.437 45.082,9.005 47.609,7.305 46.863,6.105 44.607,7.316 44.215,7.303 
	43.506,7.295 43.275,7.439 43.378,8.016 38.234,11.277 37.919,10.769 37.166,9.764 36.658,10.081 36.803,10.311 36.433,10.541 
	36.146,10.079 35.771,9.992 35.15,9.097 33.682,6.425 32.805,6.97 34.231,10.501 15.75,21.863 15.302,21.246 14.143,21.646 
	12.792,19.989 12.302,20.23 12.524,21.308 12.677,22.172 12.962,23.661 12.373,24.155 11.98,24.655 11.205,25.777 10.033,26.57 
	9.288,27.225 8.33,27.949 7.435,28.568 6.222,29.707 5.321,30.523 4.033,31.645 3.074,32.369 2.272,32.932 1.902,33.16 
	1.441,33.447 0.888,33.279 0,33.703 "/>
</svg>
