<?xml version="1.0" encoding="utf-8"?>
<!-- Generator: Adobe Illustrator 16.0.0, SVG Export Plug-In . SVG Version: 6.00 Build 0)  -->
<!DOCTYPE svg PUBLIC "-//W3C//DTD SVG 1.1//EN" "http://www.w3.org/Graphics/SVG/1.1/DTD/svg11.dtd">
<svg version="1.1" id="Layer_1" xmlns="http://www.w3.org/2000/svg" xmlns:xlink="http://www.w3.org/1999/xlink" x="0px" y="0px"
	 width="50px" height="50px" viewBox="0 0 50 50" enable-background="new 0 0 50 50" xml:space="preserve">
<g id="handgun">
	<g>
		<g id="stroke">
			<path fill="#660000" d="M48.334,1.668v46.666H1.667V1.668H48.334 M50,0h-1.137H3.408H0v1.137v45.455V50h3.408h45.458H50v-3.408
				V1.137V0L50,0z"/>
			
				<linearGradient id="SVGID_1_" gradientUnits="userSpaceOnUse" x1="607" y1="1552" x2="607" y2="1502" gradientTransform="matrix(1 0 0 1 -582 -1502)">
				<stop  offset="0" style="stop-color:#333333;stop-opacity:0.3"/>
				<stop  offset="0.2701" style="stop-color:#353535;stop-opacity:0.4215"/>
				<stop  offset="0.4166" style="stop-color:#3D3D3D;stop-opacity:0.4875"/>
				<stop  offset="0.5336" style="stop-color:#4B4B4B;stop-opacity:0.5401"/>
				<stop  offset="0.635" style="stop-color:#5E5E5E;stop-opacity:0.5857"/>
				<stop  offset="0.7262" style="stop-color:#787878;stop-opacity:0.6268"/>
				<stop  offset="0.8101" style="stop-color:#979797;stop-opacity:0.6646"/>
				<stop  offset="0.8885" style="stop-color:#BBBBBB;stop-opacity:0.6998"/>
				<stop  offset="0.9606" style="stop-color:#E5E5E5;stop-opacity:0.7323"/>
				<stop  offset="1" style="stop-color:#FFFFFF;stop-opacity:0.75"/>
			</linearGradient>
			<path fill="url(#SVGID_1_)" d="M48.334,1.668v46.666H1.667V1.668H48.334 M50,0h-1.137H3.408H0v1.137v45.455V50h3.408h45.458H50
				v-3.408V1.137V0L50,0z"/>
		</g>
	</g>
	
		<linearGradient id="SVGID_2_" gradientUnits="userSpaceOnUse" x1="607" y1="1550.333" x2="607" y2="1503.668" gradientTransform="matrix(1 0 0 1 -582 -1502)">
		<stop  offset="0" style="stop-color:#000000;stop-opacity:0.35"/>
		<stop  offset="0.0975" style="stop-color:#060606;stop-opacity:0.3159"/>
		<stop  offset="0.2216" style="stop-color:#151515;stop-opacity:0.2724"/>
		<stop  offset="0.36" style="stop-color:#2F2F2F;stop-opacity:0.224"/>
		<stop  offset="0.5088" style="stop-color:#545454;stop-opacity:0.1719"/>
		<stop  offset="0.6661" style="stop-color:#838383;stop-opacity:0.1169"/>
		<stop  offset="0.8304" style="stop-color:#BCBCBC;stop-opacity:0.0594"/>
		<stop  offset="0.9977" style="stop-color:#FEFEFE;stop-opacity:8.182824e-04"/>
		<stop  offset="1" style="stop-color:#FFFFFF;stop-opacity:0"/>
	</linearGradient>
	<rect x="1.667" y="1.667" fill="url(#SVGID_2_)" width="46.666" height="46.666"/>
	
		<linearGradient id="SVGID_3_" gradientUnits="userSpaceOnUse" x1="607" y1="1550.9365" x2="607" y2="1503.0645" gradientTransform="matrix(1 0 0 1 -582 -1502)">
		<stop  offset="0" style="stop-color:#000000;stop-opacity:0"/>
		<stop  offset="0.3726" style="stop-color:#020202;stop-opacity:0.205"/>
		<stop  offset="0.5069" style="stop-color:#090909;stop-opacity:0.2788"/>
		<stop  offset="0.6026" style="stop-color:#141414;stop-opacity:0.3314"/>
		<stop  offset="0.68" style="stop-color:#252525;stop-opacity:0.374"/>
		<stop  offset="0.7463" style="stop-color:#3B3B3B;stop-opacity:0.4104"/>
		<stop  offset="0.805" style="stop-color:#575757;stop-opacity:0.4427"/>
		<stop  offset="0.8581" style="stop-color:#777777;stop-opacity:0.472"/>
		<stop  offset="0.9069" style="stop-color:#9D9D9D;stop-opacity:0.4988"/>
		<stop  offset="0.9523" style="stop-color:#C8C8C8;stop-opacity:0.5238"/>
		<stop  offset="0.9926" style="stop-color:#F6F6F6;stop-opacity:0.5459"/>
		<stop  offset="1" style="stop-color:#FFFFFF;stop-opacity:0.55"/>
	</linearGradient>
	<rect x="1.709" y="1.063" fill="url(#SVGID_3_)" width="46.582" height="47.873"/>
</g>
<polygon fill="#070000" points="1.148,36.746 0.96,37.57 1.384,38.244 1.915,39.09 2.409,39.877 2.939,40.721 3.799,40.963 
	4.153,40.742 4.507,40.52 4.714,40.062 4.473,39.678 8.713,36.309 9.189,36.166 9.493,35.975 14.522,32.738 16.624,31.811 
	22.953,27.914 23.704,28.133 25.803,30.908 27.201,30.422 27.059,29.412 26.635,28.738 25.717,27.275 25.47,26.49 25.329,26.264 
	27.415,25.266 27.604,24.443 28.014,24.42 28.226,24.758 28.466,25.141 29.16,25.347 29.337,25.629 29.514,25.91 29.69,26.189 
	30.096,25.936 30.625,26.779 30.943,27.287 31.096,27.977 31.687,28.469 31.828,28.693 32.232,28.438 32.941,27.994 33.145,27.865 
	31.695,25.559 31.787,25.031 31.646,24.805 32.715,23.585 32.044,22.516 31.873,21.682 36.498,18.699 37.455,17.863 38.062,17.481 
	41.692,16.064 44.24,14.384 45.441,12.924 46.83,11.425 49.038,9.88 48.508,9.037 47.207,9.776 46.852,9.998 42.148,11.619 
	40.912,12.238 40.053,12.779 38.963,13.855 38.092,14.716 36.608,15.728 35.158,16.794 34.703,17.081 34.012,16.652 32.693,17.48 
	31.848,17.933 31.588,18.644 31.174,19.22 30.656,19.857 29.744,20.43 28.363,21.377 27.182,22.198 26.261,22.305 25.633,22.542 
	24.961,22.259 24.749,21.921 24.064,22.351 23.032,23 22.217,23.511 21.684,24.238 21.625,24.825 21.362,25.382 20.042,25.898 
	18.624,26.789 17.814,27.297 16.665,27.939 15.804,28.482 14.416,29.197 13.819,29.258 12.747,29.461 11.835,30.033 10.873,30.637 
	7.935,32.482 7.024,33.055 5.504,34.01 3.833,35.061 2.465,35.918 "/>
</svg>
