<?xml version="1.0" encoding="utf-8"?>
<!-- Generator: Adobe Illustrator 16.0.0, SVG Export Plug-In . SVG Version: 6.00 Build 0)  -->
<!DOCTYPE svg PUBLIC "-//W3C//DTD SVG 1.1//EN" "http://www.w3.org/Graphics/SVG/1.1/DTD/svg11.dtd">
<svg version="1.1" id="Layer_1" xmlns="http://www.w3.org/2000/svg" xmlns:xlink="http://www.w3.org/1999/xlink" x="0px" y="0px"
	 width="50px" height="50px" viewBox="0 0 50 50" enable-background="new 0 0 50 50" xml:space="preserve">
<g id="shotgun">
	<g>
		<rect x="1.667" y="1.667" fill="#006600" width="46.667" height="46.667"/>
		<g id="stroke_2_">
			<path fill="#660000" d="M48.333,1.667v46.667H1.666V1.667H48.333 M50,0h-1.137H3.411H0v1.136v45.459V50h3.412h45.453H50v-3.405
				V1.136V0L50,0z"/>
			
				<linearGradient id="SVGID_1_" gradientUnits="userSpaceOnUse" x1="898" y1="1683" x2="898" y2="1633" gradientTransform="matrix(1 0 0 1 -873 -1633)">
				<stop  offset="0" style="stop-color:#333333;stop-opacity:0.3"/>
				<stop  offset="0.2701" style="stop-color:#353535;stop-opacity:0.4215"/>
				<stop  offset="0.4166" style="stop-color:#3D3D3D;stop-opacity:0.4875"/>
				<stop  offset="0.5336" style="stop-color:#4B4B4B;stop-opacity:0.5401"/>
				<stop  offset="0.635" style="stop-color:#5E5E5E;stop-opacity:0.5857"/>
				<stop  offset="0.7262" style="stop-color:#787878;stop-opacity:0.6268"/>
				<stop  offset="0.8101" style="stop-color:#979797;stop-opacity:0.6646"/>
				<stop  offset="0.8885" style="stop-color:#BBBBBB;stop-opacity:0.6998"/>
				<stop  offset="0.9606" style="stop-color:#E5E5E5;stop-opacity:0.7323"/>
				<stop  offset="1" style="stop-color:#FFFFFF;stop-opacity:0.75"/>
			</linearGradient>
			<path fill="url(#SVGID_1_)" d="M48.333,1.667v46.667H1.666V1.667H48.333 M50,0h-1.137H3.411H0v1.136v45.459V50h3.412h45.453H50
				v-3.405V1.136V0L50,0z"/>
		</g>
	</g>
	<path id="gun_2_" fill="#0099CC" d="M36.752,32.92c0.102-0.075,0.092-0.096-0.049-0.244c-0.272-0.286-0.451-0.384-0.537-0.303
		c-0.071,0.068-0.049,0.107,0.203,0.349C36.623,32.969,36.662,32.982,36.752,32.92z M31.767,27.662
		c0.035-0.028,0.019-0.09-0.021-0.137c-0.071-0.074-0.182-0.031-0.188,0.072C31.551,27.676,31.707,27.728,31.767,27.662z
		 M31.41,27.236c0-0.076-0.026-0.076-0.098-0.004c-0.081,0.072-0.081,0.094-0.003,0.098C31.385,27.33,31.404,27.312,31.41,27.236z
		 M30.51,26.705c0.055,0.007,0.188,0.084,0.312,0.183c0.303,0.254,0.391,0.138,0.149-0.205c-0.208-0.289-0.332-0.319-0.524-0.137
		C30.34,26.644,30.359,26.699,30.51,26.705z M44.351,42.191c0.071,0.041,0.156,0.038,0.194-0.004
		c0.076-0.066,0.056-0.104-0.191-0.345c-0.257-0.248-0.296-0.267-0.395-0.199c-0.098,0.068-0.09,0.095,0.089,0.277
		C44.154,42.031,44.291,42.156,44.351,42.191z M39.052,37.49c1.185,1.129,1.565,1.5,2.565,2.451
		c0.455,0.436,1.125,1.086,1.494,1.436c0.36,0.347,0.67,0.64,0.68,0.654c0.01,0.01,0.098,0.039,0.176,0.078
		c0.136,0.059,0.136,0.045-0.02-0.117c-0.086-0.098-0.193-0.164-0.229-0.149c-0.043,0.021-0.076-0.006-0.098-0.104
		c-0.033-0.11-0.524-0.614-2.191-2.246c-1.182-1.155-2.471-2.412-2.861-2.793c-0.391-0.383-0.716-0.69-0.726-0.676
		c-0.013,0.012-0.035,0.061-0.056,0.122c-0.033,0.078,0.014,0.144,0.17,0.293C38.061,36.546,38.557,37.019,39.052,37.49z
		 M28.942,27.787c0.397,0.387,0.39,0.384,0.41,0.318c0.011-0.068-0.719-0.84-0.804-0.84c-0.078,0-0.098,0.124-0.006,0.169
		C28.582,27.453,28.762,27.615,28.942,27.787z M9.338,7.109c0.267,0.217,0.66,0.363,0.755,0.279
		c0.144-0.131,0.403-0.781,0.466-1.143c0.061-0.336,0.048-0.43-0.062-0.592c-0.205-0.304-0.664-0.668-0.885-0.701L9.41,4.922
		L8.897,5.455C8.611,5.742,8.384,6.003,8.377,6.029c0,0.056,0.527,0.732,0.627,0.813C9.043,6.867,9.195,6.992,9.338,7.109z
		 M31.262,30.527c0.296,0.222-0.661-0.721-1.391-1.381c-0.332-0.306-0.25-0.209,0.346,0.391
		C30.652,29.971,31.123,30.42,31.262,30.527z M42.748,43.46c0.013-0.005,0.072-0.039,0.137-0.082
		c0.117-0.084,0.117-0.084-0.195-0.384c-0.162-0.164-0.324-0.307-0.357-0.312c-0.026-0.007-0.094,0.026-0.156,0.088l-0.104,0.102
		l0.321,0.293C42.58,43.326,42.736,43.46,42.748,43.46z M10.092,9.535c2.52,2.402,4.31,4.076,5.521,5.153
		c0.853,0.755,0.918,0.808,1.383,1.257c0.258,0.24,0.636,0.599,0.84,0.793c0.41,0.391,2.214,2.129,5.25,5.084
		c1.089,1.055,2.078,2,2.183,2.084c0.459,0.371,0.124,0.006-0.954-1.043c-1.656-1.614-4.742-4.629-9.707-9.485
		C12.209,11.027,9.8,8.684,9.233,8.17c-0.553-0.518-1.19-1.1-1.405-1.303l-0.386-0.36l-0.13,0.114L7.188,6.744L7.817,7.35
		C8.16,7.688,9.19,8.666,10.092,9.535z M11.754,13.242c1.816,1.716,3.488,3.262,3.717,3.435c0.388,0.289,0.792,0.494,0.854,0.426
		c0.021-0.013-0.084-0.137-0.233-0.267c-0.15-0.137-1.804-1.717-3.679-3.516c-1.875-1.793-3.568-3.412-3.768-3.584L8.297,9.414
		L8.16,9.541c-0.072,0.074-0.138,0.15-0.138,0.172c0.007,0.017,0.091,0.121,0.205,0.222C8.334,10.039,9.92,11.521,11.754,13.242z
		 M21.695,23.725c0.07-0.195,0.021-0.229-0.174-0.098c-0.244,0.15-0.264,0.27-0.049,0.257
		C21.603,23.877,21.642,23.844,21.695,23.725z M21.261,23.629c0.153-0.094,0.237-0.244,0.153-0.286
		c-0.099-0.052-0.404,0.222-0.332,0.29C21.119,23.666,21.192,23.666,21.261,23.629z M21.076,23.298
		c0.123-0.114,0.148-0.173,0.11-0.226c-0.046-0.039-0.112-0.013-0.229,0.104c-0.119,0.106-0.148,0.17-0.109,0.215
		C20.896,23.441,20.957,23.412,21.076,23.298z M20.724,23.146c0.121-0.08,0.254-0.289,0.209-0.335
		c-0.043-0.055-0.274,0.095-0.353,0.222C20.509,23.148,20.606,23.216,20.724,23.146z M20.459,22.89
		c0.135-0.065,0.238-0.257,0.16-0.299c-0.033-0.019-0.141,0.026-0.222,0.098c-0.127,0.099-0.155,0.15-0.11,0.199
		C20.32,22.914,20.398,22.924,20.459,22.89z M20.223,22.631c0.117-0.064,0.211-0.264,0.148-0.332
		c-0.02-0.02-0.117,0.035-0.207,0.117C19.981,22.591,20.021,22.74,20.223,22.631z M19.949,22.367
		c0.131-0.056,0.164-0.095,0.156-0.205c0-0.137-0.007-0.137-0.13-0.068c-0.151,0.084-0.274,0.257-0.219,0.309
		C19.777,22.422,19.861,22.408,19.949,22.367z M19.677,22.123c0.155-0.092,0.224-0.231,0.155-0.307
		c-0.032-0.039-0.107-0.01-0.221,0.104C19.414,22.094,19.471,22.24,19.677,22.123z M19.471,21.791
		c0.163-0.182,0.141-0.316-0.032-0.202c-0.187,0.124-0.278,0.274-0.18,0.315C19.312,21.931,19.383,21.895,19.471,21.791z
		 M19.103,21.641c0.151-0.072,0.244-0.251,0.177-0.326c-0.039-0.039-0.109-0.012-0.226,0.098
		C18.875,21.582,18.908,21.738,19.103,21.641z M17.345,19.759c0.019-0.046,0-0.046-0.052-0.007
		c-0.047,0.046-0.059,0.082-0.032,0.082C17.283,19.834,17.32,19.799,17.345,19.759z M18.916,21.289
		c0.15-0.172,0.137-0.31-0.022-0.221c-0.168,0.09-0.28,0.289-0.188,0.332C18.75,21.426,18.824,21.387,18.916,21.289z M18.557,21.124
		c0.148-0.089,0.273-0.284,0.201-0.329c-0.032-0.02-0.143,0.035-0.25,0.117c-0.131,0.117-0.17,0.166-0.121,0.211
		C18.412,21.158,18.496,21.152,18.557,21.124z M18.363,20.762c0.102-0.094,0.123-0.148,0.088-0.198
		c-0.067-0.069-0.261,0.035-0.326,0.173C18.055,20.886,18.211,20.898,18.363,20.762z M18.021,20.592
		c0.137-0.088,0.238-0.26,0.18-0.322c-0.037-0.039-0.107-0.007-0.242,0.117c-0.142,0.141-0.166,0.186-0.106,0.212
		C17.898,20.617,17.974,20.611,18.021,20.592z M17.716,20.332c0.151-0.068,0.243-0.244,0.176-0.319
		c-0.039-0.038-0.11-0.017-0.201,0.072C17.494,20.277,17.504,20.443,17.716,20.332z M17.533,19.975
		c0.065-0.072,0.121-0.163,0.102-0.202c-0.036-0.071-0.322,0.089-0.357,0.195C17.244,20.098,17.388,20.101,17.533,19.975z
		 M6.563,9.447c0.195,0.176,0.248,0.188,0.312,0.119c0.096-0.08,0.086-0.094-0.493-0.646C6.05,8.607,5.763,8.347,5.73,8.337
		C5.711,8.33,5.666,8.373,5.627,8.428c-0.062,0.1-0.039,0.13,0.326,0.465C6.166,9.089,6.443,9.343,6.563,9.447z M30.584,35.871
		c0.519,0.467,0.623,0.474,1.146,0.099c0.342-0.247,0.4-0.302,0.473-0.487c0.129-0.336,0-0.312-0.369,0.043
		c-0.204,0.197-0.391,0.342-0.504,0.381c-0.183,0.059-0.178,0.052,0.072-0.192c0.215-0.203,0.26-0.284,0.279-0.479
		c0.042-0.381-0.04-0.563-0.375-0.853c-0.23-0.199-0.339-0.258-0.512-0.265c-0.243-0.016-0.37,0.088-0.715,0.554
		c-0.248,0.339-0.248,0.562-0.008,0.749C30.147,35.476,30.386,35.684,30.584,35.871z M32.664,38.119
		c0.402,0.166,0.539,0.131,0.526-0.137c0-0.238-0.319-0.299-0.729-0.149c-0.122,0.048-0.203,0.094-0.197,0.11
		C32.273,37.955,32.455,38.031,32.664,38.119z M30.09,40.633c0.255-0.175,0.554-0.673,0.809-1.354
		c0.215-0.576,0.228-0.633,0.137-0.873c-0.069-0.183-0.086-0.299-0.018-0.371c0.042-0.059,0.166-0.234,0.283-0.391
		c0.339-0.466,0.371-0.404-0.82-1.511c-1.197-1.106-1.334-1.295-1.113-1.504c0.188-0.179,0.512-0.709,0.554-0.914
		c0.021-0.103-0.003-0.31-0.046-0.466l-0.077-0.28l-0.957-0.865c-0.521-0.469-1.427-1.276-2.002-1.784l-1.045-0.925L25.56,28.96
		c-0.124-0.238-0.231-0.464-0.215-0.505c0.007-0.057-0.28-0.355-1.179-1.183c-0.653-0.614-1.389-1.301-1.631-1.53
		c-0.438-0.402-0.448-0.41-0.565-0.328c-0.056,0.055-0.198,0.137-0.3,0.191c-0.245,0.131-0.238,0.137-1.518-1.061
		c-0.231-0.215-0.515-0.475-0.629-0.586c-0.285-0.258-0.566-0.514-2.246-2.028c-1.389-1.257-1.447-1.319-1.86-1.885
		c-0.238-0.319-0.534-0.759-0.648-0.97c-0.12-0.213-0.341-0.561-0.483-0.766c-0.15-0.205-0.287-0.439-0.319-0.514
		c-0.026-0.102-0.876-0.914-3.595-3.447c-3.008-2.793-3.586-3.3-3.674-3.294c-0.103,0.006-0.254-0.134-1.011-0.915L4.785,9.213
		l0.184-0.225l0.18-0.226L4.998,8.6L4.839,8.437l0.209-0.202l0.208-0.195l0.137,0.146l0.137,0.141l0.241-0.229l0.244-0.229
		l0.392,0.353C6.623,8.421,6.904,8.684,7.033,8.82l0.226,0.241l0.173-0.159l0.176-0.156L6.979,8.15L6.357,7.558L6.48,7.402
		c0.234-0.311,0.848-0.938,0.951-0.99c0.061-0.033,0.137-0.03,0.163,0.006c0.052,0.046,0.123-0.006,0.423-0.332
		c0.205-0.215,0.689-0.729,1.08-1.137L9.814,4.19l0.221,0.007c0.457-0.006,0.69,0.164,0.82,0.6c0.129,0.423-0.164,2.129-0.582,3.398
		l-0.191,0.618l0.307,0.304c0.166,0.166,3.574,3.496,7.578,7.396c3.997,3.903,7.832,7.64,8.509,8.304
		c1.341,1.312,1.562,1.479,1.755,1.297c0.074-0.065,0.123-0.065,0.191,0.002c0.469,0.486,1.57,1.554,1.592,1.561
		c0.018-0.007,0.007-0.066-0.029-0.137c-0.062-0.15-0.078-0.547-0.02-0.605c0.029-0.02,0.059-0.164,0.074-0.311
		c0.05-0.321,0.141-0.424,0.431-0.483c0.166-0.046,0.256-0.019,0.399,0.091c0.164,0.127,0.195,0.127,0.352,0.029
		c0.092-0.068,0.215-0.198,0.287-0.312c0.209-0.4,0.749-0.65,1.003-0.472c0.222,0.156,0.416,0.374,0.399,0.445
		c-0.01,0.039-0.078,0.003-0.178-0.104c-0.156-0.166-0.205-0.17-0.281-0.01c-0.033,0.064,0.013,0.146,0.149,0.286l0.183,0.194
		L32.631,26.5c-0.092,0.107-0.238,0.254-0.329,0.31c-0.159,0.103-0.166,0.123-0.104,0.455c0.056,0.293,0.045,0.362-0.059,0.431
		l-0.117,0.092l0.541,0.521c0.293,0.283,0.58,0.56,0.635,0.604c0.069,0.068,0.121,0.068,0.199-0.01
		c0.081-0.067,0.149-0.08,0.244-0.035c0.191,0.091,0.277,0.338,0.141,0.455c-0.071,0.078-0.071,0.125,0.006,0.203
		c0.078,0.084,0.125,0.084,0.203,0.006c0.08-0.071,0.155-0.084,0.26-0.039c0.209,0.082,0.285,0.321,0.137,0.455
		c-0.091,0.09-0.087,0.11,0.102,0.315l0.198,0.205l-0.479,0.43c-0.336,0.304-0.498,0.417-0.541,0.392c-0.031-0.02-0.1,0-0.148,0.046
		c-0.074,0.061-0.049,0.103,0.156,0.321c0.268,0.283,0.248,0.283,0.699-0.056c0.301-0.231,0.766-0.442,1.479-0.677l0.462-0.163
		l0.208,0.219c0.104,0.117,0.404,0.401,0.651,0.636l0.442,0.41l-0.094,0.221c-0.062,0.111-0.156,0.293-0.23,0.388
		c-0.098,0.13-0.118,0.205-0.059,0.276c0.057,0.092,0.008,0.188-0.346,0.742c-0.229,0.355-0.41,0.647-0.41,0.668
		c0,0.016,0.235,0.236,0.521,0.508c0.357,0.322,0.537,0.518,0.56,0.599c0.021,0.075,0.065,0.144,0.124,0.173
		c0.045,0.02,0.091,0.074,0.094,0.123c0.004,0.059,5.5,5.463,5.594,5.498c0.013,0.007,0.088-0.055,0.158-0.127l0.141-0.137
		l0.576,0.572c0.306,0.312,0.658,0.681,0.768,0.817l0.202,0.244l-0.144,0.084c-0.123,0.082-0.137,0.104-0.072,0.176
		c0.05,0.05,0.08,0.117,0.062,0.153c-0.007,0.035-0.059,0.02-0.113-0.042c-0.06-0.062-0.125-0.087-0.144-0.065
		c-0.032,0.03,0.013,0.092,0.124,0.184c0.163,0.117,0.176,0.148,0.113,0.25c-0.223,0.354-0.686,0.615-0.907,0.492
		c-0.081-0.047-0.163,0.016-0.935,0.754c-0.465,0.439-0.976,0.898-1.129,1.022l-0.287,0.211l-0.113-0.162
		c-0.062-0.092-0.211-0.536-0.336-0.993c-0.129-0.449-0.26-0.826-0.299-0.847c-0.033-0.021-0.14,0.013-0.228,0.075
		c-0.087,0.056-0.201,0.113-0.25,0.12c-0.187,0.036-0.29-0.345-0.349-1.197l-0.06-0.827l-0.536-0.462
		c-0.291-0.251-0.541-0.495-0.558-0.534c-0.006-0.041,0.166-0.222,0.521-0.521l0.521-0.453l-0.357-0.328
		c-0.197-0.183-0.802-0.762-1.349-1.289c-0.54-0.526-1.074-1.028-1.168-1.106c-0.095-0.088-0.199-0.176-0.228-0.209
		c-0.045-0.045-0.102-0.013-0.205,0.117c-0.137,0.166-0.17,0.176-0.553,0.159c-0.229-0.01-0.658-0.088-0.964-0.166
		c-0.729-0.2-1.016-0.243-1.058-0.161c-0.018,0.029-0.137,0.137-0.27,0.228c-0.418,0.293-0.584,0.61-0.877,1.712
		c-0.257,0.977-0.953,2.896-1.058,2.917c-0.198,0.052-1.653-0.679-1.907-0.954l-0.186-0.191L30.09,40.633z"/>
	
		<linearGradient id="SVGID_2_" gradientUnits="userSpaceOnUse" x1="897.999" y1="1681.334" x2="897.999" y2="1634.668" gradientTransform="matrix(1 0 0 1 -873 -1633)">
		<stop  offset="0" style="stop-color:#000000;stop-opacity:0.35"/>
		<stop  offset="0.0975" style="stop-color:#060606;stop-opacity:0.3159"/>
		<stop  offset="0.2216" style="stop-color:#151515;stop-opacity:0.2724"/>
		<stop  offset="0.36" style="stop-color:#2F2F2F;stop-opacity:0.224"/>
		<stop  offset="0.5088" style="stop-color:#545454;stop-opacity:0.1719"/>
		<stop  offset="0.6661" style="stop-color:#838383;stop-opacity:0.1169"/>
		<stop  offset="0.8304" style="stop-color:#BCBCBC;stop-opacity:0.0594"/>
		<stop  offset="0.9977" style="stop-color:#FEFEFE;stop-opacity:8.182824e-04"/>
		<stop  offset="1" style="stop-color:#FFFFFF;stop-opacity:0"/>
	</linearGradient>
	<rect x="1.666" y="1.667" fill="url(#SVGID_2_)" width="46.667" height="46.667"/>
	
		<linearGradient id="SVGID_3_" gradientUnits="userSpaceOnUse" x1="897.999" y1="1681.333" x2="897.999" y2="1634.666" gradientTransform="matrix(1 0 0 1 -873 -1633)">
		<stop  offset="0" style="stop-color:#000000;stop-opacity:0"/>
		<stop  offset="0.3726" style="stop-color:#020202;stop-opacity:0.205"/>
		<stop  offset="0.5069" style="stop-color:#090909;stop-opacity:0.2788"/>
		<stop  offset="0.6026" style="stop-color:#141414;stop-opacity:0.3314"/>
		<stop  offset="0.68" style="stop-color:#252525;stop-opacity:0.374"/>
		<stop  offset="0.7463" style="stop-color:#3B3B3B;stop-opacity:0.4104"/>
		<stop  offset="0.805" style="stop-color:#575757;stop-opacity:0.4427"/>
		<stop  offset="0.8581" style="stop-color:#777777;stop-opacity:0.472"/>
		<stop  offset="0.9069" style="stop-color:#9D9D9D;stop-opacity:0.4988"/>
		<stop  offset="0.9523" style="stop-color:#C8C8C8;stop-opacity:0.5238"/>
		<stop  offset="0.9926" style="stop-color:#F6F6F6;stop-opacity:0.5459"/>
		<stop  offset="1" style="stop-color:#FFFFFF;stop-opacity:0.55"/>
	</linearGradient>
	<rect x="1.666" y="1.666" fill="url(#SVGID_3_)" width="46.667" height="46.667"/>
</g>
</svg>
