<?xml version="1.0" encoding="utf-8"?>
<!-- Generator: Adobe Illustrator 16.0.0, SVG Export Plug-In . SVG Version: 6.00 Build 0)  -->
<!DOCTYPE svg PUBLIC "-//W3C//DTD SVG 1.1//EN" "http://www.w3.org/Graphics/SVG/1.1/DTD/svg11.dtd">
<svg version="1.1" id="Layer_1" xmlns="http://www.w3.org/2000/svg" xmlns:xlink="http://www.w3.org/1999/xlink" x="0px" y="0px"
	 width="50px" height="50px" viewBox="0 0 50 50" enable-background="new 0 0 50 50" xml:space="preserve">
<g id="smg">
	<g>
		<rect x="1.008" y="1.346" fill="#330066" width="46.667" height="46.666"/>
		<g id="stroke">
			<path fill="#660000" d="M47.674,1.246v46.762H1.007V1.246H47.674 M49.341-0.426h-1.137H2.747h-3.406v1.139V46.26v3.418h3.406
				h45.458h1.136v-3.41V0.715V-0.426L49.341-0.426z"/>
			
				<linearGradient id="SVGID_1_" gradientUnits="userSpaceOnUse" x1="897.3398" y1="1696.6777" x2="897.3398" y2="1646.5742" gradientTransform="matrix(1 0 0 1 -873 -1647)">
				<stop  offset="0" style="stop-color:#333333;stop-opacity:0.3"/>
				<stop  offset="0.2701" style="stop-color:#353535;stop-opacity:0.4215"/>
				<stop  offset="0.4166" style="stop-color:#3D3D3D;stop-opacity:0.4875"/>
				<stop  offset="0.5336" style="stop-color:#4B4B4B;stop-opacity:0.5401"/>
				<stop  offset="0.635" style="stop-color:#5E5E5E;stop-opacity:0.5857"/>
				<stop  offset="0.7262" style="stop-color:#787878;stop-opacity:0.6268"/>
				<stop  offset="0.8101" style="stop-color:#979797;stop-opacity:0.6646"/>
				<stop  offset="0.8885" style="stop-color:#BBBBBB;stop-opacity:0.6998"/>
				<stop  offset="0.9606" style="stop-color:#E5E5E5;stop-opacity:0.7323"/>
				<stop  offset="1" style="stop-color:#FFFFFF;stop-opacity:0.75"/>
			</linearGradient>
			<path fill="url(#SVGID_1_)" d="M47.674,1.246v46.762H1.007V1.246H47.674 M49.341-0.426h-1.137H2.747h-3.406v1.139V46.26v3.418
				h3.406h45.458h1.136v-3.41V0.715V-0.426L49.341-0.426z"/>
		</g>
	</g>
	<path id="gun_1_" fill="#231F20" d="M7.699,25.916c0.238,0.027,0.272,0.016,0.199-0.059c-0.111-0.09-0.574-0.09-0.697,0.008
		c-0.06,0.041-0.047,0.059,0.067,0.039C7.346,25.893,7.537,25.898,7.699,25.916z M24.468,14.01
		c-0.026-0.035-0.015-0.191,0.034-0.346c0.065-0.232,0.065-0.264-0.034-0.191c-0.106,0.08-0.253,0.623-0.197,0.705
		C24.328,14.25,24.521,14.078,24.468,14.01z M9.832,25.215c0.026,0.006,0.018-0.033-0.023-0.088
		c-0.047-0.057-0.066-0.061-0.055-0.002C9.769,25.164,9.805,25.211,9.832,25.215z M24.474,14.336c0.03-0.02,0.034-0.066,0.015-0.092
		c-0.027-0.029-0.06-0.023-0.072,0.016c-0.019,0.041-0.021,0.08-0.012,0.094C24.416,14.367,24.444,14.357,24.474,14.336z
		 M17.397,20.342c0.101-0.076,0.13-0.117,0.075-0.094c-0.061,0.023-0.141,0.084-0.178,0.129
		C17.254,20.428,17.301,20.412,17.397,20.342z M17.992,19.799c0.043-0.146,0.037-0.146-0.07-0.07
		c-0.062,0.043-0.096,0.127-0.077,0.176C17.873,20.031,17.935,19.988,17.992,19.799z M18.441,19.562
		c0.08-0.066,0.104-0.098,0.042-0.07c-0.06,0.02-0.124,0.072-0.153,0.109C18.312,19.645,18.354,19.621,18.441,19.562z
		 M22.248,17.293c1.299-0.994,1.58-1.256,1.322-1.232c-0.115,0.01-6.982,5.164-6.992,5.25c-0.011,0.037,0.023,0.078,0.073,0.08
		C16.738,21.404,19.929,19.068,22.248,17.293z M11.395,25.971c0.036-0.088,0.025-0.096-0.047-0.043
		c-0.045,0.027-0.083,0.094-0.08,0.137C11.273,26.158,11.34,26.107,11.395,25.971z M11.778,25.678
		c0.052-0.098,0.036-0.092-0.104,0.006c-0.1,0.072-0.143,0.131-0.103,0.148C11.654,25.865,11.685,25.846,11.778,25.678z
		 M12.621,25.027c0.018-0.043-0.148,0.057-0.373,0.217c-0.221,0.174-0.377,0.312-0.351,0.314
		C11.978,25.564,12.584,25.125,12.621,25.027z M16.895,22.434c0.007-0.07,0.08-0.184,0.168-0.254c0.293-0.242,1.133-0.832,1.32-0.93
		c0.1-0.053,0.166-0.119,0.152-0.139c-0.021-0.023,0.217-0.227,0.521-0.441c0.312-0.217,0.604-0.467,0.653-0.557
		c0.076-0.121,0.134-0.158,0.227-0.15c0.109,0.004,0.133-0.014,0.124-0.102c-0.003-0.068,0.01-0.084,0.039-0.047
		c0.03,0.037,0.106,0,0.22-0.096c0.098-0.086,0.25-0.176,0.338-0.193c0.113-0.023,0.16-0.064,0.17-0.137
		c0.01-0.062,0.058-0.139,0.103-0.17c0.051-0.037,0.073-0.104,0.063-0.146c-0.017-0.066,0-0.072,0.073-0.053
		c0.083,0.021,0.099,0.01,0.073-0.078c-0.029-0.107-0.02-0.113,0.152-0.123c0.203-0.016,0.41-0.141,0.354-0.213
		c-0.021-0.031,0.007-0.076,0.056-0.115c0.154-0.105,2.008-1.609,2.158-1.752c0.071-0.07,0.192-0.178,0.256-0.232
		c0.116-0.102,0.113-0.102-0.058-0.031c-0.183,0.076-2.386,1.701-6.285,4.623c-4.923,3.695-5.094,3.83-5.058,3.891
		c0.023,0.025,0.08,0.006,0.128-0.055c0.042-0.053,0.089-0.082,0.104-0.062c0.018,0.016,0.141-0.055,0.28-0.156
		c0.14-0.104,0.267-0.178,0.28-0.152c0.037,0.055,0.33-0.174,0.324-0.252c-0.004-0.033,0.14-0.141,0.32-0.242
		c1.02-0.568,1.323-0.75,1.562-0.912c0.166-0.115,0.299-0.168,0.367-0.143c0.08,0.031,0.094,0.021,0.053-0.029
		c-0.036-0.057,0-0.098,0.14-0.166c0.104-0.049,0.231-0.117,0.276-0.15c0.044-0.035,0.113-0.053,0.15-0.035
		C16.795,22.66,16.885,22.574,16.895,22.434z M34.59,11.385c-0.07-0.178-0.146-0.203-0.215-0.086
		c-0.035,0.057-0.006,0.121,0.072,0.191C34.604,11.635,34.676,11.584,34.59,11.385z M24.32,19.357
		c0.061-0.047,0.062-0.066,0.008-0.053c-0.045,0.012-0.086,0.051-0.094,0.076C24.231,19.414,24.268,19.4,24.32,19.357z
		 M12.65,28.277c0.026-0.021,0.029-0.061,0.014-0.088c-0.023-0.029-0.063-0.035-0.09-0.012c-0.029,0.02-0.033,0.059-0.01,0.088
		C12.584,28.289,12.621,28.297,12.65,28.277z M14.912,26.578c0.043-0.035,0.049-0.066,0.01-0.084
		c-0.066-0.021-0.144,0.068-0.106,0.123C14.82,26.627,14.865,26.615,14.912,26.578z M15.269,26.309
		c0.058-0.045,0.058-0.072,0.007-0.053c-0.051,0.014-0.095,0.047-0.098,0.078C15.174,26.361,15.211,26.354,15.269,26.309z
		 M15.552,26.107c0.183-0.145,0.116-0.184-0.089-0.062c-0.078,0.043-0.125,0.102-0.104,0.135
		C15.373,26.201,15.465,26.164,15.552,26.107z M15.924,25.814c0.058-0.047,0.061-0.066,0.004-0.053
		c-0.042,0.014-0.086,0.053-0.09,0.078S15.873,25.859,15.924,25.814z M20.139,22.654c0.057-0.047,0.062-0.066,0.006-0.053
		c-0.051,0.018-0.089,0.047-0.093,0.08C20.045,22.711,20.082,22.701,20.139,22.654z M19.854,22.871
		c0.069-0.1,0.017-0.076-0.213,0.082c-0.42,0.301-2.884,2.145-3.222,2.424c-0.246,0.193-0.252,0.211-0.066,0.121
		C16.631,25.365,19.731,23.041,19.854,22.871z M21.506,21.623c0-0.035-0.293,0.154-0.643,0.42c-0.355,0.258-0.63,0.494-0.611,0.516
		C20.287,22.609,21.512,21.697,21.506,21.623z M34.24,12.564c0.032-0.02,0.035-0.062,0.014-0.09
		c-0.021-0.031-0.062-0.033-0.086-0.01c-0.028,0.02-0.031,0.062-0.017,0.088C34.174,12.578,34.213,12.584,34.24,12.564z
		 M37.847,10.016c-0.007-0.045-0.054-0.086-0.104-0.098c-0.106-0.012-0.168,0.113-0.091,0.215
		C37.715,10.215,37.853,10.135,37.847,10.016z M26.056,19.406c0.028-0.016,0.036-0.055,0.014-0.082
		c-0.021-0.029-0.062-0.033-0.088-0.014c-0.028,0.02-0.032,0.061-0.014,0.086C25.987,19.426,26.031,19.436,26.056,19.406z
		 M25.84,19.65c0.029-0.02,0.027-0.066-0.006-0.113c-0.028-0.039-0.078-0.057-0.106-0.037c-0.026,0.021-0.026,0.074,0.006,0.113
		C25.77,19.658,25.815,19.674,25.84,19.65z M26.521,19.096c0.042-0.004,0.075-0.041,0.068-0.086
		c-0.008-0.115-0.117-0.115-0.131,0.002C26.453,19.068,26.465,19.102,26.521,19.096z M13.062,29.459
		c0.069-0.057,0.086-0.086,0.044-0.074c-0.044,0.016-0.102,0.055-0.124,0.094C12.957,29.521,12.992,29.516,13.062,29.459z
		 M13.437,29.271c0.038-0.033,0.062-0.078,0.044-0.098c-0.02-0.027-0.08-0.037-0.137-0.021c-0.055,0.021-0.073,0.059-0.039,0.102
		C13.334,29.295,13.395,29.303,13.437,29.271z M16.138,27.162c-0.003-0.039-0.236,0.102-0.599,0.381
		c-0.328,0.244-0.582,0.445-0.561,0.449C15.064,27.994,16.145,27.227,16.138,27.162z M16.299,27.125
		c0.022-0.021,0.045-0.07,0.041-0.109c-0.002-0.043-0.038-0.049-0.086-0.018c-0.043,0.035-0.062,0.084-0.043,0.109
		C16.231,27.135,16.273,27.145,16.299,27.125z M16.599,26.822c-0.044-0.012-0.114,0-0.156,0.039
		c-0.073,0.061-0.069,0.066,0.026,0.061C16.615,26.908,16.682,26.859,16.599,26.822z M16.812,26.742
		c0.022-0.018,0.036-0.068,0.036-0.107c-0.003-0.039-0.057-0.039-0.112,0.006c-0.057,0.047-0.073,0.092-0.038,0.104
		C16.734,26.764,16.785,26.762,16.812,26.742z M22.305,22.541c-0.023-0.029-0.999,0.666-2.739,1.977
		c-1.728,1.297-2.671,2.023-2.614,2.031C17.117,26.578,22.375,22.639,22.305,22.541z M38.328,11.064
		c0.053-0.018,0.039-0.074-0.021-0.16c-0.068-0.086-0.121-0.111-0.153-0.066c-0.026,0.037-0.013,0.109,0.026,0.158
		C38.218,11.051,38.283,11.08,38.328,11.064z M28.182,18.646c-0.036-0.041-0.075-0.049-0.092-0.01
		c-0.014,0.045,0.004,0.084,0.043,0.102C28.228,18.771,28.25,18.738,28.182,18.646z M28.442,18.574
		c0.029-0.02,0.025-0.074-0.01-0.119c-0.033-0.041-0.067-0.045-0.082-0.006c-0.021,0.035-0.013,0.088,0.004,0.115
		C28.373,18.592,28.414,18.6,28.442,18.574z M29.402,17.855c0.032-0.021,0.039-0.068,0.018-0.09
		c-0.023-0.031-0.057-0.035-0.088-0.016c-0.029,0.021-0.033,0.062-0.014,0.088C29.34,17.867,29.383,17.867,29.402,17.855z
		 M19.588,25.84c0.06-0.051,0.06-0.068,0.006-0.057c-0.045,0.018-0.086,0.049-0.09,0.082C19.498,25.893,19.537,25.885,19.588,25.84z
		 M9.631,36.086c0.063-0.045-0.008-0.221-0.084-0.211c-0.108,0.01-0.137,0.135-0.039,0.195C9.556,36.1,9.61,36.107,9.631,36.086z
		 M16.389,31.387c0.096,0.039,0.104,0.025,0.035-0.105c-0.079-0.17-0.219-0.205-0.172-0.045
		C16.262,31.287,16.324,31.357,16.389,31.387z M22.104,27.193c0.083-0.061,0.104-0.09,0.047-0.068
		c-0.061,0.027-0.13,0.076-0.152,0.115C21.975,27.275,22.021,27.26,22.104,27.193z M11.858,37.109
		c0.134-0.094,0.192-0.221,0.252-0.531c0.05-0.225,0.161-0.621,0.253-0.889c0.094-0.268,0.145-0.488,0.114-0.49
		c-0.078-0.014-1.25,0.879-1.377,1.045c-0.091,0.123-0.08,0.162,0.127,0.473c0.13,0.186,0.283,0.381,0.347,0.432
		C11.664,37.221,11.725,37.213,11.858,37.109z M25.274,28.021l1.013-0.775l0.049-0.268l0.05-0.264l-0.677-0.875l-0.674-0.869
		l-0.931,0.699l-0.933,0.703l0.133,0.373c0.242,0.697,0.648,0.994,1.309,0.947c0.309-0.02,0.309-0.02,0.188,0.098
		c-0.072,0.066-0.258,0.139-0.406,0.166c-0.57,0.096-1.104-0.172-1.307-0.658c-0.192-0.457-0.187-0.453-0.586-0.133l-0.356,0.291
		l0.672,0.9c0.368,0.488,0.705,0.898,0.744,0.902C23.641,29.273,23.824,29.141,25.274,28.021z M25.064,31.789
		c0.029,0-0.257-0.408-0.636-0.914c-0.384-0.516-0.707-0.908-0.718-0.877c-0.014,0.027,0.276,0.438,0.642,0.916
		C24.715,31.393,25.035,31.783,25.064,31.789z M25.274,32.07c0.036,0.02,0.021-0.021-0.047-0.111
		c-0.065-0.076-0.097-0.1-0.069-0.045C25.181,31.979,25.228,32.047,25.274,32.07z M25.498,32.375
		c0.041,0.021,0.022-0.025-0.047-0.105c-0.06-0.086-0.094-0.105-0.066-0.043C25.406,32.281,25.461,32.35,25.498,32.375z
		 M25.994,33.033c0.043,0.027,0.029-0.012-0.021-0.078c-0.053-0.07-0.085-0.09-0.072-0.045
		C25.906,32.949,25.955,33.008,25.994,33.033z M26.678,33.949c0.042,0.021,0.021-0.029-0.042-0.107
		c-0.068-0.084-0.099-0.1-0.072-0.043C26.59,33.857,26.642,33.926,26.678,33.949z M30.406,42.109
		c-1.311,0.932-1.453,1.01-1.603,0.938c-0.072-0.039-0.89-1.119-2.246-2.994c-1.175-1.621-2.153-2.955-2.181-2.969
		c-0.033-0.008-0.155,0.031-0.272,0.092c-0.356,0.188-0.716,0.158-1.237-0.086c-0.264-0.123-0.506-0.254-0.547-0.293
		c-0.035-0.035-0.133-0.123-0.216-0.195c-0.347-0.295-1.181-1.242-1.603-1.822c-0.338-0.469-0.51-0.762-0.678-1.172
		c-0.209-0.521-0.229-0.553-0.382-0.582c-0.137-0.027-0.248-0.146-0.763-0.838c-0.514-0.676-0.598-0.82-0.588-0.957
		c0.023-0.273-0.17-0.285-0.545-0.029l-0.324,0.219l0.072,0.307c0.037,0.166,0.058,0.332,0.045,0.365
		c-0.041,0.109-0.436,0.049-0.592-0.084c-0.113-0.104-0.152-0.105-0.199-0.027c-0.026,0.059-0.37,0.365-0.764,0.689
		c-0.387,0.316-0.714,0.588-0.714,0.6c-0.006,0.01,0.013,0.053,0.052,0.092c0.031,0.049-0.031,0.143-0.222,0.318
		c-1.302,1.205-1.916,2.613-1.932,4.434c-0.003,0.535-0.101,0.986-0.261,1.238c-0.041,0.051,0.055,0.303,0.281,0.768
		c0.188,0.375,0.33,0.725,0.323,0.766c-0.019,0.135-0.578,0.219-0.95,0.146c-0.189-0.039-0.363-0.086-0.381-0.104
		c-0.143-0.152-0.666-0.803-1.756-2.189c-0.697-0.891-1.343-1.709-1.426-1.814c-0.124-0.146-0.158-0.268-0.155-0.541
		c0-0.324-0.032-0.424-0.343-0.982c-0.62-1.094-0.656-1.189-0.59-1.51c0.052-0.248,0.027-0.361-0.189-0.873
		c-0.14-0.322-0.293-0.678-0.35-0.787c-0.12-0.254-0.051-0.752,0.134-0.928c0.073-0.068,0.149-0.166,0.167-0.205
		c0.013-0.053-0.188-0.365-0.598-0.896c-0.512-0.668-0.637-0.861-0.666-1.039c-0.021-0.129-0.125-0.344-0.252-0.514
		c-0.354-0.469-0.42-0.736-0.334-1.221c0.045-0.244,0.1-0.561,0.127-0.713c0.039-0.244,0.09-0.312,0.42-0.605
		c0.434-0.377,0.677-0.482,1.156-0.488c0.444-0.006,0.885,0.223,1.178,0.611c0.127,0.17,0.254,0.293,0.279,0.271
		c0.031-0.023,0.084,0.01,0.127,0.062c0.045,0.055,0.168,0.117,0.287,0.143l0.207,0.043l0.079-0.219l0.084-0.221l-0.228-0.164
		c-0.236-0.162-0.819-0.82-0.889-1c-0.021-0.061-0.019-0.127,0.01-0.145c0.029-0.02,0.06-0.104,0.072-0.178
		c0.023-0.186,0.566-0.596,0.607-0.455c0.018,0.059,0.052,0.082,0.08,0.062c0.023-0.018,0.02-0.068-0.016-0.113
		c-0.049-0.066-0.002-0.109,0.285-0.283c0.517-0.316,0.477-0.324,0.78,0.133c0.177,0.258,0.257,0.424,0.229,0.486
		c-0.023,0.064,0.01,0.131,0.093,0.203c0.075,0.061,0.19,0.164,0.264,0.227c0.077,0.066,0.197,0.15,0.272,0.191
		c0.141,0.07,0.156,0.062,1.072-0.627c0.541-0.404,0.969-0.76,1.027-0.854c0.117-0.197,1.338-1.104,1.551-1.164
		c0.141-0.041,0.146-0.033,0.026,0.174c-0.136,0.246-0.166,0.266,0.884-0.5c0.77-0.564,0.945-0.73,0.75-0.717
		c-0.05,0.01-0.07-0.041-0.061-0.123c0.017-0.08-0.049-0.227-0.164-0.385c-0.1-0.129-0.172-0.271-0.159-0.307
		s0.13-0.162,0.265-0.283c0.231-0.215,0.235-0.215,0.402-0.082c0.227,0.18,0.35,0.104,0.293-0.189
		c-0.047-0.227-0.037-0.24,0.223-0.428c0.248-0.174,0.291-0.188,0.381-0.098c0.144,0.146,0.39-0.039,0.338-0.252
		c-0.028-0.121,0.009-0.188,0.168-0.307c0.283-0.217,0.42-0.23,0.558-0.051c0.069,0.092,0.127,0.129,0.144,0.084
		c0.013-0.045-0.004-0.084-0.041-0.096c-0.033-0.016-0.014-0.061,0.047-0.107c0.062-0.051,0.09-0.131,0.057-0.203
		c-0.023-0.068-0.023-0.145,0.003-0.17c0.442-0.42,0.537-0.451,0.767-0.244c0.144,0.127,0.293,0.111,0.197-0.02
		c-0.031-0.039-0.031-0.109,0-0.152c0.026-0.053,0.026-0.125-0.003-0.168c-0.034-0.049-0.01-0.109,0.063-0.166
		c0.065-0.057,0.179-0.16,0.246-0.24c0.11-0.125,0.152-0.133,0.32-0.045c0.141,0.068,0.184,0.115,0.153,0.162
		c-0.021,0.039,0.021,0.029,0.083-0.016c0.08-0.057,0.111-0.148,0.091-0.299c-0.03-0.209-0.015-0.23,0.259-0.418
		c0.273-0.18,0.299-0.186,0.41-0.068c0.184,0.195,0.36-0.01,0.277-0.305c-0.02-0.062,0.044-0.164,0.174-0.273
		c0.283-0.236,0.427-0.277,0.531-0.137c0.052,0.066,0.141,0.102,0.197,0.086c0.061-0.016,0.107-0.039,0.104-0.049
		c-0.088-0.316-0.05-0.463,0.166-0.646c0.124-0.104,0.26-0.189,0.312-0.184c0.041,0.002,0.223,0.172,0.392,0.365l0.313,0.357
		l0.228-0.203c0.127-0.113,0.243-0.184,0.29-0.164c0.082,0.029,0.336-0.133,0.429-0.275c0.067-0.115-0.038-0.332-0.426-0.875
		c-0.257-0.361-0.296-0.455-0.304-0.729c-0.03-0.637,0.431-1.236,1.043-1.373c0.269-0.064,1.063,0.068,1.406,0.225
		c0.088,0.041,0.344,0.277,0.559,0.527c0.219,0.252,0.484,0.535,0.594,0.627l0.201,0.166l2.564-1.898l2.565-1.908l0.221,0.027
		c0.156,0.021,0.241-0.01,0.29-0.09c0.068-0.107,0.042-0.16-0.628-1.055c-0.858-1.143-0.862-1.148-0.319-1.502
		c0.385-0.25,0.428-0.24,0.893,0.137c0.449,0.367,1.921,2.16,2.09,2.545c0.163,0.381,0.293,0.441,0.41,0.195
		c0.056-0.109,0.201-0.236,0.494-0.428c0.234-0.146,1.459-1.01,2.716-1.918c1.263-0.904,2.38-1.709,2.479-1.785
		c0.17-0.113,0.231-0.119,0.403-0.033c0.272,0.129,0.84,0.871,0.905,1.17l0.039,0.207l-2.104,1.59
		c-1.158,0.871-2.136,1.615-2.182,1.656c-0.059,0.051-0.055,0.111,0.02,0.211c0.111,0.143,0.15,0.459,0.072,0.52
		c-0.023,0.018-0.209,0.002-0.414-0.025c-0.299-0.049-0.361-0.041-0.354,0.053c0.007,0.1-0.026,0.117-0.213,0.141
		c-0.123,0.02-0.27,0.066-0.328,0.105c-0.055,0.045-0.17,0.088-0.24,0.102c-0.163,0.02-0.364,0.232-0.307,0.316
		c0.021,0.027,0.234,0.08,0.481,0.117c0.442,0.062,0.449,0.068,0.681,0.375c0.367,0.502,0.664,1.078,0.647,1.277
		c-0.021,0.145,0.06,0.287,0.469,0.875c0.271,0.389,0.495,0.758,0.519,0.82c0.041,0.166-0.146,0.414-0.342,0.449
		c-0.291,0.049-0.527-0.078-1.062-0.564c-0.789-0.721-0.654-0.744-2.098,0.361l-1.194,0.898l0.056,0.277
		c0.062,0.299-0.021,0.217,1.194,1.25c0.272,0.232,0.586,0.613,1.507,1.84c1.491,1.984,2.188,3.023,2.176,3.225
		c-0.033,0.242-0.404,0.625-1.16,1.146c-0.705,0.488-1.179,0.709-1.465,0.67c-0.109-0.014-0.332-0.275-1.468-1.803
		c-1.61-2.156-1.931-2.682-2.549-4.195c-0.156-0.385-0.229-0.492-0.378-0.598l-0.188-0.131l-0.463,0.307
		c-0.248,0.166-0.509,0.332-0.57,0.371c-0.055,0.035-0.162,0.148-0.243,0.242c-0.124,0.156-0.13,0.203-0.029,0.367
		c0.062,0.107,0.11,0.26,0.099,0.344c-0.018,0.193-0.244,0.355-0.453,0.32c-0.215-0.047-0.357,0.062-0.299,0.223
		c0.02,0.068,0.02,0.15-0.014,0.178c-0.254,0.232-0.361,0.291-0.566,0.281c-0.287-0.021-0.346,0.025-0.377,0.305
		c-0.021,0.191-0.057,0.238-0.231,0.334c-0.117,0.055-0.279,0.082-0.354,0.055c-0.195-0.064-0.41,0.105-0.349,0.266
		c0.095,0.232-0.304,0.525-0.615,0.453c-0.188-0.039-0.416,0.104-0.332,0.217c0.065,0.082-0.059,0.324-0.228,0.447
		c-0.057,0.041-0.198,0.059-0.312,0.039c-0.275-0.055-0.501,0.107-0.402,0.279c0.059,0.107,0.039,0.156-0.137,0.309
		c-0.166,0.145-0.242,0.17-0.421,0.137c-0.282-0.053-0.505,0.102-0.407,0.281c0.065,0.111,0.047,0.143-0.166,0.279
		c-0.133,0.086-0.289,0.156-0.349,0.148c-0.062,0-0.112,0.014-0.112,0.033c-0.004,0.018,0.27,0.42,0.604,0.891
		c0.713,1.002,0.765,1.164,0.532,1.635c-0.137,0.271-0.19,0.318-1.553,1.34l-1.414,1.062l1.521,2.012
		c1.447,1.914,1.527,2.012,1.746,2.104c0.173,0.068,0.264,0.152,0.375,0.342c0.179,0.303,0.169,0.375-0.064,0.609L27.1,35.068
		l0.827,1.178c0.454,0.645,1.444,2.016,2.2,3.047c0.762,1.029,1.387,1.908,1.394,1.959C31.528,41.291,31.211,41.537,30.406,42.109z"
		/>
	
		<linearGradient id="SVGID_2_" gradientUnits="userSpaceOnUse" x1="606.3418" y1="-772.9585" x2="606.3418" y2="-726.293" gradientTransform="matrix(1 0 0 -1 -582 -725)">
		<stop  offset="0" style="stop-color:#000000;stop-opacity:0.35"/>
		<stop  offset="0.0975" style="stop-color:#060606;stop-opacity:0.3159"/>
		<stop  offset="0.2216" style="stop-color:#151515;stop-opacity:0.2724"/>
		<stop  offset="0.36" style="stop-color:#2F2F2F;stop-opacity:0.224"/>
		<stop  offset="0.5088" style="stop-color:#545454;stop-opacity:0.1719"/>
		<stop  offset="0.6661" style="stop-color:#838383;stop-opacity:0.1169"/>
		<stop  offset="0.8304" style="stop-color:#BCBCBC;stop-opacity:0.0594"/>
		<stop  offset="0.9977" style="stop-color:#FEFEFE;stop-opacity:8.182824e-04"/>
		<stop  offset="1" style="stop-color:#FFFFFF;stop-opacity:0"/>
	</linearGradient>
	<rect x="1.008" y="1.293" fill="url(#SVGID_2_)" width="46.667" height="46.666"/>
	
		<linearGradient id="SVGID_3_" gradientUnits="userSpaceOnUse" x1="606.3418" y1="-773.0112" x2="606.3418" y2="-726.3457" gradientTransform="matrix(1 0 0 -1 -582 -725)">
		<stop  offset="0" style="stop-color:#000000;stop-opacity:0"/>
		<stop  offset="0.3726" style="stop-color:#020202;stop-opacity:0.205"/>
		<stop  offset="0.5069" style="stop-color:#090909;stop-opacity:0.2788"/>
		<stop  offset="0.6026" style="stop-color:#141414;stop-opacity:0.3314"/>
		<stop  offset="0.68" style="stop-color:#252525;stop-opacity:0.374"/>
		<stop  offset="0.7463" style="stop-color:#3B3B3B;stop-opacity:0.4104"/>
		<stop  offset="0.805" style="stop-color:#575757;stop-opacity:0.4427"/>
		<stop  offset="0.8581" style="stop-color:#777777;stop-opacity:0.472"/>
		<stop  offset="0.9069" style="stop-color:#9D9D9D;stop-opacity:0.4988"/>
		<stop  offset="0.9523" style="stop-color:#C8C8C8;stop-opacity:0.5238"/>
		<stop  offset="0.9926" style="stop-color:#F6F6F6;stop-opacity:0.5459"/>
		<stop  offset="1" style="stop-color:#FFFFFF;stop-opacity:0.55"/>
	</linearGradient>
	<rect x="1.008" y="1.346" fill="url(#SVGID_3_)" width="46.667" height="46.666"/>
</g>
</svg>
