<?xml version="1.0" encoding="utf-8"?>
<!-- Generator: Adobe Illustrator 16.0.0, SVG Export Plug-In . SVG Version: 6.00 Build 0)  -->
<!DOCTYPE svg PUBLIC "-//W3C//DTD SVG 1.1//EN" "http://www.w3.org/Graphics/SVG/1.1/DTD/svg11.dtd">
<svg version="1.1" id="Layer_1" xmlns="http://www.w3.org/2000/svg" xmlns:xlink="http://www.w3.org/1999/xlink" x="0px" y="0px"
	 width="50px" height="50px" viewBox="0 0 50 50" enable-background="new 0 0 50 50" xml:space="preserve">
<g id="Rifle">
	<g>
		<rect x="1.667" y="1.667" fill="#660000" width="46.667" height="46.667"/>
		<g id="stroke_3_">
			<path fill="#660000" d="M48.333,1.667v46.667H1.666V1.667H48.333 M50,0h-1.137H3.411H0v1.136v45.459V50h3.412h45.453H50v-3.405
				V1.136V0L50,0z"/>
			
				<linearGradient id="SVGID_1_" gradientUnits="userSpaceOnUse" x1="898" y1="1683" x2="898" y2="1633" gradientTransform="matrix(1 0 0 1 -873 -1633)">
				<stop  offset="0" style="stop-color:#333333;stop-opacity:0.3"/>
				<stop  offset="0.2701" style="stop-color:#353535;stop-opacity:0.4215"/>
				<stop  offset="0.4166" style="stop-color:#3D3D3D;stop-opacity:0.4875"/>
				<stop  offset="0.5336" style="stop-color:#4B4B4B;stop-opacity:0.5401"/>
				<stop  offset="0.635" style="stop-color:#5E5E5E;stop-opacity:0.5857"/>
				<stop  offset="0.7262" style="stop-color:#787878;stop-opacity:0.6268"/>
				<stop  offset="0.8101" style="stop-color:#979797;stop-opacity:0.6646"/>
				<stop  offset="0.8885" style="stop-color:#BBBBBB;stop-opacity:0.6998"/>
				<stop  offset="0.9606" style="stop-color:#E5E5E5;stop-opacity:0.7323"/>
				<stop  offset="1" style="stop-color:#FFFFFF;stop-opacity:0.75"/>
			</linearGradient>
			<path fill="url(#SVGID_1_)" d="M48.333,1.667v46.667H1.666V1.667H48.333 M50,0h-1.137H3.411H0v1.136v45.459V50h3.412h45.453H50
				v-3.405V1.136V0L50,0z"/>
		</g>
	</g>
	<path id="gun_3_" fill="#0033CC" d="M41.036,7.434c0.006-0.013,0.02-0.023,0.032-0.023c0.006,0,0.003,0.011-0.021,0.026
		C41.029,7.457,41.022,7.457,41.036,7.434z M40.775,7.643c-0.015-0.01-0.007-0.023,0.011-0.036c0.012-0.006,0.028-0.013,0.028-0.013
		c0.007,0.006,0,0.02-0.013,0.039C40.792,7.646,40.778,7.652,40.775,7.643z M40.581,7.806c-0.011-0.007-0.011-0.022,0-0.03
		c0.012-0.006,0.024-0.006,0.031,0c0.008,0.014,0.008,0.026-0.007,0.033C40.6,7.814,40.585,7.814,40.581,7.806z M16.526,27.824
		c-0.016-0.02-0.016-0.028,0.003-0.02c0.013,0.006,0.026,0.021,0.026,0.032C16.55,27.848,16.536,27.841,16.526,27.824z
		 M17.091,27.47c-0.053,0.015-0.062,0.015-0.03-0.013c0.036-0.039,0.101-0.06,0.114-0.039C17.191,27.435,17.171,27.449,17.091,27.47
		z M19.255,25.719c-0.049,0.021-0.049,0.02,0.017-0.039c0.052-0.046,0.078-0.062,0.078-0.046
		C19.355,25.667,19.343,25.68,19.255,25.719z M17.757,27.232c-0.031,0.004-0.031,0-0.006-0.021c0.014-0.014,0.033-0.014,0.039-0.008
		C17.807,27.226,17.807,27.226,17.757,27.232z M17.233,27.65c-0.016-0.023-0.016-0.023,0.003-0.018
		c0.017,0.007,0.022,0.021,0.022,0.031C17.259,27.675,17.247,27.669,17.233,27.65z M18.366,26.761c-0.042,0.006-0.039,0.006,0-0.029
		c0.026-0.022,0.045-0.028,0.045-0.017c0.006,0.017,0.006,0.025,0,0.025C18.411,26.746,18.386,26.754,18.366,26.761z M17.702,27.414
		c-0.006-0.017,0-0.028,0-0.028c0.006-0.007,0.014,0,0.023,0.006c0.006,0.011,0.003,0.022-0.003,0.033
		C17.716,27.431,17.708,27.428,17.702,27.414z M25.04,17.184c-0.039-0.039-0.014,0,0.049,0.072c0.064,0.078,0.088,0.104,0.064,0.064
		C25.12,17.275,25.071,17.217,25.04,17.184z M18.005,25.647c-0.049-0.06,0.006-0.11,0.85-0.808c0.456-0.381,0.833-0.703,0.833-0.717
		c0-0.029-0.241-0.315-0.267-0.315c-0.01,0-0.102,0.062-0.195,0.14c-0.163,0.131-0.186,0.146-0.244,0.271l-0.068,0.134l-0.479,0.396
		l-0.479,0.399l-0.131,0.026c-0.111,0.025-0.144,0.042-0.287,0.156c-0.221,0.191-0.221,0.191-0.074,0.361
		c0.074,0.09,0.129,0.146,0.148,0.146c0.023,0.004,0.082-0.036,0.141-0.074c0.104-0.085,0.129-0.099,0.188-0.072
		C17.981,25.716,18.034,25.68,18.005,25.647z M35.626,11.748c0.006-0.008,1.055-0.889,2.338-1.957
		c1.281-1.071,2.799-2.334,3.365-2.812c0.568-0.479,1.312-1.1,1.646-1.383c0.338-0.279,0.553-0.469,0.48-0.417
		c-0.078,0.052-2.754,2.267-5.942,4.909c-5.485,4.541-7.843,6.5-7.953,6.63l-0.049,0.056l0.059-0.025
		c0.039-0.014,0.3-0.223,0.593-0.469c0.293-0.244,0.541-0.443,0.555-0.443C30.736,15.843,35.62,11.773,35.626,11.748z M42.663,6.063
		c-0.013,0-0.025,0.013-0.035,0.026c-0.006,0.013,0,0.013,0.017,0C42.669,6.076,42.669,6.07,42.663,6.063z M42.272,6.383
		c-0.02,0.013-0.052,0.036-0.064,0.056c-0.021,0.022-0.006,0.017,0.032-0.013C42.272,6.393,42.286,6.377,42.272,6.383z M42.48,6.22
		c0.071-0.072,0.071-0.072-0.024,0.006C42.37,6.294,42.352,6.31,42.37,6.33c0.02,0.02,0.026,0.02,0.032-0.006
		C42.402,6.311,42.445,6.259,42.48,6.22z M43.646,5.367c0.013-0.053,0.024-0.062,0.06-0.053c0.055,0.01,0.09-0.033,0.062-0.072
		c-0.021-0.02-0.017-0.028,0.01-0.028c0.052,0,0.244-0.134,0.3-0.199l0.043-0.052l-0.068,0.006c-0.055,0.006-0.098,0.036-0.17,0.094
		c-0.051,0.049-0.141,0.107-0.186,0.135c-0.062,0.039-0.095,0.064-0.101,0.088c-0.005,0.021-0.011,0.025-0.026,0.02
		c-0.013-0.01-0.046,0.01-0.081,0.055c-0.039,0.053-0.053,0.072-0.028,0.068c0.024,0,0.031,0.003,0.024,0.031
		c-0.017,0.043,0,0.037,0.085-0.006c0.021-0.01,0.042-0.017,0.042-0.017S43.624,5.4,43.646,5.367z M41.855,6.875
		c-0.013-0.004-0.024,0.01-0.039,0.022c-0.006,0.021,0,0.021,0.021,0.007C41.855,6.884,41.862,6.875,41.855,6.875z M28.536,18.004
		c-0.014,0-0.033,0.006-0.039,0.02c-0.011,0.021,0,0.021,0.02,0C28.536,18.017,28.542,18.004,28.536,18.004z M44.55,4.964
		c-0.063-0.065-0.063-0.068-0.045-0.013c0.045,0.084,0.088,0.143,0.099,0.113C44.609,5.049,44.585,5.006,44.55,4.964z
		 M16.391,28.427l0.022-0.06l-0.031,0.047c-0.018,0.024-0.036,0.059-0.036,0.07C16.339,28.529,16.37,28.492,16.391,28.427z
		 M17.124,28.512c-0.026-0.003-0.047,0-0.047,0.007c-0.003,0.017,0.078,0.029,0.086,0.013
		C17.161,28.525,17.143,28.515,17.124,28.512z M18.243,27.785c0.006-0.022,0.006-0.028,0-0.022c-0.007,0.007-0.02,0.033-0.027,0.046
		c-0.01,0.026-0.006,0.032,0.008,0.026C18.229,27.828,18.235,27.806,18.243,27.785z M19.474,26.722
		c-0.018-0.021-0.026-0.039-0.018-0.049c0.023-0.017,0.037,0.003,0.043,0.049C19.499,26.754,19.499,26.754,19.474,26.722z
		 M18.359,27.742c0-0.013-0.017-0.013-0.032,0c-0.035,0.033-0.035,0,0.006-0.045c0.021-0.02,0.039-0.052,0.039-0.071
		c0.006-0.032,0.006-0.032,0.026-0.013c0.013,0.02,0.013,0.049,0,0.067c-0.013,0.021-0.021,0.042-0.013,0.049
		c0.006,0.007,0,0.021-0.008,0.032C18.374,27.763,18.359,27.757,18.359,27.742z M18.139,28.05c-0.021-0.021-0.021-0.026,0.003-0.021
		c0.01,0.014,0.023,0.025,0.023,0.036S18.151,28.07,18.139,28.05z M19.343,27.096c-0.006-0.007,0-0.021,0-0.029
		c0.006-0.007,0.025-0.007,0.033,0c0.006,0.014,0.006,0.026,0,0.032C19.362,27.105,19.35,27.103,19.343,27.096z M18.132,28.167
		c-0.033,0-0.045,0.006-0.045,0.024c0.006,0.023-0.008,0.036-0.026,0.036c-0.022,0.007-0.021-0.013,0.003-0.056
		c0.023-0.049,0.036-0.055,0.078-0.042C18.2,28.147,18.196,28.16,18.132,28.167z M19.212,28.111c0-0.013,0-0.029,0-0.031
		c0-0.004,0.014,0.003,0.026,0.01c0.007,0.01,0.007,0.025-0.013,0.031C19.22,28.131,19.212,28.123,19.212,28.111z M19.277,28.089
		c-0.01,0-0.032-0.015-0.039-0.029c-0.013-0.017-0.013-0.022,0.007-0.017c0.012,0,0.039,0,0.055-0.008
		c0.029-0.013,0.029-0.006,0.013,0.023C19.3,28.074,19.288,28.089,19.277,28.089z M20.091,27.783c-0.012-0.006-0.02,0,0,0.02
		c0.018,0.018,0.027,0.023,0.027,0.014C20.118,27.805,20.11,27.792,20.091,27.783z M20.216,28.023c-0.014,0-0.026,0.014-0.033,0.026
		c-0.006,0.019,0,0.019,0.02,0.006C20.216,28.043,20.226,28.023,20.216,28.023z M20.255,28.011c-0.014-0.007-0.018,0,0,0.021
		c0.013,0.013,0.022,0.024,0.025,0.013C20.276,28.031,20.268,28.017,20.255,28.011z M16.059,31.5
		c-0.011-0.014-0.036-0.021-0.042-0.008c-0.026,0.021-0.02,0.026,0.013,0.033c0.021,0.006,0.039,0.006,0.042,0.006
		C16.077,31.52,16.071,31.507,16.059,31.5z M20.091,28.099c-0.071,0.017-0.071,0.024-0.006,0.068
		c0.049,0.024,0.049,0.024,0.06-0.026C20.15,28.089,20.15,28.085,20.091,28.099z M16.022,31.715
		c-0.042-0.014-0.042-0.014-0.006,0.007c0.013,0.017,0.039,0.032,0.049,0.045c0.01,0.015,0.016,0.007,0.01-0.013
		C16.064,31.74,16.042,31.722,16.022,31.715z M18.9,29.671c-0.032-0.023-0.046-0.029-0.032-0.015
		c0.022,0.033,0.084,0.072,0.084,0.06C18.952,29.71,18.927,29.691,18.9,29.671z M19.624,29.97c-0.033-0.021-0.117-0.06-0.189-0.088
		c-0.153-0.068-0.469-0.166-0.449-0.138c0.01,0.015,0.078,0.043,0.148,0.068c0.072,0.02,0.138,0.053,0.141,0.068
		c0.01,0.02,0.014,0.023,0.018,0.011c0.002-0.014,0.064,0,0.133,0.032c0.179,0.084,0.225,0.098,0.238,0.084
		C19.675,29.996,19.655,29.977,19.624,29.97z M20.032,29.481c0.006-0.02,0.02-0.038,0.026-0.045c0.007-0.014,0.013,0,0.007,0.021
		c-0.007,0.02-0.02,0.041-0.025,0.049C20.026,29.515,20.026,29.505,20.032,29.481z M19.921,29.684
		c0.008-0.02,0.021-0.046,0.031-0.049c0.006-0.01,0.01,0.003,0.002,0.02c-0.006,0.022-0.019,0.043-0.025,0.049
		C19.923,29.71,19.915,29.703,19.921,29.684z M19.876,29.791c-0.002-0.004,0.008-0.021,0.014-0.036
		c0.006-0.017,0.02-0.021,0.025-0.007C19.909,29.771,19.89,29.808,19.876,29.791z M19.909,29.865
		c0.021-0.059,0.055-0.134,0.075-0.176c0.017-0.039,0.056-0.111,0.082-0.162c0.026-0.05,0.081-0.16,0.13-0.242
		c0.176-0.321,0.202-0.381,0.223-0.532c0.016-0.144-0.014-0.287-0.072-0.355c-0.033-0.034-0.033-0.081-0.006-0.101
		c0.006-0.008,0.029,0,0.049,0.02c0.055,0.039,0.094,0.234,0.087,0.41c0,0.156,0.021,0.145,0.071-0.031
		c0.021-0.068,0.021-0.15,0.008-0.22c-0.03-0.11-0.111-0.239-0.141-0.215c-0.017,0.01-0.02,0-0.025-0.032
		c-0.01-0.049-0.018-0.042-0.082,0.014c-0.072,0.062-0.075,0.067-0.045,0.127c0.025,0.06,0.016,0.053-0.065-0.045
		c-0.149-0.176-0.325-0.231-0.487-0.164c-0.084,0.033-0.729,0.58-0.763,0.643c-0.013,0.029,0,0.055,0.082,0.146
		c0.056,0.059,0.179,0.194,0.265,0.293c0.09,0.098,0.188,0.194,0.215,0.211c0.064,0.035,0.246,0.064,0.272,0.043
		c0.033-0.026,0.089,0.013,0.089,0.059c0,0.053-0.056,0.085-0.095,0.068c-0.013-0.01-0.032-0.01-0.036,0
		c-0.01,0.042-0.191,0.02-0.312-0.032c-0.104-0.049-0.146-0.082-0.272-0.209c-0.081-0.088-0.169-0.169-0.198-0.176
		c-0.067-0.029-0.123,0.007-0.137,0.095c-0.013,0.068-0.007,0.098,0.059,0.198c0.053,0.067,0.104,0.134,0.146,0.166
		c0.107,0.067,0.335,0.137,0.4,0.12c0.059-0.014,0.07-0.006,0.123,0.056c0.104,0.124,0.229,0.131,0.293,0.021
		c0.033-0.053,0.037-0.053,0.017,0.035c-0.017,0.075,0,0.237,0.036,0.276c0,0.007,0.006-0.039,0-0.099
		C19.884,30.013,19.896,29.918,19.909,29.865z M19.958,30.277c-0.035-0.054-0.062-0.076-0.055-0.054
		c0,0.021,0.032,0.065,0.064,0.103C20.04,30.412,20.032,30.394,19.958,30.277z M20.04,30.426c-0.014-0.007-0.014,0.007,0.006,0.031
		c0.02,0.021,0.025,0.027,0.025,0.014C20.065,30.455,20.052,30.436,20.04,30.426z M20.255,30.611
		c-0.092-0.211-0.189-0.576-0.184-0.689c0.008-0.107-0.031-0.074-0.045,0.049c-0.025,0.156-0.01,0.215,0.15,0.622
		c0.13,0.321,0.137,0.335,0.186,0.335c0.042-0.006,0.042-0.006,0.02-0.055C20.361,30.843,20.313,30.729,20.255,30.611z
		 M9.206,45.406c-0.067,0.032-0.143,0.026-0.225-0.02c-0.062-0.032-0.127-0.102-0.4-0.452c-0.318-0.399-1.289-1.618-2.154-2.705
		c-0.603-0.756-0.827-1.101-1.006-1.522c-0.166-0.4-0.153-0.69,0.022-0.771c0.026-0.014,0.149-0.095,0.265-0.18
		c0.117-0.084,0.314-0.234,0.451-0.332c0.371-0.26,0.697-0.553,0.938-0.846c0.293-0.346,0.391-0.498,0.642-1.053
		c0.244-0.523,0.219-0.498,0.562-0.801c0.496-0.439,4.22-3.503,4.564-3.757c0.371-0.271,0.442-0.306,0.566-0.272
		c0.049,0.013,0.098,0.022,0.104,0.022c0.014,0,0.062,0.021,0.111,0.038c0.052,0.02,0.104,0.039,0.117,0.036
		c0.013-0.003,0.025,0.01,0.025,0.017c0,0.014,0.032,0.021,0.068,0.032c0.036,0.004,0.068,0.014,0.081,0.026
		c0.071,0.059,0.354,0.088,0.526,0.059c0.312-0.064,0.658-0.251,0.854-0.469c0.307-0.342,0.441-0.69,0.465-1.18
		c0.01-0.244,0.004-0.312-0.042-0.5c-0.038-0.18-0.11-0.343-0.218-0.502c-0.146-0.229-0.163-0.3-0.111-0.463
		c0.068-0.218,0.485-0.85,0.685-1.037c0.075-0.068,0.14-0.123,0.14-0.115c0.003,0.015,0.023,0.008,0.039-0.01
		c0.059-0.049,0.346-0.113,0.523-0.119c0.089-0.004,0.166-0.014,0.166-0.021c0.008-0.026-0.293-0.007-0.455,0.032
		c-0.131,0.033-0.176,0.033-0.172,0.007c0-0.021-0.01-0.026-0.018-0.021c-0.006,0.008-0.039-0.021-0.07-0.07
		c-0.053-0.075-0.158-0.137-0.17-0.098c-0.002,0.006-0.033,0.006-0.064-0.008c-0.137-0.039-0.202-0.039-0.346,0.014
		c-0.084,0.028-0.194,0.064-0.25,0.078s-0.107,0.025-0.114,0.032c-0.042,0.032-0.169-0.082-0.16-0.149
		c0.007-0.064,0.042-0.068,0.088-0.021c0.049,0.065,0.065,0.021,0.013-0.055c-0.039-0.054-0.039-0.062,0.045-0.132
		c0.068-0.062,0.111-0.08,0.231-0.106c0.088-0.028,0.163-0.032,0.205-0.013c0.094,0.039,0.183,0.013,0.287-0.092
		c0.088-0.082,0.101-0.088,0.176-0.074c0.042,0.003,0.104,0.035,0.138,0.062c0.123,0.11,0.204,0.155,0.228,0.137
		c0.052-0.039,0,0.104-0.062,0.191c-0.076,0.102-0.076,0.143,0,0.074c0.106-0.081,0.543-0.074,0.907,0.014
		c0.088,0.025,0.163,0.035,0.183,0.021c0.017-0.021,0.078-0.132,0.14-0.259c0.134-0.272,0.375-0.656,0.544-0.881
		c0.24-0.312,0.456-0.519,1.074-1.028c0.615-0.509,0.647-0.541,0.65-0.664c0.004-0.075-0.085-0.22-0.14-0.22
		c-0.021,0-0.101,0.047-0.183,0.103c-0.191,0.124,2.256-1.92,5.983-4.994c1.673-1.387,2.806-2.331,2.777-2.321
		c-0.026,0.006-0.054,0.014-0.054,0.01c-0.006,0,0.039-0.038,0.092-0.071c0.066-0.049,0.095-0.062,0.078-0.039
		c0,0.021,0.045-0.006,0.131-0.071c0.117-0.101,0.123-0.107,0.059-0.091c-0.059,0.013-0.052,0.006,0.111-0.134
		c0.162-0.141,0.488-0.413,0.885-0.732c0.096-0.07,0.283-0.228,0.417-0.342c0.13-0.113,0.299-0.244,0.367-0.296
		c0.421-0.303,0.876-0.674,2.588-2.087c1.687-1.393,4.174-3.479,5.463-4.577c0.24-0.212,0.82-0.696,1.279-1.078
		c0.571-0.481,0.829-0.709,0.823-0.726c-0.008-0.033,0.106-0.135,0.295-0.258c0.076-0.055,0.154-0.116,0.18-0.137
		c0.046-0.045,0.137-0.123,0.248-0.207c0.045-0.033,0.137-0.11,0.201-0.17c0.064-0.062,0.131-0.123,0.15-0.144
		c0.021-0.021,0.028-0.032,0.01-0.045c-0.023-0.007-0.023-0.007,0.013-0.007c0.056,0.004,0.137-0.071,0.106-0.098
		c-0.02-0.02-0.006-0.035,0.037-0.068c0.034-0.022,0.067-0.041,0.067-0.028c0.013,0.01,0.13-0.104,0.137-0.127
		c0-0.022-0.007-0.017-0.082,0.039c-0.028,0.022-0.067,0.042-0.077,0.042c-0.035,0-0.127,0.117-0.113,0.137
		c0.006,0.008,0,0.02-0.021,0.033c-0.021,0.016-0.026,0.016-0.021,0c0.011-0.014,0.011-0.025,0.004-0.039
		c-0.018-0.014-0.442,0.338-0.504,0.423c-0.033,0.032-0.057,0.056-0.057,0.05c0-0.011-0.068,0.031-0.148,0.101
		c-0.082,0.065-0.137,0.116-0.127,0.124c0.01,0-0.004,0.025-0.03,0.056c-0.019,0.026-0.049,0.045-0.062,0.039
		c-0.006-0.003,0-0.022,0.025-0.049C40.925,7.477,40.878,7.51,40.8,7.57c-0.11,0.092-0.137,0.121-0.131,0.145
		c0.008,0.021,0,0.042-0.017,0.055c-0.036,0.026-0.056-0.006-0.028-0.039c0.021-0.031-9.651,7.982-10.35,8.568
		c-0.182,0.156-0.484,0.41-0.667,0.557c-0.187,0.149-0.41,0.348-0.508,0.43c-0.091,0.088-0.244,0.219-0.335,0.291
		c-0.149,0.121-3.051,2.514-3.883,3.209c-0.521,0.431-3.705,3.037-4.414,3.607c-0.336,0.28-0.951,0.774-1.367,1.105
		c-0.541,0.443-0.791,0.652-0.915,0.779c-0.095,0.094-0.335,0.312-0.537,0.479c-0.202,0.169-0.365,0.318-0.372,0.332
		c0,0.013-0.014,0.031-0.025,0.045c-0.017,0.014-0.026,0.046-0.023,0.064c0.007,0.039,0.007,0.043-0.053,0.039
		c-0.028,0-0.088-0.02-0.123-0.039l-0.062-0.039l-0.26,0.213c-0.145,0.121-0.28,0.219-0.301,0.219c-0.031,0.013-0.049,0-0.08-0.062
		c-0.062-0.113-0.042-0.137,0.23-0.36c0.226-0.187,0.254-0.208,0.316-0.208c0.082-0.004,0.127-0.039,0.102-0.072
		c-0.007-0.013-0.014-0.032,0-0.038c0.012-0.011,0-0.032-0.033-0.065c-0.035-0.02-0.152-0.148-0.267-0.287
		c-0.182-0.217-0.211-0.246-0.247-0.236c-0.025,0.003-0.345,0.251-0.742,0.583c-0.684,0.56-0.703,0.571-0.738,0.657
		c-0.023,0.052-0.036,0.109-0.036,0.13c0.022,0.124-0.251,0.456-0.798,0.978c-0.706,0.676-1.162,1.073-1.598,1.426
		c-0.424,0.338-0.463,0.357-0.561,0.377c-0.145,0.039-0.28-0.025-0.521-0.24c-0.244-0.221-0.666-0.756-0.777-0.979
		c-0.124-0.265-0.111-0.343,0.08-0.516c0.248-0.211,1.137-0.953,1.295-1.07c0.371-0.272,0.541-0.396,0.584-0.424
		c0.029-0.02,0.158-0.117,0.296-0.221c0.286-0.223,0.469-0.34,0.716-0.463c0.156-0.074,0.189-0.084,0.312-0.074l0.137,0.013
		l0.752-0.62c0.426-0.35,0.758-0.633,0.765-0.648c0-0.018-0.021-0.062-0.032-0.098c-0.099-0.166-0.084-0.226,0.074-0.47
		c0.062-0.094,0.082-0.114,0.169-0.151c0.257-0.121,0.414-0.127,0.498-0.021c0.075,0.088,0.078,0.084,0.31-0.103l0.211-0.172
		l0.007-0.084c0.006-0.092,0-0.099-0.163-0.31c-0.117-0.146-0.241-0.371-0.241-0.433c0-0.033,0.036-0.094,0.082-0.156
		c0.114-0.137,0.589-0.527,0.72-0.594c0.104-0.041,0.11-0.041,0.188,0.008c0.049,0.031,0.116,0.088,0.16,0.119
		c0.038,0.037,0.075,0.068,0.087,0.068c0.007,0.008,0.059,0.072,0.117,0.137c0.107,0.131,0.111,0.131,0.225,0.145l0.117,0.016
		l0.199-0.166c0.109-0.088,0.195-0.168,0.195-0.186c0-0.01-0.027-0.068-0.06-0.121c-0.033-0.055-0.056-0.124-0.056-0.148
		c0.002-0.062,0.156-0.316,0.225-0.379c0.039-0.025,0.143-0.07,0.23-0.101c0.146-0.049,0.187-0.056,0.244-0.029
		c0.037,0.022,0.092,0.06,0.111,0.085c0.029,0.032,0.062,0.045,0.091,0.038c0.026,0,0.271-0.194,0.681-0.534
		c0.693-0.572,0.59-0.476,1.345-1.317c0.127-0.14,0.384-0.431,0.565-0.628c0.188-0.208,0.395-0.443,0.469-0.527
		c0.076-0.084,0.229-0.25,0.339-0.375c0.104-0.12,0.233-0.257,0.276-0.309c0.25-0.293,1.27-1.211,1.494-1.348
		c0.219-0.131,0.247-0.138,0.371-0.033c0.215,0.183,1.37,1.614,1.383,1.726c0.004,0.013-0.016,0.067-0.037,0.124
		c-0.043,0.088-0.076,0.121-0.392,0.391c-0.7,0.6-1.019,0.807-3.594,2.34l-0.615,0.368l-0.685,0.566
		c-0.807,0.664-0.762,0.599-0.592,0.794c0.137,0.148,0.149,0.156,0.211,0.102c0.135-0.107,0.226-0.149,0.274-0.128
		c0.067,0.039,0.136-0.021,0.11-0.098c-0.016-0.052-0.016-0.056,0.16-0.192l0.201-0.137l0.125,0.13
		c0.162,0.172,0.215,0.198,0.299,0.146c0.043-0.02,1.523-1.243,3.291-2.715c1.771-1.471,4.574-3.809,6.234-5.188
		s3.541-2.949,4.186-3.49c0.646-0.54,2.85-2.37,4.896-4.069l3.725-3.086L44.13,4.58c0.11,0.018,0.283,0.16,0.431,0.365
		c0.123,0.183,0.159,0.287,0.12,0.381c-0.029,0.068-0.174,0.192-2.758,2.351c-1.5,1.253-4.608,3.845-6.91,5.759
		c-3.229,2.689-4.188,3.49-4.202,3.532c-0.017,0.042-0.007,0.055,0.12,0.198c0.101,0.111,0.14,0.162,0.166,0.238
		c0.064,0.178,0.046,0.321-0.065,0.504c-0.021,0.035-0.137,0.16-0.26,0.267c-0.241,0.226-0.247,0.233-0.17,0.335
		c0.065,0.075,0.067,0.133,0.026,0.218c-0.068,0.117-0.114,0.144-0.254,0.138c-0.164,0-0.195,0.025-0.34,0.279
		c-0.062,0.117-0.169,0.28-0.234,0.374c-0.115,0.173-0.135,0.187-0.969,0.902c-0.47,0.397-1.146,0.985-1.511,1.299
		c-2.468,2.151-2.493,2.174-2.765,2.412c-0.127,0.11-0.576,0.508-0.999,0.883c-0.802,0.703-1.173,1.038-2.035,1.822
		c-0.28,0.261-0.563,0.498-0.622,0.541c-0.072,0.049-0.148,0.073-0.241,0.088c-0.12,0.024-0.143,0.032-0.28,0.149
		c-0.201,0.168-0.201,0.162-0.006,0.396c0.131,0.162,0.164,0.215,0.215,0.348c0.068,0.17,0.078,0.381,0.033,0.541
		c-0.02,0.081-0.137,0.325-0.205,0.449c-0.127,0.219-0.211,0.43-0.218,0.543c-0.013,0.251,0.007,0.346,0.187,0.762
		c0.041,0.102,0.074,0.213,0.074,0.252c-0.006,0.067-0.013,0.07-0.072,0.074c-0.064,0.006-0.07,0-0.116-0.064
		c-0.022-0.047-0.071-0.131-0.104-0.195c-0.074-0.184-0.334-0.495-0.481-0.586c-0.106-0.062-0.188-0.082-0.216-0.062
		c-0.021,0.023-0.098-0.013-0.172-0.067c-0.035-0.025-0.094-0.052-0.123-0.06c-0.029,0-0.068-0.016-0.088-0.024
		c-0.021-0.009-0.095-0.015-0.17-0.007c-0.104,0.01-0.149,0.025-0.207,0.078c-0.039,0.035-0.072,0.067-0.065,0.078
		c0.006,0.012,0.006,0.025-0.013,0.039c-0.014,0.012-0.021,0.025-0.021,0.035c0.026,0.059-0.127,0.434-0.233,0.6
		c-0.117,0.179-0.177,0.354-0.192,0.621c-0.013,0.138-0.017,0.254-0.013,0.254c0.006,0.006-0.004,0.088-0.014,0.188
		c-0.01,0.099-0.013,0.205-0.006,0.247c0.039,0.191,0.053,0.28,0.053,0.3c-0.007,0.007,0.01,0.042,0.028,0.078
		c0.013,0.032,0.026,0.065,0.021,0.071c-0.006,0.007,0.013,0.064,0.035,0.131c0.03,0.07,0.049,0.13,0.039,0.13
		c-0.01,0.013,0.049,0.261,0.102,0.423c0.02,0.072,0.117,0.241,0.169,0.311c0.071,0.08,0.208,0.388,0.202,0.459
		c0,0.07-0.111,0.244-0.202,0.312c-0.14,0.124-1.349,0.615-1.384,0.566c-0.004-0.007-0.014-0.007-0.017,0.007
		c-0.01,0.02-0.084,0.013-0.137-0.02c-0.021-0.008-0.065-0.015-0.106-0.008c-0.043,0.014-0.082,0-0.102-0.021
		c-0.049-0.061-0.195,0.003-0.346,0.152c-0.207,0.201-0.422,0.508-1.34,1.92c-0.195,0.301-0.424,0.631-0.502,0.756
		c-0.08,0.123-0.381,0.565-0.67,0.996c-0.287,0.427-0.531,0.787-0.543,0.808c-0.017,0.021-0.14,0.202-0.272,0.397
		c-0.134,0.197-0.361,0.539-0.505,0.748c-0.418,0.604-1.325,1.946-1.42,2.079c-0.059,0.089-0.084,0.153-0.09,0.22
		c-0.006,0.055-0.026,0.148-0.05,0.203c-0.038,0.108-0.042,0.114-0.182,0.196c-0.13,0.081-0.147,0.101-0.29,0.289
		c-0.081,0.106-0.208,0.293-0.28,0.403c-0.082,0.121-0.208,0.277-0.319,0.395c-0.198,0.213-0.267,0.297-0.476,0.629
		C9.415,45.214,9.29,45.354,9.206,45.406z"/>
	
		<linearGradient id="SVGID_2_" gradientUnits="userSpaceOnUse" x1="898" y1="1681.334" x2="898" y2="1634.668" gradientTransform="matrix(1 0 0 1 -873 -1633)">
		<stop  offset="0" style="stop-color:#000000;stop-opacity:0.35"/>
		<stop  offset="0.0975" style="stop-color:#060606;stop-opacity:0.3159"/>
		<stop  offset="0.2216" style="stop-color:#151515;stop-opacity:0.2724"/>
		<stop  offset="0.36" style="stop-color:#2F2F2F;stop-opacity:0.224"/>
		<stop  offset="0.5088" style="stop-color:#545454;stop-opacity:0.1719"/>
		<stop  offset="0.6661" style="stop-color:#838383;stop-opacity:0.1169"/>
		<stop  offset="0.8304" style="stop-color:#BCBCBC;stop-opacity:0.0594"/>
		<stop  offset="0.9977" style="stop-color:#FEFEFE;stop-opacity:8.182824e-04"/>
		<stop  offset="1" style="stop-color:#FFFFFF;stop-opacity:0"/>
	</linearGradient>
	<rect x="1.667" y="1.667" fill="url(#SVGID_2_)" width="46.667" height="46.667"/>
	
		<linearGradient id="SVGID_3_" gradientUnits="userSpaceOnUse" x1="898" y1="1683" x2="898" y2="1636.334" gradientTransform="matrix(1 0 0 1 -873 -1633)">
		<stop  offset="0" style="stop-color:#000000;stop-opacity:0"/>
		<stop  offset="0.3726" style="stop-color:#020202;stop-opacity:0.205"/>
		<stop  offset="0.5069" style="stop-color:#090909;stop-opacity:0.2788"/>
		<stop  offset="0.6026" style="stop-color:#141414;stop-opacity:0.3314"/>
		<stop  offset="0.68" style="stop-color:#252525;stop-opacity:0.374"/>
		<stop  offset="0.7463" style="stop-color:#3B3B3B;stop-opacity:0.4104"/>
		<stop  offset="0.805" style="stop-color:#575757;stop-opacity:0.4427"/>
		<stop  offset="0.8581" style="stop-color:#777777;stop-opacity:0.472"/>
		<stop  offset="0.9069" style="stop-color:#9D9D9D;stop-opacity:0.4988"/>
		<stop  offset="0.9523" style="stop-color:#C8C8C8;stop-opacity:0.5238"/>
		<stop  offset="0.9926" style="stop-color:#F6F6F6;stop-opacity:0.5459"/>
		<stop  offset="1" style="stop-color:#FFFFFF;stop-opacity:0.55"/>
	</linearGradient>
	<rect x="1.667" y="3.333" fill="url(#SVGID_3_)" width="46.667" height="46.667"/>
</g>
</svg>
