<?xml version="1.0" encoding="utf-8"?>
<!-- Generator: Adobe Illustrator 16.0.0, SVG Export Plug-In . SVG Version: 6.00 Build 0)  -->
<!DOCTYPE svg PUBLIC "-//W3C//DTD SVG 1.1//EN" "http://www.w3.org/Graphics/SVG/1.1/DTD/svg11.dtd">
<svg version="1.1" id="Layer_1" xmlns="http://www.w3.org/2000/svg" xmlns:xlink="http://www.w3.org/1999/xlink" x="0px" y="0px"
	 width="150px" height="100px" viewBox="0 0 150 100" enable-background="new 0 0 150 100" xml:space="preserve">
<g>
	<path id="Base_2_" fill="#8A0016" d="M111.465,7.328c-3.02,0.905-6.279,1.363-9.699,1.363c-11.423,0-14.523-6.975-14.523-6.975
		L62.609,1.788c0,0-3.072,6.903-14.51,6.903c-3.409,0-6.669-0.458-9.693-1.363l-8.031-2.402v30.398
		c0,26.723,21.301,49.263,41.234,61.453l3.47,2.111l3.401-2.215c20.283-13.229,41.02-30.861,41.02-61.351V4.926L111.465,7.328z"/>
	<path id="Base_1_" fill="#8A0016" d="M85.6,4.721c1.914,2.565,6.592,6.97,16.166,6.97c3.713,0,7.267-0.501,10.56-1.488l4.176-1.249
		v26.37c0,29.057-20.048,46.049-39.655,58.836l-1.819,1.184l-1.851-1.126c-19.241-11.767-39.8-33.417-39.8-58.894V8.955l4.171,1.248
		c3.3,0.988,6.851,1.489,10.553,1.489c9.579,0,14.246-4.363,16.154-6.908L85.6,4.721 M87.241,1.716L62.609,1.788
		c0,0-3.072,6.903-14.51,6.903c-3.409,0-6.669-0.458-9.693-1.363l-8.031-2.402v30.398c0,26.723,21.301,49.263,41.234,61.453
		l3.47,2.111l3.401-2.215c20.283-13.229,41.02-30.861,41.02-61.351V4.926l-8.035,2.402c-3.02,0.905-6.279,1.363-9.699,1.363
		C90.343,8.691,87.241,1.716,87.241,1.716L87.241,1.716z"/>
</g>
<g>
	<radialGradient id="Dark_1_" cx="74.9375" cy="50.3022" r="46.6179" gradientUnits="userSpaceOnUse">
		<stop  offset="0" style="stop-color:#FFFFFF"/>
		<stop  offset="0.6548" style="stop-color:#000000"/>
	</radialGradient>
	<path id="Dark_3_" fill="url(#Dark_1_)" stroke="#000099" stroke-miterlimit="10" d="M111.465,7.328
		c-3.02,0.905-6.279,1.363-9.699,1.363c-11.423,0-14.523-6.975-14.523-6.975L62.609,1.788c0,0-3.072,6.903-14.51,6.903
		c-3.409,0-6.669-0.458-9.693-1.363l-8.031-2.402v30.398c0,26.723,21.301,49.263,41.234,61.453l3.47,2.111l3.401-2.215
		c20.283-13.229,41.02-30.861,41.02-61.351V4.926L111.465,7.328z"/>
	<radialGradient id="Dark_4_" cx="74.9375" cy="50.3022" r="46.6179" gradientUnits="userSpaceOnUse">
		<stop  offset="0" style="stop-color:#FFFFFF"/>
		<stop  offset="0.6548" style="stop-color:#000000"/>
	</radialGradient>
	<path id="Dark_2_" fill="url(#Dark_4_)" stroke="#000099" stroke-miterlimit="10" d="M85.6,4.721
		c1.914,2.565,6.592,6.97,16.166,6.97c3.713,0,7.267-0.501,10.56-1.488l4.176-1.249v26.37c0,29.057-20.048,46.049-39.655,58.836
		l-1.819,1.184l-1.851-1.126c-19.241-11.767-39.8-33.417-39.8-58.894V8.955l4.171,1.248c3.3,0.988,6.851,1.489,10.553,1.489
		c9.579,0,14.246-4.363,16.154-6.908L85.6,4.721 M87.241,1.716L62.609,1.788c0,0-3.072,6.903-14.51,6.903
		c-3.409,0-6.669-0.458-9.693-1.363l-8.031-2.402v30.398c0,26.723,21.301,49.263,41.234,61.453l3.47,2.111l3.401-2.215
		c20.283-13.229,41.02-30.861,41.02-61.351V4.926l-8.035,2.402c-3.02,0.905-6.279,1.363-9.699,1.363
		C90.343,8.691,87.241,1.716,87.241,1.716L87.241,1.716z"/>
</g>
<text transform="matrix(1 0 0 1 50.9238 37.834)" fill="#29218E" stroke="#158BAF" stroke-miterlimit="10" font-family="'Apple-Chancery'" font-size="28">MY</text>
<text transform="matrix(1 0 0 1 22.0005 67.833)" fill="#0033CC" stroke="#660808" stroke-miterlimit="10" font-family="'Apple-Chancery'" font-size="28">Loadouts</text>
</svg>
